<?xml version="1.0" encoding="UTF-8"?>
<svg xmlns="http://www.w3.org/2000/svg" xmlns:xlink="http://www.w3.org/1999/xlink" viewBox="0 0 1920 1080">
  <defs>
    <style>
      .cls-1 {
        fill: none;
      }

      .cls-2 {
        fill: #dabe9f;
      }

      .cls-3 {
        fill: #d93c0f;
      }

      .cls-4, .cls-5, .cls-6 {
        fill: #077738;
      }

      .cls-7 {
        isolation: isolate;
      }

      .cls-8 {
        clip-path: url(#clippath-1);
      }

      .cls-9 {
        fill: #b4e1a0;
      }

      .cls-9, .cls-6 {
        mix-blend-mode: screen;
        opacity: .2;
      }

      .cls-10 {
        fill: #f3fff3;
      }

      .cls-11 {
        fill: #96db79;
      }

      .cls-12 {
        fill: #c49f60;
      }

      .cls-5 {
        opacity: .16;
      }

      .cls-5, .cls-13 {
        mix-blend-mode: multiply;
      }

      .cls-14 {
        opacity: .4;
      }

      .cls-15 {
        fill: #ea9d00;
      }

      .cls-16 {
        letter-spacing: -.49em;
      }

      .cls-17 {
        fill: #2b2a28;
      }

      .cls-18 {
        letter-spacing: -.03em;
      }

      .cls-19 {
        letter-spacing: -.02em;
      }

      .cls-20 {
        letter-spacing: -.02em;
      }

      .cls-21 {
        letter-spacing: -.02em;
      }

      .cls-22 {
        letter-spacing: -.02em;
      }

      .cls-23 {
        letter-spacing: -.02em;
      }

      .cls-24 {
        letter-spacing: -.01em;
      }

      .cls-25 {
        letter-spacing: -.01em;
      }

      .cls-26 {
        letter-spacing: -.01em;
      }

      .cls-27 {
        letter-spacing: -.04em;
      }

      .cls-28 {
        letter-spacing: -.04em;
      }

      .cls-29 {
        letter-spacing: -.04em;
      }

      .cls-30 {
        letter-spacing: -.03em;
      }

      .cls-31 {
        letter-spacing: -.04em;
      }

      .cls-32 {
        letter-spacing: -.03em;
      }

      .cls-33 {
        letter-spacing: 0em;
      }

      .cls-13 {
        fill: #00241d;
        opacity: .3;
      }

      .cls-34 {
        fill: #fff;
        font-family: NotoSansTC-Bold, 'Noto Sans TC';
        font-size: 33px;
        font-variation-settings: 'wght' 700;
        font-weight: 700;
      }

      .cls-35 {
        fill: #077bbe;
      }
    </style>
    <clipPath id="clippath-1">
      <path class="cls-1" d="M1945.72,564.45c6.42-1.09,12.87-1.98,19.37-2.65v538.69c-3.37.34-6.74.64-10.11.95-3.55.34-7.06.64-10.61.92-3.3.28-6.63.53-9.97.75-5.45.42-10.9.78-16.35,1.09-.9.06-1.76.11-2.65.17-4.95.28-9.86.53-14.77.75-4.91.22-9.83.42-14.77.61-3.26.14-6.53.25-9.83.34-16.07.47-32.13.75-48.23.73-3.01,0-6.06-.03-9.07-.06-3.66-.03-7.35-.08-11.04-.14-.97-.03-1.94-.06-2.9-.08-3.37-.06-6.74-.14-10.11-.25-4.27-.14-8.5-.28-12.77-.45-2.55-.08-5.06-.2-7.6-.33-2.55-.11-5.09-.25-7.6-.39-.57,0-1.15-.03-1.72-.08-1.47-.08-2.98-.17-4.45-.28-.5,0-.97-.03-1.43-.08-2.15-.14-4.34-.28-6.49-.42-10.51-.73-20.98-1.65-31.41-2.76-2.51-.25-5.02-.53-7.53-.84-10.04-1.15-20.08-2.48-30.05-4.02-.9-.14-1.79-.28-2.73-.45-5.27-.81-10.54-1.73-15.81-2.68-63.94-11.67-125.87-32.7-176.61-65.08-3.91-2.48-7.71-5.03-11.48-7.65l-4.99-.61-3.48-.45-2.04-.25-17.93-2.26c1.22-11.06,2.69-22.14,4.59-33.14.22-1.26.43-2.49.68-3.71,5.42-30.07,14.02-59.75,28.72-87.79.22-.45.47-.89.72-1.34.14-.34.32-.64.5-.98,5.85-10.89,12.69-21.5,20.55-31.66.36-.47.72-.92,1.08-1.4,17.89-22.78,40.85-43.11,68.71-58.27.5-.28.97-.56,1.47-.81,4.3-2.29,8.68-4.47,13.2-6.51,9.75-4.41,19.9-8.18,30.34-11.39.61-.2,1.18-.39,1.76-.56,23.13-6.98,47.55-11.48,72.04-14.77.68-.11,1.33-.2,2.01-.28.32-.06.68-.08,1-.14,5.49-37.08,24.64-70.81,52.86-99.93.36-.39.72-.78,1.15-1.17,16.5-16.89,36.04-32.19,57.74-45.65.54-.34,1.11-.7,1.65-1.01,10.9-6.7,22.31-12.93,34.1-18.65.54-.28,1.08-.53,1.61-.78,2.98-1.45,5.99-2.85,9.04-4.22,16.93-7.65,34.68-14.38,53.04-19.68.65-.2,1.29-.39,1.97-.56h.04c11.12-3.18,22.45-5.84,34-7.87.9-.17,1.79-.31,2.65-.45Z"/>
    </clipPath>
  </defs>
  <g class="cls-7">
    <g id="Layer_1" data-name="Layer 1">
      <rect class="cls-17" x="433.99" y="-447.98" width="1081.16" height="1975.13" transform="translate(434.99 1514.14) rotate(-90)"/>
      <path class="cls-2" d="M1263.51,873.54c10.88-6.69,22.62-11.62,33.85-17.61,9.93-5.3,19.21-11.69,27.86-19.03,17.06-14.49,31.23-32.25,44.35-50.56,6.55-9.14,12.84-18.48,19.13-27.82,6.67-9.9,12.98-20.51,21.26-29.06,8.64-8.93,19.87-13.72,31.29-17.49,11.3-3.74,22.75-7.09,34.26-10.06,23.06-5.94,46.84-10.13,70.67-9.01,11.6.55,23.11,2.45,34.2,6.09,11.63,3.82,22.29,9.72,32.41,16.75,10.42,7.23,20.34,15.23,31.15,21.86,9.9,6.07,20.37,11.14,31.17,15.2,22.17,8.33,45.98,12.36,69.54,11.48,5.81-.22,11.6-.74,17.37-1.53,2.64-.36,2.7-4.72,0-4.39-23.88,2.99-48.25,1.14-71.43-5.52-11.65-3.35-22.98-7.86-33.76-13.54-11.02-5.81-21.15-13.01-31.25-20.37-10.2-7.44-20.52-14.75-32-19.9-10.62-4.77-21.78-7.83-33.22-9.48-23.41-3.38-47.21-.84-70.25,4-11.89,2.5-23.64,5.65-35.29,9.12-11.28,3.36-22.87,6.57-33.34,12.21-10.58,5.7-18.33,14.38-25.27,24.3-6.57,9.39-12.82,19.03-19.26,28.53-12.96,19.12-26.45,38.01-42.63,54.35-7.99,8.08-16.62,15.47-26,21.75-10.47,7-21.85,12.15-33.04,17.74-10.56,5.27-20.56,11.33-29.68,19.01-8.3,6.98-15.76,14.99-22.51,23.58-13.93,17.73-24.92,37.7-35.11,57.93-1.58,3.14-3.12,6.29-4.67,9.44-1.29,2-2.36,4.15-3.14,6.46-.91,2.67,3.17,4.47,4.41,1.94.92-1.89,1.85-3.79,2.79-5.69,3.55-5.27,9.13-8.77,14.68-11.69,7.67-4.04,15.84-7.26,22.77-12.66,8.78-6.85,12.47-17.4,19.25-26,6.49-8.23,14.76-14.6,23.55-19.92,18.49-11.2,38.83-18.55,57.23-29.97,19.34-11.99,37.1-26.82,52.57-43.85,7.71-8.49,14.84-17.54,21.35-27.05,6.77-9.9,12.62-20.43,19.11-30.51,6.39-9.93,13.58-19.35,22.68-26.74,8.52-6.92,18.34-12,28.54-15.62,20.8-7.37,42.99-9.11,64.8-9.9,12.93-.47,26.08-.83,38.81,1.95,12.37,2.7,23.58,8.7,34.35,15.41,21.37,13.3,42.29,27.14,65.21,37.47,22.13,9.98,45.84,17.03,70.12,16.88,1.37,0,2.74-.05,4.1-.11-29.15,12.86-64.17-3.77-91.94-14.73-18.76-7.4-37.51-14.81-56.27-22.2-17.85-7.03-35.85-14.26-54.97-16.35-33.18-3.62-64.92,10.76-91.22,30.75-26.96,20.49-48.6,46.72-71.15,72.07-22.04,24.77-45.61,49.34-75.14,64.24-3.62,1.83-7.32,3.48-11.08,4.98-1.1.44-2.38,1.59-2.2,3,1.58,12.45,11.17,21.2,22.52,24.26,13.43,3.61,26.88-1.86,37.68-10.12,12.38-9.47,22.77-21.79,32.73-33.87,10.51-12.74,20.44-25.98,30.72-38.92,19.13-24.04,40-47.37,66.5-62.65,12.55-7.24,26.29-12.5,40.57-14.35,16.73-2.17,33.66.33,49.79,5.1,29.8,8.81,59.46,24.75,78.87,50.52-19.39,2.61-38.74-3.14-57.16-9.11-19.95-6.46-40.3-13.86-61.47-13.47-42.9.79-76.08,34.96-101.88,67.06-15.66,19.48-30.33,41.25-34.41,66.84-.62,3.91,5.12,5.59,5.75,1.65,3.59-22.46,15.6-41.94,29.13-59.35,12.96-16.68,27.05-32.95,43.39-46.12,15.96-12.87,34.8-22.7,55.25-23.76,20.77-1.08,40.84,6.07,60.38,12.45,21.75,7.11,44.35,13.82,67.25,9.12,1.81-.37,2.9-3.04,1.81-4.62-16.63-24.24-41.34-40.51-67.73-51.06-29.24-11.69-61.24-16.84-91.47-6.07-59.58,21.23-91.25,81.88-132.18,126.97-10.97,12.08-23.68,25.59-40.16,28.39-11.42,1.94-26.59-4.3-29.54-16.94,29.39-12.37,53.55-34.2,75.36-57.73,23.2-25.03,44.27-52.29,70.16-74.48,25.14-21.55,55.7-39.37,89.12-39.13,19.06.14,37.27,6.58,54.93,13.46,18.86,7.35,37.68,14.82,56.52,22.22,18.19,7.15,36.39,15.46,55.43,19.88,16.71,3.88,34.52,4.18,50.42-3.18,3.7-1.71,7.15-3.87,10.38-6.42,2.75-2.17,1.12-6.19-2.3-5.68-50.56,7.59-98.56-19.83-140.09-46.42-10.59-6.78-21.27-13.57-33-18.03-12.17-4.63-25.13-5.83-38.01-5.79-22.47.09-45.53,1.48-67.45,6.94-21.48,5.35-41.51,15.76-56.04,33.44-7.56,9.2-13.68,19.53-19.88,29.74-6.18,10.18-12.69,20.08-20.05,29.37-14.66,18.5-31.84,34.82-50.93,48.24-9.34,6.56-19.11,12.42-29.23,17.56-9.5,4.82-19.24,9.12-28.69,14.05-9.31,4.86-18.38,10.36-26.3,17.46-3.82,3.42-7.27,7.22-10.33,11.39-3.5,4.79-6.08,10.18-9.37,15.11-8.54,12.82-23.77,15.93-35.79,23.88,17.25-34.09,37.48-68.03,69.85-87.92Z"/>
      <g class="cls-8">
        <path class="cls-3" d="M1945.72,564.45c6.42-1.09,12.87-1.98,19.37-2.65v538.69c-3.37.34-6.74.64-10.11.95-3.55.34-7.06.64-10.61.92-3.3.28-6.63.53-9.97.75-5.45.42-10.9.78-16.35,1.09-.9.06-1.76.11-2.65.17-4.95.28-9.86.53-14.77.75-4.91.22-9.83.42-14.77.61-3.26.14-6.53.25-9.83.34-16.07.47-32.13.75-48.23.73-3.01,0-6.06-.03-9.07-.06-3.66-.03-7.35-.08-11.04-.14-.97-.03-1.94-.06-2.9-.08-3.37-.06-6.74-.14-10.11-.25-4.27-.14-8.5-.28-12.77-.45-2.55-.08-5.06-.2-7.6-.33-2.55-.11-5.09-.25-7.6-.39-.57,0-1.15-.03-1.72-.08-1.47-.08-2.98-.17-4.45-.28-.5,0-.97-.03-1.43-.08-2.15-.14-4.34-.28-6.49-.42-10.51-.73-20.98-1.65-31.41-2.76-2.51-.25-5.02-.53-7.53-.84-10.04-1.15-20.08-2.48-30.05-4.02-.9-.14-1.79-.28-2.73-.45-5.27-.81-10.54-1.73-15.81-2.68-63.94-11.67-125.87-32.7-176.61-65.08-3.91-2.48-7.71-5.03-11.48-7.65l-4.99-.61-3.48-.45-2.04-.25-17.93-2.26c1.22-11.06,2.69-22.14,4.59-33.14.22-1.26.43-2.49.68-3.71,5.42-30.07,14.02-59.75,28.72-87.79.22-.45.47-.89.72-1.34.14-.34.32-.64.5-.98,5.85-10.89,12.69-21.5,20.55-31.66.36-.47.72-.92,1.08-1.4,17.89-22.78,40.85-43.11,68.71-58.27.5-.28.97-.56,1.47-.81,4.3-2.29,8.68-4.47,13.2-6.51,9.75-4.41,19.9-8.18,30.34-11.39.61-.2,1.18-.39,1.76-.56,23.13-6.98,47.55-11.48,72.04-14.77.68-.11,1.33-.2,2.01-.28.32-.06.68-.08,1-.14,5.49-37.08,24.64-70.81,52.86-99.93.36-.39.72-.78,1.15-1.17,16.5-16.89,36.04-32.19,57.74-45.65.54-.34,1.11-.7,1.65-1.01,10.9-6.7,22.31-12.93,34.1-18.65.54-.28,1.08-.53,1.61-.78,2.98-1.45,5.99-2.85,9.04-4.22,16.93-7.65,34.68-14.38,53.04-19.68.65-.2,1.29-.39,1.97-.56h.04c11.12-3.18,22.45-5.84,34-7.87.9-.17,1.79-.31,2.65-.45Z"/>
        <path class="cls-13" d="M1958.61,662.66c2.16-.49,4.31-.97,6.47-1.42v455.08c-2.94.45-5.88.86-8.82,1.27-3.09.45-6.16.86-9.25,1.24-2.88.37-5.78.71-8.69,1.01-4.75.56-9.5,1.05-14.26,1.46-.78.08-1.53.15-2.31.22-4.31.37-8.6.71-12.88,1.01-4.28.3-8.57.56-12.88.82-2.85.19-5.69.34-8.57.45-14.01.64-28.01,1.01-42.05.97-2.63,0-5.28-.04-7.91-.08-3.19-.04-6.41-.11-9.63-.19-.84-.04-1.69-.07-2.53-.11-2.94-.08-5.88-.19-8.82-.34-3.72-.19-7.41-.37-11.13-.6-2.22-.11-4.41-.26-6.63-.45-2.22-.15-4.44-.34-6.63-.53-.5,0-1-.04-1.5-.11-1.28-.11-2.6-.22-3.88-.37-.44,0-.84-.04-1.25-.11-1.88-.19-3.78-.37-5.66-.56-9.16-.97-18.29-2.21-27.39-3.71-2.19-.34-4.38-.71-6.57-1.12-8.75-1.54-17.51-3.34-26.2-5.4-.78-.19-1.56-.38-2.38-.6-4.6-1.09-9.19-2.32-13.79-3.6-55.74-15.67-138.74-7.74-182.98-51.23,12.04-33.89,56.26-102.3,74.15-132.41,4-6.82,8.16-13.53,12.47-20.13.31-.52.66-1.01,1.03-1.54,3.69-5.74,7.53-11.36,11.54-16.91.31-.52.69-1.05,1.06-1.54,15.76-22.12,32.98-42.85,51.34-61.97.41-.45.84-.9,1.25-1.31,17.2-17.81,35.39-34.27,54.37-49.15.47-.41.94-.79,1.44-1.12,3.97-3.15,8-6.19,12.07-9.19,12.22-8.96,24.67-17.36,37.39-25.16.5-.34,1.03-.67,1.56-.94,54.9-33.59,114.12-56.61,174.89-70.82h.03c1.16-.3,2.31-.6,3.5-.82Z"/>
        <g class="cls-14">
          <path class="cls-11" d="M1456.83,972.82c3.62,9.8,7.53,19.54,11.65,29.21l-2.04-.24c-4.02-9.48-7.82-19.01-11.37-28.59-.68-1.8-1.33-3.62-1.97-5.45.22-1.21.43-2.39.68-3.57.97,2.9,2.01,5.77,3.05,8.64Z"/>
          <path class="cls-11" d="M1683.58,1075.99c-.9-.13-1.79-.27-2.73-.43-31.13-31.68-57.2-63.52-79.22-91.92l-4.41-5.74c-13.38-17.29-26.93-34.87-42.71-50.82-16.96-17.23-36.54-32.54-61.11-43.44-2.9-1.29-6.74-2.79-10.9-3.87.22-.43.47-.86.72-1.29,4.27,1.15,8.14,2.66,11.12,3.97,24.71,10.98,44.36,26.28,61.36,43.52,15.96,16.08,29.66,33.77,43.1,51.22l4.45,5.74c22.27,28.75,48.7,61.02,80.33,93.05Z"/>
          <path class="cls-11" d="M1807.66,1085.6c-.97-.03-1.94-.05-2.9-.08-.07-.03-.11-.08-.18-.11-82.01-53.53-166.03-108.4-235.64-171.54-23.42-21.23-45.18-43.41-64.66-66.76.36-.46.72-.89,1.08-1.34,19.54,23.46,41.35,45.72,64.8,67.01,69.57,63.17,153.59,118.04,235.64,171.6.61.4,1.22.81,1.86,1.23Z"/>
          <path class="cls-11" d="M1880.77,697.23c24.92,11.7,54.72,17.77,84.31,17.61v1.37c-29.94.13-60.07-5.99-85.28-17.83-35.93-16.86-62.36-45.5-70.64-76.64-.54-2.04-1.04-4.13-1.54-6.23.54-.32,1.11-.67,1.65-.97.54,2.36,1.08,4.67,1.69,6.93,8.21,30.76,34.32,59.09,69.82,75.76Z"/>
          <path class="cls-11" d="M1882.71,1062.06c11.58,7.06,23.34,14.2,35.32,21.23-.9.05-1.76.11-2.65.16-11.48-6.71-22.7-13.56-33.82-20.32-22.34-13.56-45.44-27.6-69.21-40.3-8.89-4.72-18.15-9.4-27.04-13.93-25.35-12.83-51.53-26.09-73.51-42.55-36.76-27.54-60.53-62.98-82.77-97.96-1.72-2.71-3.41-5.42-5.13-8.13-15.06-23.84-30.48-48.27-49.85-70.52.5-.27.97-.54,1.47-.78,19.47,22.34,34.96,46.82,50.03,70.71,1.65,2.6,3.26,5.18,4.91,7.79,22.2,34.98,45.94,70.44,82.62,97.91,21.84,16.38,47.98,29.61,73.23,42.42,8.93,4.51,18.18,9.18,27.11,13.96,23.85,12.7,46.94,26.74,69.28,40.32Z"/>
          <path class="cls-11" d="M1921.94,931.13c14.34,5.02,28.76,10.09,43.14,15.25v1.53c-14.63-5.26-29.33-10.42-43.93-15.54-17.32-6.07-35.25-12.35-52.64-18.66-47.19-17.07-99.05-37.8-146.35-64.05-10.01-5.53-19.83-11.33-29.33-17.4-27.83-17.74-53.15-37.77-73.76-60.51.61-.19,1.18-.38,1.76-.54,20.58,22.66,45.87,42.58,73.66,60.24,9.61,6.12,19.54,11.97,29.66,17.56,46.94,25.99,98.36,46.52,145.16,63.46,17.43,6.31,35.32,12.59,52.64,18.66Z"/>
          <path class="cls-11" d="M1957.66,754.89c2.44.54,4.91,1.07,7.42,1.58v1.45c-3.84-.78-7.67-1.61-11.44-2.44h-.04c-90.91-20.16-159.65-52-204.87-94.95.36-.38.72-.75,1.15-1.13,45.54,43.38,115.29,75.44,207.78,95.49Z"/>
          <path class="cls-11" d="M1862.7,861.63c33.24,12.48,67.81,22.5,102.38,30.82v1.48c-34.86-8.38-69.68-18.47-103.21-31.06-21.87-8.19-46.44-18.77-71.07-32.08h-.04c-13.3-7.14-26.61-15.11-39.55-23.92-21.05-14.31-41.06-30.85-58.34-49.85.68-.11,1.33-.19,2.01-.27,17.21,18.85,37.19,35.28,58.13,49.45,13.09,8.89,26.57,16.89,40.02,24.11,24.17,12.94,48.23,23.28,69.68,31.33Z"/>
          <path class="cls-11" d="M1951.38,643.89c-.57,2.12-1.43,4.48-3.51,6.28-1.76,1.53-4.27,2.6-7.89,3.41-3.69.83-7.42,1.18-11.05,1.18-10.18,0-19.79-2.74-26.82-5.45-17.79-6.87-33.85-18.77-46.37-34.44-4.7-5.85-8.79-12.05-12.37-18.25.54-.27,1.08-.51,1.61-.75,3.59,6.26,7.64,12.43,12.34,18.28,12.34,15.46,28.15,27.19,45.65,33.93,9.22,3.57,23.02,7.17,36.47,4.19,3.3-.72,5.52-1.69,7.03-2.98,1.79-1.56,2.55-3.65,3.12-5.66,4.48-16.13-1.72-34.52-16.96-50.5-7.39-7.73-16.35-14.44-25.57-20.24.65-.19,1.29-.38,1.97-.54,0,0,.04-.03.04,0,9.04,5.74,17.75,12.35,25.07,19.97,15.53,16.27,21.84,35.09,17.25,51.57Z"/>
        </g>
      </g>
      <path class="cls-5" d="M275.87,998.66c1.47,1.75,4.33,1.67,6.73,1.38,31.47-3.86,61.1-15.85,88.98-29.77,81.42-40.67,151-98.12,223.28-151.34,19.34-14.23,38.93-28.21,58.73-41.9-15.6,8.13-31.99,14.52-49.84,17.67-24.75,4.35-50.25,1.96-75.42,3.2-24.53,1.21-48.32,5.82-71.53,12.65-18.71,8.79-36.47,18.96-52.65,31.46-10.25,7.92-20.48,18.64-18.67,30.8.74,5.08,3.61,9.78,4.04,14.9.82,9.79-7.55,18.52-17.15,22.96-9.6,4.46-20.5,5.82-30.76,8.74-35.58,10.12-62.96,40.91-66.53,74.8-.15,1.55-.22,3.25.8,4.47Z"/>
      <g>
        <path class="cls-4" d="M942.06,760.21c-37.68-20.47-75.7-41.1-116.28-54.52-5.13-1.72-10.29-3.3-15.5-4.74-22.44-6.26-45.96-9.95-69.26-9.95-24.97,0-49.7,4.25-72.62,14.11-40.53,17.46-73.42,51.32-111.24,72.91-9.09,5.2-18.46,9.69-28.31,13.08-5.52,1.9-11.18,3.47-17.04,4.59-22.52,4.35-45.72,1.96-68.61,3.2-22.32,1.21-43.96,5.82-65.08,12.65-41.91,13.54-81.74,35.78-120.51,57.42-6.55,3.64-13.5,7.36-20.81,8.09-.34.04-.68.05-1.02.07-9.01,4.59-16.85,12.76-24.36,19.65-11.47,10.52-22.44,21.84-33.33,33.13-19.32,20.03-38.1,40.73-56.85,61.45-7.6,8.4-14.97,17.07-22.24,25.86,2.95.09,5.9.18,8.85.27,145.47,4.22,291.04,6.22,436.57,8.23,41.05.56,82.1,1.12,123.17,1.48,79.24.73,158.48.7,237.69-1.51,16.02-.46,32.25-1.28,48.56-2.53,32.64-2.48,65.58-6.65,97.8-12.87l151.85-36.9c-36.53-19.84-224.89-193.34-261.43-213.19Z"/>
        <path class="cls-5" d="M870.53,801.98c-.82,45.98-41.65,84.9-41.41,130.88.22,40.83,32.45,74.41,64.81,100.76,20.91,17.03,42.84,32.97,65.7,47.54,41.76-3.04,83.9-8.15,125.12-15.78l194.25-45.23c-46.73-24.32-287.7-236.99-334.43-261.32-48.21-25.1-96.85-50.38-148.75-66.82,16.67,12.24,32.84,25.14,46.19,40.62,16.84,19.55,28.98,43.94,28.53,69.35Z"/>
        <path class="cls-6" d="M528.86,791.11c39.02-3.6,75.69-20.86,111.24-37.8,33.38-15.92,69.66-32.1,96.99-57.78,1.62-1.53,2.93-3.04,3.94-4.52-24.98,0-49.7,4.25-72.62,14.11-40.53,17.46-73.42,51.32-111.24,72.92-9.09,5.2-18.46,9.69-28.31,13.08Z"/>
      </g>
      <path class="cls-6" d="M297.78,877.42c-4.36,2.33-8.47,5.3-12.43,8.46,4.72-2.47,9.04-5.27,12.43-8.46Z"/>
      <path class="cls-35" d="M1723.78,549.66c9.62,8.02-4.02,40.3-18.5,37.66-4.29-.78-10.16-7.01-12.52-10.59-4.05-6.16-8.91-19.95-3.45-26.18,6.94-7.91,16.49,5.18,17.89,4.94,3.76-4.13,10.98-10.5,16.58-5.82Z"/>
      <circle class="cls-15" cx="116.5" cy="691.5" r="17.5"/>
      <path class="cls-3" d="M1291.94,724.34l-5.6-2.67-.65,6.17c-.49,4.64-6.93,5.41-8.49,1.01l-2.07-5.85-4.82,3.91c-3.63,2.94-8.72-1.08-6.71-5.29l2.67-5.6-6.17-.65c-4.64-.49-5.41-6.93-1.01-8.49l5.85-2.07-3.91-4.82c-2.94-3.63,1.08-8.72,5.29-6.71l5.6,2.67.65-6.17c.49-4.64,6.93-5.41,8.49-1.01l2.07,5.85,4.82-3.91c3.63-2.94,8.72,1.08,6.71,5.29l-2.67,5.6,6.17.65c4.64.49,5.41,6.93,1.01,8.49l-5.85,2.07,3.91,4.82c2.94,3.63-1.08,8.72-5.29,6.71Z"/>
      <path class="cls-4" d="M244.2,566.62c.92,2.89-8.81,4.89-10.67,5.49-.51,2.6-.22,5.4-1.12,7.94-3.11,8.81-7.84-3.77-8.07-7.53-2.09-.41-12.09-1.45-11.81-4.5.3-3.25,8.3-4.03,10.67-5.05.41-14.75,6.59-14.12,9.2-.4,2.61.53,10.87,1.14,11.79,4.05Z"/>
      <path class="cls-12" d="M670.14,1029.37c12.98,2,27.96,11.77,11.44,22.06-5.75,3.58-10.09,1.75-16.4.82-6.8-1-16.89.61-21.91-4.62-2.9-3.02-.86-12.11,1.25-15.13,4.98-7.17,17.98-4.31,25.63-3.13Z"/>
      <rect class="cls-1" x="1508.63" y="649.7" width="484.67" height="425.94"/>
      <path class="cls-12" d="M836.8,1036.1c4.77-15.17,33.31-14.89,38.09.22,8.54,27.01-45.16,22.26-38.09-.22Z"/>
      <g>
        <path class="cls-35" d="M-61,907.45v166.43c33.67,1.05,67.34,2.01,101.01,2.89,68.57,1.8,137.17,3.27,205.78,4.5,185.44,3.32,371.01,4.9,556.54,6.49,52.33.44,104.66.88,157.01,1.17,101.01.58,202.03.55,303-1.19,20.43-.36,41.11-1,61.91-2,41.61-1.96,351.25-4.22,351.25-4.22-46.57-15.64-319.69-187.35-366.26-202.99-48.04-16.13-96.51-32.39-148.23-42.96-6.54-1.35-13.11-2.6-19.76-3.74-28.6-4.93-58.59-7.84-88.29-7.84-31.84,0-63.35,3.35-92.58,11.12-51.66,13.76-93.59,40.44-141.8,57.46-11.58,4.1-23.53,7.64-36.09,10.3-7.03,1.5-14.26,2.73-21.72,3.62-28.71,3.43-58.28,1.54-87.47,2.52-28.45.95-56.04,4.58-82.96,9.97-53.43,10.67-104.21,28.19-153.62,45.25-8.35,2.87-17.21,5.8-26.53,6.38-.6.04-1.21.07-1.81.08-.35.01-.67.03-1.01.01-1.01.03-2.03.01-3.04-.05-9.64-.54-18.12-3.98-26.12-7.36-69.89-29.53-136.22-62.32-198.25-97.99-9.43-5.43-19.18-11.07-29.64-15.85-12.94-5.95-26.94-10.6-42.77-11.99-3.67-.32-7.29-.47-10.89-.43-3.04.01-6.06.16-9.06.42-1.55.12-3.08.28-4.62.47-28.56,3.4-54.59,16.29-76.86,28.94-23.02,13.1-45.41,26.64-67.11,40.59Z"/>
        <path class="cls-9" d="M1234.26,906.27c-.82,29.56-41.5,54.58-41.26,84.13.22,26.25,32.33,47.84,64.58,64.77,20.84,10.95,42.69,21.2,65.47,30.56,41.61-1.96,351.25-4.22,351.25-4.22-46.57-15.64-319.69-187.35-366.26-202.99-48.04-16.13-96.51-32.39-148.23-42.96,16.61,7.87,32.72,16.16,46.03,26.12,16.78,12.57,28.88,28.25,28.43,44.58Z"/>
        <path class="cls-9" d="M783.7,902.88c49.74-2.84,96.48-16.44,141.8-29.79,42.56-12.54,88.81-25.3,123.64-45.53,2.07-1.21,3.73-2.4,5.03-3.56-31.84,0-63.35,3.35-92.58,11.12-51.66,13.76-93.59,40.44-141.8,57.46-11.58,4.1-23.53,7.64-36.09,10.3Z"/>
        <g>
          <g>
            <path class="cls-10" d="M1160.7,877.76c0,.68.89,1.22,1.98,1.22s1.98-.55,1.98-1.22-.89-1.22-1.98-1.22-1.98.55-1.98,1.22Z"/>
            <ellipse class="cls-10" cx="1156.42" cy="860.41" rx="1.46" ry=".9"/>
            <path class="cls-10" d="M1179.08,856.24c0,.65.85,1.18,1.91,1.18s1.91-.53,1.91-1.18-.85-1.18-1.91-1.18-1.91.53-1.91,1.18Z"/>
            <ellipse class="cls-10" cx="1182.89" cy="867.56" rx="3.82" ry="2.36"/>
          </g>
          <g>
            <path class="cls-10" d="M896.71,994.97c0,.55.73,1,1.62,1s1.62-.45,1.62-1-.73-1-1.62-1-1.62.45-1.62,1Z"/>
            <path class="cls-10" d="M892.01,980.75c0,.41.53.74,1.19.74s1.19-.33,1.19-.74-.53-.74-1.19-.74-1.19.33-1.19.74Z"/>
            <path class="cls-10" d="M911.77,977.33c0,.53.7.97,1.56.97s1.56-.43,1.56-.97-.7-.97-1.56-.97-1.56.43-1.56.97Z"/>
            <ellipse class="cls-10" cx="914.9" cy="986.61" rx="3.13" ry="1.93"/>
          </g>
          <g>
            <path class="cls-10" d="M1161.97,1054.29c.76.29,1.76.15,2.24-.32.48-.47.25-1.09-.51-1.38-.76-.29-1.76-.15-2.24.32-.48.47-.25,1.09.51,1.38Z"/>
            <path class="cls-10" d="M1139.96,1049.21c.56.22,1.3.11,1.65-.23.35-.35.18-.8-.38-1.02-.56-.22-1.3-.11-1.65.23-.35.35-.18.8.38,1.02Z"/>
            <path class="cls-10" d="M1145.75,1037.04c.73.28,1.7.15,2.16-.31.46-.45.24-1.05-.5-1.33-.73-.28-1.7-.15-2.16.31-.46.45-.24,1.05.5,1.33Z"/>
            <path class="cls-10" d="M1158.49,1041.97c1.46.57,3.39.29,4.31-.61.92-.9.47-2.1-.99-2.66-1.46-.57-3.39-.29-4.31.61-.92.9-.47,2.1.99,2.66Z"/>
          </g>
        </g>
      </g>
      <path class="cls-12" d="M-78.14,619.43c21.13,0,42.26-.03,63.38-.07,21.21-.04,42.42-.1,63.63-.16,21.13-.06,42.26-.12,63.38-.16s42.22.05,63.33-.1c20.89-.15,41.74-1.61,62.61-2.58,20.76-.96,41.6-1.44,62.32.36,12.85,1.12,25.73,3.09,38.31,6s24.63,6.52,35.23,13.35c4.46,2.87,8.69,6.55,11.35,11,.31.52.61,1.06.88,1.61.13.25.25.51.37.77.07.15.14.3.2.44-.16-.38.05.13.08.19.47,1.2.9,2.42,1.24,3.67.31,1.15.56,2.31.73,3.49.06.39-.05-.41,0-.03.01.11.03.21.04.32.03.28.05.56.07.83.04.58.06,1.16.06,1.74,0,.5-.02,1-.05,1.49-.02.26-.04.52-.07.78-.06.65.03-.07-.03.3-.16,1-.37,2-.66,2.97-.14.48-.3.96-.48,1.43-.08.21-.16.41-.24.61-.13.33.18-.4.03-.08-.07.14-.13.29-.19.43-.43.91-.91,1.8-1.45,2.65-.26.4-.52.8-.8,1.19-.15.21-.3.41-.46.62-.17.23.08-.11.1-.12-.12.15-.24.3-.36.45-.65.79-1.33,1.55-2.05,2.27-.77.77-1.57,1.5-2.4,2.2-.4.34-.81.66-1.22.98.41-.32-.21.16-.34.25-.26.19-.52.38-.78.56-1.9,1.34-3.89,2.55-5.94,3.65-1.08.58-2.18,1.14-3.3,1.67-.57.27-1.14.53-1.71.79-.25.11-.51.22-.76.33-.1.04-1,.43-.61.26-4.78,2-9.72,3.61-14.72,4.97s-10,2.45-15.06,3.36c-2.39.43-4.79.82-7.19,1.17-.54.08-1.08.15-1.61.23-.63.09.24-.03-.39.05-.31.04-.63.08-.94.12-1.08.14-2.15.27-3.23.39-5.88.66-11.76.95-17.67,1.14-7.44.23-14.87.59-22.3,1.17-9.89.77-19.77,1.91-29.54,3.66-9.6,1.72-19.21,4-28.26,7.7-7.67,3.13-15.46,7.3-20.66,13.94s-6.54,14.54-4.54,22.54c1.88,7.54,6.53,13.41,12.77,17.92,6.71,4.85,14.57,8.36,22.21,11.44,15.67,6.3,32.34,9.74,49.12,11.31s34.33,1.23,51.42-.17,34.45-3.89,51.55-6.7c15.97-2.63,31.87-5.86,47.9-8.12,13.87-1.96,28.31-2.35,41.99.93,14.07,3.37,26.49,10.88,35.74,22.06,5.2,6.29,9.35,13.39,11.23,21.38s1.58,16.25-2.35,23.28-10.93,11.52-18.04,14.98c-7.92,3.86-16.17,6.99-24.38,10.17-16.77,6.48-33.63,13.17-47.88,24.41-6.61,5.21-12.91,12.51-11.58,21.53.53,3.63,2.35,6.91,4.86,9.55,6.03,6.34,15.27,9.22,23.54,11.15,10.84,2.52,22.03,3.55,33.13,4.12,10.59.55,21.2.58,31.81.45,8.04-.1,16.04-.2,24.08.02,15.97.44,31.95.85,47.87,2.23s32.04,3.81,47.52,8.33,30.28,11.24,43.4,20.68c13.17,9.48,24.06,21.75,34.64,33.94,9.54,11,18.98,22.3,30.54,31.27,5.82,4.52,12.09,8.4,18.88,11.3,3.6,1.54,7.28,2.85,11.07,3.87s7.89,1.71,11.81,2.7c6.65,1.68,13.07,3.99,19.1,7.25,5.58,3.02,10.58,6.67,15.25,10.86,10.78,9.67,19.71,21.29,28.88,32.43.86,1.04,2.65.89,3.54,0,1.03-1.03.86-2.49,0-3.54-9.48-11.53-18.72-23.6-30.02-33.45-4.89-4.25-10.19-8.05-15.93-11.06-6.32-3.32-13.09-5.75-20.01-7.46-3.87-.96-7.8-1.61-11.65-2.66-3.62-1-7.2-2.23-10.63-3.76-6.46-2.88-12.53-6.64-18.05-11.06-11.45-9.17-20.83-20.59-30.41-31.6-10.81-12.43-22.04-24.63-35.58-34.15s-28.52-16.09-44.2-20.6-31.77-6.87-47.93-8.28c-15.98-1.4-32.03-1.8-48.06-2.25-8.04-.22-16.04-.12-24.08-.02-10.6.13-21.21.1-31.81-.45-5.65-.29-11.3-.72-16.92-1.39-1.56-.19-2.35-.29-3.73-.49s-2.69-.4-4.04-.63c-2.54-.43-5.07-.94-7.58-1.53-2.38-.56-4.73-1.21-7.05-1.98-1.09-.36-2.16-.75-3.23-1.17-.26-.1-.51-.21-.77-.31-.42-.17.32.14-.25-.11-.52-.23-1.04-.46-1.55-.71-1.78-.85-3.5-1.82-5.11-2.95-.19-.14-.38-.28-.57-.41-.51-.37.23.19-.11-.09-.37-.3-.74-.61-1.1-.93-.65-.58-1.26-1.21-1.82-1.87-.12-.14-.24-.29-.35-.43-.21-.26.26.38-.09-.12-.25-.37-.5-.72-.73-1.1-.2-.33-.39-.67-.56-1.01-.09-.18-.17-.37-.26-.55-.17-.34.17.48-.04-.11-.28-.78-.53-1.56-.69-2.38-.04-.21-.07-.42-.11-.62-.03-.16-.02-.47.02.19-.02-.27-.06-.53-.07-.8-.06-.95-.02-1.9.16-2.83.8-3.98,3.36-7.31,6.22-10.07,3.12-3.02,6.73-5.59,10.35-7.97,14.88-9.79,31.84-15.5,48.27-22.05,15.24-6.07,33.81-12.85,39.03-30.19,2.45-8.13,1.69-17.11-.98-25.08s-7.44-15.1-13.01-21.36c-9.83-11.03-23-18.39-37.37-21.62-14.18-3.19-28.88-2.71-43.19-.72-7.81,1.09-15.58,2.56-23.35,3.91-8.22,1.43-16.45,2.87-24.69,4.23-17,2.8-34.06,5.25-51.24,6.62-17.09,1.37-34.32,1.69-51.4.03-16.51-1.61-32.91-5.22-48.27-11.57-3.81-1.57-7.54-3.35-11.19-5.28s-7.07-3.83-10.16-6.37-5.79-5.63-7.44-9.34c-.93-2.1-1.53-4.41-1.91-6.67-.02-.09-.13-.88-.08-.51.05.34-.03-.29-.05-.41-.05-.52-.09-1.03-.12-1.55-.04-.94-.03-1.88.04-2.81.02-.28.19-1.49.07-.77.07-.44.14-.88.23-1.32.18-.86.41-1.71.7-2.54.14-.41.3-.82.46-1.22-.18.45-.08.18.04-.08.1-.22.21-.44.32-.66.39-.78.83-1.55,1.3-2.28.23-.35.46-.69.7-1.03.05-.07.49-.66.26-.35-.22.28.25-.31.33-.41.58-.71,1.2-1.39,1.84-2.03s1.36-1.31,2.08-1.92c.35-.29.7-.58,1.05-.86.44-.36-.21.15.15-.11.22-.17.44-.33.67-.5,1.66-1.21,3.41-2.3,5.21-3.29,4.2-2.33,7.44-3.65,11.9-5.19,9.43-3.26,19.27-5.3,29.12-6.81,1.22-.19,2.43-.36,3.65-.53.31-.04.63-.09.94-.13-.5.07.4-.05.51-.07.62-.08,1.24-.16,1.87-.24,2.44-.3,4.89-.58,7.34-.83,4.52-.46,9.06-.82,13.59-1.11,6.64-.43,13.3-.68,19.95-.88,6.88-.21,13.72-.86,20.54-1.8,10.04-1.38,20.03-3.4,29.69-6.5s19.01-7.08,26.5-13.74c6.64-5.91,10.66-14.19,9.53-23.19-.67-5.3-2.57-10.52-5.8-14.81-3.56-4.73-8.23-8.44-13.29-11.46-11.03-6.58-23.74-10.31-36.2-13.1-13.14-2.94-26.6-4.91-40.01-5.98-20.74-1.66-41.57-1.1-62.33-.11-20.86,1-41.71,2.43-62.6,2.5-21.2.07-42.41.05-63.61.09-21.13.05-42.26.11-63.38.16-21.13.06-42.26.11-63.38.16-20.46.04-40.92.07-61.39.07-3.22,0-3.22,5,0,5h0Z"/>
      <text><tspan class="cls-34"><tspan x="379.05" y="-206.19">With a Ma</tspan><tspan class="cls-32" x="536.43" y="-206.19">s</tspan><tspan class="cls-18" x="551.84" y="-206.19">t</tspan><tspan x="564.9" y="-206.19">e</tspan><tspan class="cls-24" x="584.08" y="-206.19">r</tspan><tspan class="cls-16" x="598.07" y="-206.19">’</tspan><tspan x="615" y="-206.19">s in Compu</tspan><tspan class="cls-19" x="793.89" y="-206.19">t</tspan><tspan x="806.96" y="-206.19">er Scien</tspan><tspan class="cls-30" x="936.38" y="-206.19">c</tspan><tspan x="952.62" y="-206.19">e and a Bachelo</tspan><tspan class="cls-24" x="1206.38" y="-206.19">r</tspan><tspan class="cls-16" x="1220.37" y="-206.19">’</tspan><tspan x="1237.3" y="-206.19">s in Design.</tspan></tspan><tspan class="cls-34"><tspan x="382.45" y="-166.59" xml:space="preserve"> My </tspan><tspan class="cls-26" x="444.52" y="-166.59">w</tspan><tspan x="472.54" y="-166.59">ork </tspan><tspan class="cls-21" x="535.04" y="-166.59">f</tspan><tspan x="546.76" y="-166.59">ocuses on human-</tspan><tspan class="cls-31" x="841.28" y="-166.59">c</tspan><tspan x="857.51" y="-166.59">ompu</tspan><tspan class="cls-20" x="952.25" y="-166.59">t</tspan><tspan x="965.32" y="-166.59">er in</tspan><tspan class="cls-18" x="1037.59" y="-166.59">t</tspan><tspan x="1050.66" y="-166.59">e</tspan><tspan class="cls-28" x="1069.83" y="-166.59">r</tspan><tspan x="1083.06" y="-166.59">a</tspan><tspan class="cls-22" x="1102.57" y="-166.59">c</tspan><tspan x="1119.4" y="-166.59">tion, UI </tspan><tspan class="cls-21" x="1246.41" y="-166.59">U</tspan><tspan x="1270.53" y="-166.59">X design, </tspan></tspan><tspan class="cls-34"><tspan x="316.47" y="-126.99">and d</tspan><tspan class="cls-33" x="407.12" y="-126.99">e</tspan><tspan class="cls-26" x="425.99" y="-126.99">v</tspan><tspan x="444.54" y="-126.99">eloping in</tspan><tspan class="cls-19" x="605.58" y="-126.99">t</tspan><tspan x="618.65" y="-126.99">e</tspan><tspan class="cls-27" x="637.82" y="-126.99">r</tspan><tspan x="651.05" y="-126.99">a</tspan><tspan class="cls-23" x="670.55" y="-126.99">c</tspan><tspan x="687.38" y="-126.99">ti</tspan><tspan class="cls-25" x="711.31" y="-126.99">v</tspan><tspan x="729.85" y="-126.99">e p</tspan><tspan class="cls-23" x="777.77" y="-126.99">r</tspan><tspan x="791.63" y="-126.99">oje</tspan><tspan class="cls-22" x="841.56" y="-126.99">ct</tspan><tspan x="871.72" y="-126.99">s with modern f</tspan><tspan class="cls-21" x="1124.79" y="-126.99">r</tspan><tspan x="1138.65" y="-126.99">on</tspan><tspan class="cls-29" x="1180.46" y="-126.99">t</tspan><tspan x="1192.93" y="-126.99">-end </tspan><tspan class="cls-18" x="1274.21" y="-126.99">t</tspan><tspan x="1287.28" y="-126.99">echnologies</tspan></tspan></text>
    </g>
  </g>
</svg>