<?xml version="1.0" encoding="UTF-8"?>
<svg id="Layer_1" xmlns="http://www.w3.org/2000/svg" version="1.1" viewBox="0 0 1920 1080">
  <!-- Generator: Adobe Illustrator 29.3.1, SVG Export Plug-In . SVG Version: 2.1.0 Build 151)  -->
  <defs>
    <style>
      .st0 {
        fill: #1b8dcc;
      }

      .st1 {
        fill: #92c5e8;
      }
    </style>
  </defs>
  <path class="st1" d="M115.2,339s8.9-25.6,40.3-16.7c0,0,11.8-36.4,52.2-21.6,0,0,8.9-49.2,55.1-44.3,0,0,22.6-3.9,41.3,31.5,0,0,28.5-10.8,37.4,22.6,0,0,38.4-1,43.3,28.5H115.2Z"/>
  <path class="st0" d="M214.6,355.8H78.2c.5-8.6,12.1-6,12.1-6,5.1-29.6,31.8-21.9,31.8-21.9.9-21.9,16-26.5,16-26.5,25.6-14.2,39.1,15,39.1,15,15-4.6,16,11.1,16,11.1,24.5,2.3,21.4,28.3,21.4,28.3h0Z"/>
</svg>