<?xml version="1.0" encoding="UTF-8"?>
<svg id="Layer_1" xmlns="http://www.w3.org/2000/svg" version="1.1" viewBox="0 0 1920 1080">
  <!-- Generator: Adobe Illustrator 29.3.1, SVG Export Plug-In . SVG Version: 2.1.0 Build 151)  -->
  <defs>
    <style>
      .st0 {
        fill: #bc82b8;
      }

      .st1 {
        fill: #e5bde0;
      }
    </style>
  </defs>
  <path class="st1" d="M1641.1,375.2s-3-25.9,21.4-28.3c0,0,1.1-15.8,16-11.1,0,0,13.6-29.2,39.1-15,0,0,15.1,4.6,16,26.5,0,0,26.7-7.7,31.8,21.9,0,0,11.6-2.6,12.1,6h-136.5s0,0,0,0Z"/>
  <path class="st0" d="M1710.6,388.6s2.7-17,19-14.3c0,0-6.1-23.1,19.7-24.5,0,0,12.2-28.6,36-21.1,0,0,24.1,3.5,26,29.3,0,0,14.8-4.8,19.6,12.2,0,0,11.6-2.7,12.2,7.5,0,0,20.3-4.8,21.4,10.9h-154Z"/>
</svg>