<?xml version="1.0" encoding="UTF-8"?>
<svg id="Layer_1" data-name="Layer 1" xmlns="http://www.w3.org/2000/svg" viewBox="0 0 1920 1080">
  <defs>
    <style>
      .cls-1 {
        fill: #fdf4e3;
      }

      .cls-2 {
        letter-spacing: -.49em;
      }

      .cls-3 {
        letter-spacing: -.03em;
      }

      .cls-4 {
        letter-spacing: -.02em;
      }

      .cls-5 {
        letter-spacing: -.02em;
      }

      .cls-6 {
        letter-spacing: -.02em;
      }

      .cls-7 {
        letter-spacing: -.02em;
      }

      .cls-8 {
        letter-spacing: -.02em;
      }

      .cls-9 {
        letter-spacing: -.01em;
      }

      .cls-10 {
        letter-spacing: -.01em;
      }

      .cls-11 {
        letter-spacing: -.01em;
      }

      .cls-12 {
        letter-spacing: -.04em;
      }

      .cls-13 {
        letter-spacing: -.04em;
      }

      .cls-14 {
        letter-spacing: -.04em;
      }

      .cls-15 {
        letter-spacing: -.03em;
      }

      .cls-16 {
        letter-spacing: -.04em;
      }

      .cls-17 {
        letter-spacing: -.03em;
      }

      .cls-18 {
        letter-spacing: 0em;
      }

      .cls-19 {
        fill: #fff;
        font-family: NotoSansTC-Bold, 'Noto Sans TC';
        font-size: 33px;
        font-variation-settings: 'wght' 700;
        font-weight: 700;
      }
    </style>
  </defs>
  <path class="cls-1" d="M1544.15,1044.14c-78.81-4.44-157.83-4.39-236.54-11.12-.71-.06-1.42-.12-2.13-.18-55.69-4.61-111.26-10.87-166.55-19.02-226.7-33.39-475.39-50.66-716.51-34.99-68.07,4.42-135.82,11.5-203.46,19.13-30.76,3.47-61.59,6.58-92.35,9.87-34.67,3.7-73.68,10.55-109.45,2.85-38.14-8.21-68.48-37.62-110.17-35.17,4.85,38.77,12.34,79.19,12.34,118.16,0,6.26,15.23,11.34,34.03,11.34H2007.97c18.79,0,34.03-5.07,34.03-11.34,0,0-3.84-1.06-50.26-5.76-139.62-14.13-279.03-31.83-418.99-41.94-9.53-.69-19.06-1.29-28.6-1.83Z"/>
  <text class="cls-19"><tspan x="379.05" y="-206.19">With a Ma</tspan><tspan class="cls-17" x="536.43" y="-206.19">s</tspan><tspan class="cls-3" x="551.84" y="-206.19">t</tspan><tspan x="564.9" y="-206.19">e</tspan><tspan class="cls-9" x="584.08" y="-206.19">r</tspan><tspan class="cls-2" x="598.07" y="-206.19">’</tspan><tspan x="615" y="-206.19">s in Compu</tspan><tspan class="cls-4" x="793.89" y="-206.19">t</tspan><tspan x="806.96" y="-206.19">er Scien</tspan><tspan class="cls-15" x="936.38" y="-206.19">c</tspan><tspan x="952.62" y="-206.19">e and a Bachelo</tspan><tspan class="cls-9" x="1206.38" y="-206.19">r</tspan><tspan class="cls-2" x="1220.37" y="-206.19">’</tspan><tspan x="1237.3" y="-206.19">s in Design.</tspan><tspan x="382.45" y="-166.59" xml:space="preserve"> My </tspan><tspan class="cls-11" x="444.52" y="-166.59">w</tspan><tspan x="472.54" y="-166.59">ork </tspan><tspan class="cls-6" x="535.04" y="-166.59">f</tspan><tspan x="546.76" y="-166.59">ocuses on human-</tspan><tspan class="cls-16" x="841.28" y="-166.59">c</tspan><tspan x="857.51" y="-166.59">ompu</tspan><tspan class="cls-5" x="952.25" y="-166.59">t</tspan><tspan x="965.32" y="-166.59">er in</tspan><tspan class="cls-3" x="1037.59" y="-166.59">t</tspan><tspan x="1050.66" y="-166.59">e</tspan><tspan class="cls-13" x="1069.83" y="-166.59">r</tspan><tspan x="1083.06" y="-166.59">a</tspan><tspan class="cls-7" x="1102.57" y="-166.59">c</tspan><tspan x="1119.4" y="-166.59">tion, UI </tspan><tspan class="cls-6" x="1246.41" y="-166.59">U</tspan><tspan x="1270.53" y="-166.59">X design, </tspan><tspan x="316.47" y="-126.99">and d</tspan><tspan class="cls-18" x="407.12" y="-126.99">e</tspan><tspan class="cls-11" x="425.99" y="-126.99">v</tspan><tspan x="444.54" y="-126.99">eloping in</tspan><tspan class="cls-4" x="605.58" y="-126.99">t</tspan><tspan x="618.65" y="-126.99">e</tspan><tspan class="cls-12" x="637.82" y="-126.99">r</tspan><tspan x="651.05" y="-126.99">a</tspan><tspan class="cls-8" x="670.55" y="-126.99">c</tspan><tspan x="687.38" y="-126.99">ti</tspan><tspan class="cls-10" x="711.31" y="-126.99">v</tspan><tspan x="729.85" y="-126.99">e p</tspan><tspan class="cls-8" x="777.77" y="-126.99">r</tspan><tspan x="791.63" y="-126.99">oje</tspan><tspan class="cls-7" x="841.56" y="-126.99">ct</tspan><tspan x="871.72" y="-126.99">s with modern f</tspan><tspan class="cls-6" x="1124.79" y="-126.99">r</tspan><tspan x="1138.65" y="-126.99">on</tspan><tspan class="cls-14" x="1180.46" y="-126.99">t</tspan><tspan x="1192.93" y="-126.99">-end </tspan><tspan class="cls-3" x="1274.21" y="-126.99">t</tspan><tspan x="1287.28" y="-126.99">echnologies</tspan></text>
</svg>