<?xml version="1.0" encoding="UTF-8"?>
<svg id="Layer_1" xmlns="http://www.w3.org/2000/svg" xmlns:xlink="http://www.w3.org/1999/xlink" version="1.1" viewBox="0 0 1920 1080">
  <!-- Generator: Adobe Illustrator 29.3.1, SVG Export Plug-In . SVG Version: 2.1.0 Build 151)  -->
  <defs>
    <style>
      .st0 {
        fill: none;
      }

      .st1 {
        mix-blend-mode: multiply;
        opacity: .3;
      }

      .st1, .st2 {
        fill: #c699ba;
      }

      .st1, .st3 {
        isolation: isolate;
      }

      .st4 {
        fill: #f7deba;
      }

      .st5 {
        opacity: .4;
      }

      .st6 {
        clip-path: url(#clippath);
      }
    </style>
    <clipPath id="clippath">
      <path class="st0" d="M508.4,1076.2c1.3,4.2,2.4,8.5,3.2,12.8H-137.4c-.4-2.2-.8-4.4-1.1-6.7-.4-2.3-.8-4.7-1.1-7-.3-2.2-.6-4.4-.9-6.6-.5-3.6-.9-7.2-1.3-10.8,0-.6-.1-1.2-.2-1.8-.3-3.3-.6-6.5-.9-9.7s-.5-6.5-.7-9.7c-.2-2.2-.3-4.3-.4-6.5-.6-10.6-.9-21.2-.9-31.8,0-2,0-4,0-6,0-2.4.1-4.8.2-7.3,0-.6,0-1.3.1-1.9,0-2.2.2-4.5.3-6.7.2-2.8.3-5.6.5-8.4.1-1.7.2-3.3.4-5,.1-1.7.3-3.4.5-5,0-.4,0-.8.1-1.1.1-1,.2-2,.3-2.9,0-.3,0-.6.1-1,.2-1.4.3-2.9.5-4.3.9-6.9,2-13.8,3.3-20.7.3-1.7.6-3.3,1-5,1.4-6.6,3-13.2,4.8-19.8.2-.6.3-1.2.5-1.8,1-3.5,2.1-7,3.2-10.4,8-24.3,19.8-47.5,34.6-68.4,8-11.4,17-22.1,26.7-32,25.9-26.5,52.6-45.7,91.6-44.4,101.7,3.4,216.8,56.4,243,163.2l3.4,2.2c43.5,3.9,83.2,16.4,117.5,34.6.5.2.9.5,1.4.8,20.4,10.9,38.8,23.8,55,38.1.4.3.8.7,1.2,1.1,8.1,7.2,15.6,14.7,22.5,22.5.3.3.6.7.9,1.1,1.8,2,3.4,4,5.1,6,9.2,11.2,17.3,22.9,23.7,35,.2.4.5.8.7,1.3,3.8,7.3,7,14.8,9.5,22.4.2.6.4,1.2.5,1.8h0Z"/>
    </clipPath>
  </defs>
  <g class="st3">
    <g id="Layer_11" data-name="Layer_1">
      <g class="st6">
        <g>
          <g>
            <path class="st2" d="M508.8,1076.2c1.3,4.2,2.4,8.5,3.2,12.8H-136.9c-.4-2.2-.8-4.4-1.1-6.7-.4-2.3-.8-4.7-1.1-7-.3-2.2-.6-4.4-.9-6.6-.5-3.6-.9-7.2-1.3-10.8,0-.6-.1-1.2-.2-1.8-.3-3.3-.6-6.5-.9-9.7s-.5-6.5-.7-9.7c-.2-2.2-.3-4.3-.4-6.5-.6-10.6-.9-21.2-.9-31.8,0-2,0-4,0-6,0-2.4.1-4.8.2-7.3,0-.6,0-1.3.1-1.9,0-2.2.2-4.5.3-6.7.2-2.8.3-5.6.5-8.4.1-1.7.2-3.3.4-5,.1-1.7.3-3.4.5-5,0-.4,0-.8.1-1.1.1-1,.2-2,.3-2.9,0-.3,0-.6.1-1,.2-1.4.3-2.9.5-4.3.9-6.9,2-13.8,3.3-20.7.3-1.7.6-3.3,1-5,1.4-6.6,3-13.2,4.8-19.8.2-.6.3-1.2.5-1.8,1-3.5,2.1-7,3.2-10.4,8-24.3,19.8-47.5,34.6-68.4,8-11.4,17-22.1,26.7-32,25.9-26.5,52.6-45.7,91.6-44.4,101.7,3.4,216.8,56.4,243,163.2l3.4,2.2c43.5,3.9,83.2,16.4,117.5,34.6.5.2.9.5,1.4.8,20.4,10.9,38.8,23.8,55,38.1.4.3.8.7,1.2,1.1,8.1,7.2,15.6,14.7,22.5,22.5.3.3.6.7.9,1.1,1.8,2,3.4,4,5.1,6,9.2,11.2,17.3,22.9,23.7,35,.2.4.5.8.7,1.3,3.8,7.3,7,14.8,9.5,22.4.2.6.4,1.2.5,1.8h0Z"/>
            <path class="st1" d="M270.1,1084.1c.4,1.6.9,3.3,1.3,4.9H-136.9c-.4-2.2-.8-4.4-1.1-6.7-.4-2.3-.8-4.7-1.1-7-.3-2.2-.6-4.4-.9-6.6-.5-3.6-.9-7.2-1.3-10.8,0-.6-.1-1.2-.2-1.8-.3-3.3-.6-6.5-.9-9.7s-.5-6.5-.7-9.7c-.2-2.2-.3-4.3-.4-6.5-.6-10.6-.9-21.2-.9-31.8,0-2,0-4,0-6,0-2.4.1-4.8.2-7.3,0-.6,0-1.3.1-1.9,0-2.2.2-4.5.3-6.7.2-2.8.3-5.6.5-8.4.1-1.7.2-3.3.4-5,.1-1.7.3-3.4.5-5,0-.4,0-.8.1-1.1.1-1,.2-2,.3-2.9,0-.3,0-.6.1-1,.2-1.4.3-2.9.5-4.3.9-6.9,2-13.8,3.3-20.7.3-1.7.6-3.3,1-5,1.4-6.6,3-13.2,4.8-19.8.2-.6.3-1.2.5-1.8,1-3.5,2.1-7,3.2-10.4,14.1-42.2,39.4-83,78.4-116.5,30.4,9.1,59.3,20.6,86.3,34.2,6.1,3,12.1,6.2,18.1,9.4.5.2.9.5,1.4.8,5.2,2.8,10.2,5.7,15.2,8.7.5.2.9.5,1.4.8,19.8,11.9,38.4,25,55.6,38.8.4.3.8.6,1.2,1,16,13,30.7,26.8,44.1,41.1.4.3.7.7,1,1.1,2.8,3,5.6,6,8.2,9.1,8,9.2,15.6,18.7,22.6,28.3.3.4.6.8.8,1.2,30.1,41.5,50.8,86.3,63.5,132.3h0c.3.9.5,1.8.7,2.7h0Z"/>
          </g>
          <g class="st5">
            <path class="st4" d="M-50.4,760.2c7.4-.6,15,.8,22.2,2.5,9.2,2.2,18.1,5.1,27,8.3,17.7,6.4,34.9,14,52,21.7,20.8,9.3,41.8,18.1,62.2,28.4,11.5,5.8,22.8,12,33.7,18.8,10.3,6.5,20.7,13.3,29.9,21.3,15.3,13.4,27.4,30.1,39.4,46.3,11.9,16.1,23.8,32.8,38.9,46.2,6.8,6.1,14.3,11.3,22.8,14.9,10.9,4.7,22.6,7,34.1,10,5.8,1.5,11.6,3.2,17.3,5.3s11.3,5.1,16.5,8.4c10.4,6.7,20.1,14.2,29.3,22.5,18.5,16.6,34.5,35.8,48.8,56.1,14.9,21.1,28.2,43.6,38,67.6,2.3,5.7,4.4,11.4,6.2,17.3.5,1.5,2.9.9,2.4-.7-7.6-24.8-20-48.1-33.9-69.8s-28.7-41.3-46.1-59.2c-8.7-8.9-17.9-17.3-27.8-24.9s-20-14.7-31.5-19.2c-21-8.3-44.7-9.1-63.8-21.9-7.8-5.2-14.6-11.7-20.9-18.6-6.9-7.6-13.3-15.7-19.4-23.8-12.5-16.6-24.4-34-38.8-49.1-7.4-7.8-15.7-14.4-24.4-20.6-10.7-7.6-21.9-14.4-33.4-20.8-22.4-12.3-45.8-22.6-69.2-32.8-16-7-31.9-14.3-48.1-20.8-9.2-3.7-18.6-7.1-28.1-10-8.2-2.5-16.7-4.7-25.2-5.6-3.3-.4-6.6-.5-9.9-.2-1.6.1-1.6,2.6,0,2.5h0Z"/>
          </g>
          <g class="st5">
            <path class="st4" d="M-99.4,798.8c11.9-1.3,23.8,4.2,33.9,9.8,12.8,7.2,24.5,16.1,35.8,25.3,9.8,8,19.3,16.4,29.2,24.2,15,11.9,29.7,24.2,44,37,14.5,13,28.5,26.4,42.1,40.3,13.7,14,26.9,28.5,39.5,43.4,12.7,14.9,24.7,30.4,36,46.3,11.5,16.2,22.4,32.9,32.6,49.9,9.8,16.3,19,33.1,28.2,49.8,9.2,16.7,18.1,33.9,24.1,52.1,1.4,4.2,2.6,8.5,3.6,12.8.4,1.6,2.8.9,2.4-.7-4.3-18.5-12.3-36-21.1-52.8-4.4-8.5-9.1-16.8-13.7-25.1s-9.2-16.7-13.9-24.9c-9.9-17.3-20.6-34.3-31.8-50.8-11.2-16.3-23-32.2-35.5-47.6s-25.5-30.1-39.1-44.4-27.4-27.9-41.7-41.2c-14.3-13.2-29-25.9-44.1-38.2-5.7-4.6-11.5-9.1-17.1-13.8-5-4.2-10-8.4-15-12.6-11.3-9.4-22.9-18.7-35.4-26.7-10.7-6.8-22.7-13.4-35.5-14.9-2.6-.3-5.2-.3-7.7,0-1.6.2-1.6,2.7,0,2.5h0Z"/>
          </g>
          <g class="st5">
            <path class="st4" d="M-132.1,829.2c8.2.4,15.7,5.9,21.8,10.9,8.4,6.9,15.8,15,22.9,23.2,6.7,7.8,13.1,15.9,19.6,23.9,7.2,9,15,17.4,22.6,26,10.4,11.8,20.8,23.6,30.9,35.7,10.2,12.2,20.1,24.6,29.4,37.4s18,26,26.2,39.4c8.2,13.3,16,26.8,23.4,40.6,7.5,13.9,14.6,27.9,21.4,42.2,6.8,14.3,13.3,28.8,19.5,43.4,1.5,3.6,3.1,7.2,4.5,10.9.6,1.5,3,.8,2.4-.7-6.1-14.8-12.5-29.5-19.2-44s-13.7-28.8-21.1-42.9c-7.3-14-15-27.8-23.1-41.3-8.1-13.7-16.6-27.1-25.7-40.1-9.1-13.1-18.9-25.7-29-38.1-10-12.3-20.4-24.3-30.8-36.2-5.2-6-10.5-11.9-15.8-17.8-3.5-4-7.1-7.9-10.5-12-6.3-7.6-12.3-15.4-18.6-23-7.1-8.5-14.5-17-22.8-24.5-6.6-6-14.1-12.2-22.8-14.7-1.7-.5-3.5-.8-5.3-.9-1.6,0-1.6,2.4,0,2.5h0Z"/>
          </g>
          <g class="st5">
            <path class="st4" d="M-193.6,890.7c8.2.4,15.7,5.9,21.8,10.9,8.4,6.9,15.8,15,22.9,23.2,6.7,7.8,13.1,15.9,19.6,23.9,7.2,9,15,17.4,22.6,26,10.4,11.8,20.8,23.6,30.9,35.7,10.2,12.2,20.1,24.6,29.4,37.4s18,26,26.2,39.4c8.2,13.3,16,26.8,23.4,40.6,7.5,13.9,14.6,27.9,21.4,42.2,6.8,14.3,13.3,28.8,19.5,43.4,1.5,3.6,3.1,7.2,4.5,10.9.6,1.5,3,.8,2.4-.7-6.1-14.8-12.5-29.5-19.2-44s-13.7-28.8-21.1-42.9-15-27.8-23.1-41.3c-8.1-13.7-16.6-27.1-25.7-40.1s-18.9-25.7-29-38.1c-10-12.3-20.4-24.3-30.8-36.2-5.2-6-10.5-11.9-15.8-17.8-3.5-4-7.1-7.9-10.5-12-6.3-7.6-12.3-15.4-18.6-23-7.1-8.5-14.5-17-22.8-24.5-6.6-6-14.1-12.2-22.8-14.7-1.7-.5-3.5-.8-5.3-.9-1.6,0-1.6,2.4,0,2.5h0Z"/>
          </g>
        </g>
      </g>
    </g>
  </g>
</svg>