<?xml version="1.0" encoding="UTF-8"?>
<svg id="Layer_1" data-name="Layer 1" xmlns="http://www.w3.org/2000/svg" viewBox="0 0 1920 1080">
  <defs>
    <style>
      .cls-1 {
        fill: #ea9d00;
      }

      .cls-2 {
        fill: #efc995;
      }
    </style>
  </defs>
  <path class="cls-1" d="M1933.67,780.04c0,309.15,103.63,405.89,12.33,391.61-59.12-9.25-336.32-6.23-395.59-10.35-33.11-2.3-92.43,19.17-123.28,7.12-54.35-21.23-109.26-20.22-166.03-23.59-75.79-4.5-158.45-13.65-233.64-.36-36.27,6.41-71.16,9.68-107.31-.04,27.31,7.34,38.27-27.91,50.86-46.42,31.69-46.61,87.93-55.04,137.42-57.28,54.99-2.49,109.74.63,164.16-9.98,86-16.77,169.5-44.58,250.33-80.55,1.4-.62,2.77-1.28,4.17-1.9,23.5-10.79,46.99-22.41,70.49-34.38,110.2-56.08,220.8-119.15,336.08-133.86Z"/>
  <path class="cls-2" d="M1967.23,830.48c-36.85-1.97-73.8,2.2-108.82,12.21-8.51,2.43-16.89,5.21-25.11,8.3-7.94,2.98-16.25,6.01-23.45,10.17-10.27,5.93-22.51,17.81-13.04,28.46,3.81,4.29,9.76,6.52,15.26,8.82,4.4,1.84,10.44,3.95,11,8.53-15.09,13.45-41.43,10.01-57.05,23.33-4.9,4.18-8.24,9.46-13.05,13.69-4.15,3.65-9.32,6.26-14.92,7.97-11.04,3.36-22.93,3.83-34.46,5.05-9.1.96-18.01,2.37-26.55,5.31-6.46,2.22-12.79,4.72-18.99,7.43-7.54,3.29-14.94,6.9-21.81,11.13-5.84,3.6-11.8,7.72-15.57,13.05-3.03,4.28-4.01,9.41-.95,13.9,2.09,3.06,5.42,5.09,9.02,6.71,3.74,1.69,11.08,4.24,8.23,8.95-2.32,3.84-8.97,5.63-13.6,6.22-6.96.88-14.33.64-21.33.37-14.97-.57-29.78-2.58-44.6-4.33-28.41-3.36-57.26-5.4-84.48,3.96-26.59,9.14-49.18,25.02-73.51,37.65-25.96,13.47-53.18,25.25-81.3,35.06-27.83,9.71-57.39,15.13-85.31,24.62-6.79,2.31-13.38,5.01-19.81,7.97-2.93,1.35-.36,4.93,2.58,3.76,35.89-14.19,74.99-20.71,111.35-33.86,36.21-13.09,70.36-29.44,102.97-48.15,15.47-8.87,31.2-18.01,48.86-23.43,17.92-5.5,36.78-6.13,55.6-4.76,19.48,1.42,38.71,4.67,58.19,6.1,9.43.69,18.96.99,28.41.36,6.58-.44,13.41-2.04,18.38-5.95,4.58-3.6,5.72-9.2,1.75-13.53-4.04-4.39-11.46-4.96-15.41-9.35-4.91-5.46,1.17-11.63,5.82-15.44,7.86-6.44,17.61-11.25,27.2-15.56,7.45-3.35,15.12-6.51,23.03-8.99,13.93-4.38,28.99-4.39,43.49-6.37,7.17-.98,14.28-2.49,20.8-5.29,6.99-3.01,12.16-7.55,16.81-12.85,5.04-5.75,9.86-10.61,17.58-13.75,6.83-2.78,14.32-4.23,21.55-6.05,6.56-1.65,13.27-3.56,19-6.84,2.54-1.45,5.4-3.2,7.19-5.35,1.56-1.87.9-4.56-.1-6.56-4.56-9.14-19.47-9.15-26.43-16.3-5.41-5.56-.97-12.34,4-16.78,6.07-5.42,13.89-8.7,21.69-11.92,34.89-14.44,72.96-22.37,111.61-24.34,9.42-.48,18.86-.52,28.29-.21,2.37.08,2.34-3.01,0-3.13Z"/>
</svg>