<?xml version="1.0" encoding="UTF-8"?>
<svg id="Layer_1" data-name="Layer 1" xmlns="http://www.w3.org/2000/svg" viewBox="0 0 1920 1080">
  <defs>
    <style>
      .cls-1 {
        fill: #f9eee7;
      }
    </style>
  </defs>
  <path class="cls-1" d="M1477.15,1019.14c-78.81-4.44-157.83-4.39-236.54-11.12-.71-.06-1.42-.12-2.13-.18-55.69-4.61-111.26-10.87-166.55-19.02-226.7-33.39-475.39-50.66-716.51-34.99-68.07,4.42-135.82,11.5-203.46,19.13-30.76,3.47-61.59,6.58-92.35,9.87-34.67,3.7-73.68,10.55-109.45,2.85-38.14-8.21-68.48-37.62-110.17-35.17,4.85,38.77,12.34,79.19,12.34,118.16,0,6.26,15.23,11.34,34.03,11.34H1940.97c18.79,0,34.03-5.07,34.03-11.34,0,0-3.84-1.06-50.26-5.76-139.62-14.13-279.03-31.83-418.99-41.94-9.53-.69-19.06-1.29-28.6-1.83Z"/>
</svg>