<?xml version="1.0" encoding="UTF-8"?>
<svg id="Layer_1" xmlns="http://www.w3.org/2000/svg" version="1.1" viewBox="0 0 1920 1080">
  <!-- Generator: Adobe Illustrator 29.3.1, SVG Export Plug-In . SVG Version: 2.1.0 Build 151)  -->
  <defs>
    <style>
      .st0 {
        isolation: isolate;
      }

      .st1 {
        fill: #fff;
      }

      .st2 {
        fill: #fdf4e3;
      }
    </style>
  </defs>
  <path class="st2" d="M1544.2,1007.4c-78.8-6.4-157.8-6.3-236.5-16.1-.7,0-1.4-.2-2.1-.3-55.7-6.7-111.3-15.7-166.6-27.5-226.7-48.2-475.4-73.1-716.5-50.5-68.1,6.4-135.8,16.6-203.5,27.6-30.8,5-61.6,9.5-92.3,14.2-34.7,5.3-73.7,15.2-109.4,4.1-38.1-11.9-68.5-54.3-110.2-50.8,4.8,56,12.3,114.3,12.3,170.6s15.2,16.4,34,16.4H2008c18.8,0,34-7.3,34-16.4,0,0-3.8-1.5-50.3-8.3-139.6-20.4-279-45.9-419-60.5-9.5-1-19.1-1.9-28.6-2.6Z"/>
  <g class="st0">
    <g class="st0">
      <path class="st1" d="M385.7-206.2l-5.5-24h1.3l3.2,14.5c.3,1.3.6,2.6.9,3.9.3,1.3.6,2.6.9,3.9h.1c.3-1.3.6-2.6.9-3.9.3-1.3.6-2.6,1-3.9l3.9-14.5h1.4l3.9,14.5c.3,1.3.7,2.6,1,3.9.3,1.3.6,2.6,1,3.9h.2c.3-1.3.6-2.6.8-3.9.3-1.3.5-2.6.8-3.9l3.2-14.5h1.2l-5.5,24h-1.3l-4.6-17.1c-.2-1-.4-1.9-.6-2.7-.2-.8-.4-1.7-.7-2.7h-.1c-.2.9-.5,1.8-.7,2.7s-.5,1.7-.7,2.7l-4.5,17.1h-1.3Z"/>
      <path class="st1" d="M410.9-228c-.4,0-.6-.1-.9-.4-.2-.2-.3-.6-.3-1s.1-.7.3-.9c.2-.2.5-.3.9-.3s.6.1.8.3c.2.2.3.5.3.9s-.1.7-.3,1-.5.4-.8.4ZM410.3-206.2v-17.4h1.2v17.4h-1.2Z"/>
      <path class="st1" d="M422.9-205.8c-1.1,0-1.9-.2-2.5-.6-.6-.4-1-1-1.2-1.8-.2-.8-.3-1.6-.3-2.7v-11.7h-2.8v-.9l2.8-.2v-5.1h1.2v5.1h5.1v1.1h-5.1v11.8c0,1.1.2,2,.6,2.7.4.7,1.2,1.1,2.5,1.1s.7,0,1.1-.2c.4-.1.8-.2,1.1-.4l.4,1c-.5.2-1,.3-1.5.5-.5.1-.9.2-1.2.2Z"/>
      <path class="st1" d="M429.4-206.2v-26.2h1.2v11.6c.9-.9,1.9-1.7,2.8-2.3,1-.6,2-.9,3.3-.9,1.8,0,3.1.5,4,1.6s1.3,2.8,1.3,5v11.2h-1.2v-11c0-1.9-.3-3.3-1-4.3-.6-.9-1.7-1.4-3.2-1.4s-2.1.3-3,.9c-.9.6-1.9,1.4-3,2.6v13.3h-1.2Z"/>
      <path class="st1" d="M459.4-205.8c-.9,0-1.7-.2-2.5-.5-.8-.3-1.4-.8-1.8-1.5s-.7-1.6-.7-2.7c0-1.9.9-3.4,2.7-4.4,1.8-1,4.7-1.7,8.6-2.2,0-.9,0-1.9-.2-2.8-.2-.9-.6-1.6-1.2-2.2-.6-.6-1.5-.9-2.7-.9s-2.3.2-3.3.7c-1,.5-1.8.9-2.3,1.4l-.6-1c.4-.3.9-.6,1.5-.9.6-.4,1.4-.7,2.2-.9.8-.3,1.7-.4,2.7-.4,1.4,0,2.4.3,3.2.9.8.6,1.3,1.4,1.6,2.4.3,1,.5,2.1.5,3.3v11.3h-1l-.2-2.3h0c-.9.7-1.9,1.4-2.9,1.9-1.1.5-2.2.8-3.3.8ZM459.5-206.9c1,0,2-.2,3-.7,1-.5,2.1-1.2,3.2-2.2v-6.2c-2.5.3-4.5.6-6,1.1s-2.5,1.1-3.2,1.8c-.6.7-1,1.6-1,2.6s.4,2.3,1.2,2.8c.8.6,1.7.8,2.7.8Z"/>
      <path class="st1" d="M480.8-206.2v-24h1.9l5.1,14.5c.3.9.7,1.8,1,2.7s.7,1.8,1,2.7h.1c.3-.9.6-1.8,1-2.7.3-.9.6-1.8.9-2.7l5.1-14.5h1.9v24h-1.2v-16.6c0-.6,0-1.3,0-2,0-.7,0-1.4,0-2.2,0-.7,0-1.4,0-2.1h-.1l-1.8,5.3-5.4,14.9h-1.3l-5.4-14.9-1.9-5.3h-.1c0,.6,0,1.3,0,2.1,0,.7,0,1.5,0,2.2,0,.7,0,1.4,0,2v16.6h-1.2Z"/>
      <path class="st1" d="M509.7-205.8c-.9,0-1.7-.2-2.5-.5-.8-.3-1.4-.8-1.8-1.5s-.7-1.6-.7-2.7c0-1.9.9-3.4,2.7-4.4,1.8-1,4.7-1.7,8.6-2.2,0-.9,0-1.9-.2-2.8-.2-.9-.6-1.6-1.2-2.2-.6-.6-1.5-.9-2.7-.9s-2.3.2-3.3.7c-1,.5-1.8.9-2.3,1.4l-.6-1c.4-.3.9-.6,1.5-.9.6-.4,1.4-.7,2.2-.9.8-.3,1.7-.4,2.7-.4,1.4,0,2.4.3,3.2.9.8.6,1.3,1.4,1.6,2.4.3,1,.5,2.1.5,3.3v11.3h-1l-.2-2.3h0c-.9.7-1.9,1.4-2.9,1.9-1.1.5-2.2.8-3.3.8ZM509.8-206.9c1,0,2-.2,3-.7,1-.5,2.1-1.2,3.2-2.2v-6.2c-2.5.3-4.5.6-6,1.1s-2.5,1.1-3.2,1.8c-.6.7-1,1.6-1,2.6s.4,2.3,1.2,2.8c.8.6,1.7.8,2.7.8Z"/>
    </g>
    <g class="st0">
      <path class="st1" d="M544-205.8c-1.3,0-2.5-.2-3.6-.7-1.1-.5-2-1-2.8-1.7l.8-1c.7.6,1.5,1.1,2.4,1.6.9.4,2,.7,3.2.7s2.5-.4,3.3-1.1c.7-.7,1.1-1.6,1.1-2.6s-.2-1.4-.7-1.9c-.4-.5-1-.9-1.7-1.3-.7-.3-1.3-.6-2-.9-.9-.3-1.7-.7-2.6-1.1-.8-.4-1.5-.9-2.1-1.5-.6-.6-.8-1.4-.8-2.4s.2-1.6.6-2.2c.4-.7,1-1.2,1.8-1.7.8-.4,1.8-.6,3-.6s1.7.2,2.6.5c.9.3,1.6.8,2.2,1.3l-.7.9c-.6-.4-1.2-.8-1.8-1.1-.7-.3-1.4-.5-2.3-.5-1.4,0-2.5.3-3.2,1-.7.7-1,1.5-1,2.3s.2,1.2.6,1.7c.4.5.9.8,1.5,1.1.6.3,1.3.6,2,.8.7.3,1.4.5,2.1.8.7.3,1.3.6,1.8,1s1,.8,1.3,1.4c.3.6.5,1.3.5,2.1s-.2,1.7-.7,2.4c-.4.7-1.1,1.3-1.9,1.8-.8.4-1.9.7-3.1.7Z"/>
    </g>
    <g class="st0">
      <path class="st1" d="M559.8-205.8c-1.1,0-1.9-.2-2.5-.6-.6-.4-1-1-1.2-1.8-.2-.8-.3-1.6-.3-2.7v-11.7h-2.8v-.9l2.8-.2v-5.1h1.2v5.1h5.1v1.1h-5.1v11.8c0,1.1.2,2,.6,2.7.4.7,1.2,1.1,2.5,1.1s.7,0,1.1-.2c.4-.1.8-.2,1.1-.4l.4,1c-.5.2-1,.3-1.5.5-.5.1-.9.2-1.2.2Z"/>
    </g>
    <g class="st0">
      <path class="st1" d="M574.8-205.8c-1.5,0-2.8-.4-4-1.1-1.2-.7-2.2-1.8-2.9-3.1-.7-1.4-1.1-3-1.1-4.9s.2-2.7.6-3.8c.4-1.1,1-2.1,1.7-2.9.7-.8,1.5-1.4,2.4-1.8.9-.4,1.8-.6,2.8-.6s2.5.3,3.5.9c1,.6,1.7,1.5,2.3,2.7.5,1.2.8,2.7.8,4.4v.5c0,.2,0,.4,0,.6h-12.7c0,1.5.3,2.9.8,4.1s1.3,2.1,2.4,2.8c1,.7,2.2,1,3.6,1s1.9-.1,2.6-.4c.8-.3,1.5-.7,2.1-1.2l.5,1c-.7.4-1.4.8-2.2,1.1s-1.9.5-3.2.5ZM568.1-215.9h11.6c0-2.4-.5-4.1-1.5-5.3-1-1.2-2.3-1.7-3.9-1.7s-2,.3-2.9.8c-.9.6-1.7,1.4-2.2,2.4-.6,1-1,2.3-1.1,3.8Z"/>
    </g>
    <g class="st0">
      <path class="st1" d="M587.5-206.2v-17.4h1l.2,3.3h0c.6-1.1,1.3-1.9,2.1-2.6.8-.7,1.8-1.1,2.8-1.1s.6,0,.9,0c.3,0,.5.1.8.3l-.3,1.1c-.3-.1-.5-.2-.7-.2-.2,0-.5,0-.8,0-.8,0-1.6.3-2.5,1-.9.7-1.7,1.9-2.3,3.6v12h-1.2Z"/>
    </g>
    <g class="st0">
      <path class="st1" d="M599.8-226.1c.5-.3,1-.6,1.4-1.1.4-.4.8-.9,1-1.5.3-.5.4-1.1.4-1.7-.1.1-.3.2-.5.3-.2,0-.4.1-.6.1-.6,0-1-.2-1.3-.5-.3-.4-.5-.8-.5-1.3s.1-.8.4-1.2c.3-.4.8-.6,1.4-.6s1.2.2,1.6.7c.5.5.7,1.1.7,2s-.2,1.7-.5,2.5c-.4.8-.8,1.4-1.4,2s-1.1,1-1.8,1.3l-.4-.8Z"/>
    </g>
    <g class="st0">
      <path class="st1" d="M622.6-205.8c-1.3,0-2.5-.2-3.6-.7-1.1-.5-2-1-2.8-1.7l.8-1c.7.6,1.5,1.1,2.4,1.6.9.4,2,.7,3.2.7s2.5-.4,3.3-1.1c.7-.7,1.1-1.6,1.1-2.6s-.2-1.4-.7-1.9c-.4-.5-1-.9-1.7-1.3-.7-.3-1.3-.6-2-.9-.9-.3-1.7-.7-2.6-1.1-.8-.4-1.5-.9-2.1-1.5-.6-.6-.8-1.4-.8-2.4s.2-1.6.6-2.2c.4-.7,1-1.2,1.8-1.7.8-.4,1.8-.6,3-.6s1.7.2,2.6.5c.9.3,1.6.8,2.2,1.3l-.7.9c-.6-.4-1.2-.8-1.8-1.1-.7-.3-1.4-.5-2.3-.5-1.4,0-2.5.3-3.2,1-.7.7-1,1.5-1,2.3s.2,1.2.6,1.7c.4.5.9.8,1.5,1.1.6.3,1.3.6,2,.8.7.3,1.4.5,2.1.8.7.3,1.3.6,1.8,1s1,.8,1.3,1.4c.3.6.5,1.3.5,2.1s-.2,1.7-.7,2.4c-.4.7-1.1,1.3-1.9,1.8-.8.4-1.9.7-3.1.7Z"/>
      <path class="st1" d="M640.9-228c-.4,0-.6-.1-.9-.4-.2-.2-.3-.6-.3-1s.1-.7.3-.9c.2-.2.5-.3.9-.3s.6.1.8.3c.2.2.3.5.3.9s-.1.7-.3,1-.5.4-.8.4ZM640.3-206.2v-17.4h1.2v17.4h-1.2Z"/>
      <path class="st1" d="M648.4-206.2v-17.4h1l.2,2.8h0c.9-.9,1.8-1.7,2.8-2.3.9-.6,2-.9,3.2-.9,1.8,0,3.1.5,4,1.6s1.3,2.8,1.3,5v11.2h-1.2v-11c0-1.9-.3-3.3-1-4.3-.6-.9-1.7-1.4-3.2-1.4s-2.1.3-3,.9c-.9.6-1.9,1.4-3,2.6v13.3h-1.2Z"/>
      <path class="st1" d="M683.2-205.8c-1.5,0-2.8-.3-4-.9-1.2-.6-2.3-1.4-3.1-2.5-.9-1.1-1.6-2.4-2-3.9s-.7-3.2-.7-5.1.2-3.6.7-5.1c.5-1.5,1.2-2.8,2-3.9s1.9-1.9,3.2-2.5c1.2-.6,2.6-.9,4.1-.9s2.6.3,3.6.9c1,.6,1.9,1.2,2.5,2l-.8.8c-.6-.7-1.4-1.4-2.3-1.8-.9-.5-1.9-.7-3-.7-1.8,0-3.4.5-4.7,1.4-1.3.9-2.3,2.2-3,3.9-.7,1.7-1.1,3.7-1.1,5.9s.4,4.3,1.1,6c.7,1.7,1.7,3,3,3.9,1.3.9,2.8,1.4,4.6,1.4s2.4-.3,3.4-.8c1-.5,1.9-1.3,2.8-2.3l.8.8c-.9,1.1-1.9,1.9-3,2.5-1.1.6-2.4.9-4,.9Z"/>
      <path class="st1" d="M701.4-205.8c-1.4,0-2.7-.4-3.8-1.1-1.2-.7-2.1-1.7-2.8-3.1-.7-1.4-1.1-3-1.1-4.9s.4-3.6,1.1-5,1.6-2.4,2.8-3.1c1.2-.7,2.5-1.1,3.8-1.1s2,.2,3,.6c.9.4,1.8,1,2.5,1.8.7.8,1.3,1.7,1.7,2.9.4,1.1.6,2.4.6,3.9s-.4,3.5-1.1,4.9c-.7,1.4-1.7,2.4-2.8,3.1-1.2.7-2.4,1.1-3.8,1.1ZM701.4-206.9c1.2,0,2.3-.3,3.3-1s1.8-1.6,2.3-2.8c.6-1.2.9-2.6.9-4.2s-.3-3-.9-4.2c-.6-1.2-1.3-2.2-2.3-2.8-1-.7-2.1-1-3.3-1s-2.3.3-3.3,1c-1,.7-1.7,1.6-2.3,2.8s-.8,2.6-.8,4.2.3,3,.8,4.2c.6,1.2,1.3,2.1,2.3,2.8,1,.7,2.1,1,3.3,1Z"/>
      <path class="st1" d="M714.5-206.2v-17.4h1l.2,2.8h0c.8-.9,1.7-1.7,2.6-2.3,1-.6,1.9-.9,2.9-.9,1.4,0,2.5.3,3.3,1,.7.7,1.2,1.5,1.5,2.6,1-1.1,2-2,3-2.7,1-.6,2-1,3-1,1.7,0,3,.5,3.8,1.6.9,1.1,1.3,2.8,1.3,5v11.2h-1.2v-11c0-1.9-.3-3.3-1-4.3-.7-.9-1.7-1.4-3.1-1.4s-1.7.3-2.6.9c-.9.6-1.8,1.4-2.9,2.6v13.3h-1.2v-11c0-1.9-.3-3.3-1-4.3-.7-.9-1.7-1.4-3.1-1.4s-1.7.3-2.6.9c-.9.6-1.9,1.4-2.9,2.6v13.3h-1.2Z"/>
      <path class="st1" d="M743.9-198.2v-25.4h1l.2,2.2h0c.9-.7,1.8-1.3,2.8-1.8s2.1-.8,3.2-.8c1.6,0,2.9.4,3.9,1.1,1,.7,1.8,1.8,2.3,3.1.5,1.3.8,2.9.8,4.7s-.4,3.6-1.1,5c-.7,1.4-1.7,2.5-2.8,3.2-1.2.7-2.4,1.1-3.8,1.1s-1.7-.2-2.6-.6c-.9-.4-1.8-.9-2.7-1.6v9.8h-1.2ZM750.5-206.9c1.2,0,2.3-.4,3.3-1.1s1.7-1.7,2.3-2.9c.5-1.3.8-2.7.8-4.3s-.2-2.8-.6-4c-.4-1.2-1-2.1-1.8-2.8-.8-.7-2-1-3.4-1s-1.8.3-2.8.8c-1,.5-2,1.3-3.1,2.2v10.7c1,.9,2,1.5,3,1.8.9.4,1.8.5,2.4.5Z"/>
      <path class="st1" d="M768.4-205.8c-1.8,0-3.1-.5-4-1.6-.9-1.1-1.3-2.7-1.3-5v-11.2h1.2v11.1c0,1.9.3,3.3,1,4.3.6.9,1.7,1.4,3.2,1.4s2.1-.3,3-.9c.9-.6,1.9-1.5,3-2.8v-13h1.2v17.4h-1v-3h-.2c-.9,1-1.8,1.8-2.7,2.5-.9.6-2,.9-3.2.9Z"/>
    </g>
    <g class="st0">
      <path class="st1" d="M801.8-205.8c-1.1,0-1.9-.2-2.5-.6-.6-.4-1-1-1.2-1.8-.2-.8-.3-1.6-.3-2.7v-11.7h-2.8v-.9l2.8-.2v-5.1h1.2v5.1h5.1v1.1h-5.1v11.8c0,1.1.2,2,.6,2.7.4.7,1.2,1.1,2.5,1.1s.7,0,1.1-.2c.4-.1.8-.2,1.1-.4l.4,1c-.5.2-1,.3-1.5.5-.5.1-.9.2-1.2.2Z"/>
    </g>
    <g class="st0">
      <path class="st1" d="M816.9-205.8c-1.5,0-2.8-.4-4-1.1-1.2-.7-2.2-1.8-2.9-3.1-.7-1.4-1.1-3-1.1-4.9s.2-2.7.6-3.8c.4-1.1,1-2.1,1.7-2.9.7-.8,1.5-1.4,2.4-1.8.9-.4,1.8-.6,2.8-.6s2.5.3,3.5.9c1,.6,1.7,1.5,2.3,2.7.5,1.2.8,2.7.8,4.4v.5c0,.2,0,.4,0,.6h-12.7c0,1.5.3,2.9.8,4.1s1.3,2.1,2.4,2.8c1,.7,2.2,1,3.6,1s1.9-.1,2.6-.4c.8-.3,1.5-.7,2.1-1.2l.5,1c-.7.4-1.4.8-2.2,1.1s-1.9.5-3.2.5ZM810.2-215.9h11.6c0-2.4-.5-4.1-1.5-5.3-1-1.2-2.3-1.7-3.9-1.7s-2,.3-2.9.8c-.9.6-1.7,1.4-2.2,2.4-.6,1-1,2.3-1.1,3.8Z"/>
      <path class="st1" d="M827.8-206.2v-17.4h1l.2,3.3h0c.6-1.1,1.3-1.9,2.1-2.6.8-.7,1.8-1.1,2.8-1.1s.6,0,.9,0c.3,0,.5.1.8.3l-.3,1.1c-.3-.1-.5-.2-.7-.2-.2,0-.5,0-.8,0-.8,0-1.6.3-2.5,1-.9.7-1.7,1.9-2.3,3.6v12h-1.2Z"/>
      <path class="st1" d="M852.5-205.8c-1.8,0-3.3-.3-4.6-1-1.3-.7-2.4-1.6-3.3-2.6l.8-.9c.9,1,1.9,1.8,3.2,2.4,1.2.6,2.6.9,4,.9s3.4-.5,4.6-1.4c1.1-.9,1.7-2.2,1.7-3.7s-.2-1.9-.6-2.6c-.4-.6-.9-1.2-1.6-1.6s-1.4-.8-2.2-1.1l-3.7-1.7c-.7-.3-1.4-.7-2.2-1.2-.8-.5-1.4-1.1-1.9-1.8-.5-.8-.8-1.7-.8-2.9s.3-2.2.9-3c.6-.9,1.4-1.5,2.4-2,1-.5,2.2-.7,3.5-.7s2.7.3,3.8.8c1.1.6,2,1.2,2.7,2l-.8.8c-.7-.7-1.5-1.4-2.5-1.8s-2.1-.7-3.3-.7-3,.4-4,1.2c-1,.8-1.5,1.9-1.5,3.3s.2,1.8.7,2.4,1,1.1,1.7,1.5c.7.4,1.3.7,1.8.9l3.7,1.6c.9.4,1.7.9,2.5,1.4.8.5,1.4,1.2,1.9,1.9.5.8.7,1.8.7,3s-.3,2.3-.9,3.3-1.5,1.7-2.6,2.3c-1.1.5-2.4.8-4,.8Z"/>
      <path class="st1" d="M871.3-205.8c-1.5,0-2.8-.4-4-1.1s-2.1-1.7-2.8-3.1c-.7-1.4-1-3-1-4.9s.4-3.6,1.1-5,1.7-2.4,2.9-3.1,2.5-1.1,3.9-1.1,2.2.2,3,.7c.8.5,1.5,1,2.1,1.5l-.8.9c-.6-.5-1.2-1-1.9-1.4s-1.5-.6-2.4-.6-2.3.3-3.3,1c-1,.7-1.8,1.6-2.4,2.8-.6,1.2-.9,2.6-.9,4.2s.3,3,.8,4.2c.5,1.2,1.3,2.1,2.3,2.8s2.1,1,3.4,1,1.9-.2,2.7-.6,1.5-.9,2.1-1.5l.7.9c-.7.6-1.6,1.2-2.5,1.6-.9.5-1.9.7-3.1.7Z"/>
      <path class="st1" d="M881.9-228c-.4,0-.6-.1-.9-.4-.2-.2-.3-.6-.3-1s.1-.7.3-.9c.2-.2.5-.3.9-.3s.6.1.8.3c.2.2.3.5.3.9s-.1.7-.3,1-.5.4-.8.4ZM881.3-206.2v-17.4h1.2v17.4h-1.2Z"/>
      <path class="st1" d="M895.8-205.8c-1.5,0-2.8-.4-4-1.1-1.2-.7-2.2-1.8-2.9-3.1-.7-1.4-1.1-3-1.1-4.9s.2-2.7.6-3.8c.4-1.1,1-2.1,1.7-2.9.7-.8,1.5-1.4,2.4-1.8.9-.4,1.8-.6,2.8-.6s2.5.3,3.5.9c1,.6,1.7,1.5,2.3,2.7.5,1.2.8,2.7.8,4.4v.5c0,.2,0,.4,0,.6h-12.7c0,1.5.3,2.9.8,4.1s1.3,2.1,2.4,2.8c1,.7,2.2,1,3.6,1s1.9-.1,2.6-.4c.8-.3,1.5-.7,2.1-1.2l.5,1c-.7.4-1.4.8-2.2,1.1s-1.9.5-3.2.5ZM889.1-215.9h11.6c0-2.4-.5-4.1-1.5-5.3-1-1.2-2.3-1.7-3.9-1.7s-2,.3-2.9.8c-.9.6-1.7,1.4-2.2,2.4-.6,1-1,2.3-1.1,3.8Z"/>
      <path class="st1" d="M906.7-206.2v-17.4h1l.2,2.8h0c.9-.9,1.8-1.7,2.8-2.3.9-.6,2-.9,3.2-.9,1.8,0,3.1.5,4,1.6s1.3,2.8,1.3,5v11.2h-1.2v-11c0-1.9-.3-3.3-1-4.3-.6-.9-1.7-1.4-3.2-1.4s-2.1.3-3,.9c-.9.6-1.9,1.4-3,2.6v13.3h-1.2Z"/>
    </g>
    <g class="st0">
      <path class="st1" d="M946.1-205.8c-1.5,0-2.8-.4-4-1.1s-2.1-1.7-2.8-3.1c-.7-1.4-1-3-1-4.9s.4-3.6,1.1-5,1.7-2.4,2.9-3.1,2.5-1.1,3.9-1.1,2.2.2,3,.7c.8.5,1.5,1,2.1,1.5l-.8.9c-.6-.5-1.2-1-1.9-1.4s-1.5-.6-2.4-.6-2.3.3-3.3,1c-1,.7-1.8,1.6-2.4,2.8-.6,1.2-.9,2.6-.9,4.2s.3,3,.8,4.2c.5,1.2,1.3,2.1,2.3,2.8s2.1,1,3.4,1,1.9-.2,2.7-.6,1.5-.9,2.1-1.5l.7.9c-.7.6-1.6,1.2-2.5,1.6-.9.5-1.9.7-3.1.7Z"/>
    </g>
    <g class="st0">
      <path class="st1" d="M962.5-205.8c-1.5,0-2.8-.4-4-1.1-1.2-.7-2.2-1.8-2.9-3.1-.7-1.4-1.1-3-1.1-4.9s.2-2.7.6-3.8c.4-1.1,1-2.1,1.7-2.9.7-.8,1.5-1.4,2.4-1.8.9-.4,1.8-.6,2.8-.6s2.5.3,3.5.9c1,.6,1.7,1.5,2.3,2.7.5,1.2.8,2.7.8,4.4v.5c0,.2,0,.4,0,.6h-12.7c0,1.5.3,2.9.8,4.1s1.3,2.1,2.4,2.8c1,.7,2.2,1,3.6,1s1.9-.1,2.6-.4,1.5-.7,2.1-1.2l.5,1c-.7.4-1.4.8-2.2,1.1-.8.4-1.9.5-3.2.5ZM955.8-215.9h11.6c0-2.4-.5-4.1-1.5-5.3-1-1.2-2.3-1.7-3.9-1.7s-2,.3-2.9.8c-.9.6-1.7,1.4-2.2,2.4-.6,1-1,2.3-1.1,3.8Z"/>
      <path class="st1" d="M984.5-205.8c-.9,0-1.7-.2-2.5-.5s-1.4-.8-1.8-1.5-.7-1.6-.7-2.7c0-1.9.9-3.4,2.7-4.4,1.8-1,4.7-1.7,8.6-2.2,0-.9,0-1.9-.2-2.8-.2-.9-.6-1.6-1.2-2.2-.6-.6-1.5-.9-2.7-.9s-2.3.2-3.3.7c-1,.5-1.8.9-2.3,1.4l-.6-1c.4-.3.9-.6,1.5-.9.6-.4,1.4-.7,2.2-.9.8-.3,1.7-.4,2.7-.4,1.4,0,2.4.3,3.2.9.8.6,1.3,1.4,1.7,2.4.3,1,.5,2.1.5,3.3v11.3h-1l-.2-2.3h0c-.9.7-1.9,1.4-2.9,1.9-1.1.5-2.2.8-3.3.8ZM984.6-206.9c1,0,2-.2,3-.7,1-.5,2.1-1.2,3.2-2.2v-6.2c-2.5.3-4.5.6-6,1.1-1.5.5-2.5,1.1-3.2,1.8-.6.7-1,1.6-1,2.6s.4,2.3,1.2,2.8c.8.6,1.7.8,2.7.8Z"/>
      <path class="st1" d="M998.4-206.2v-17.4h1l.2,2.8h0c.9-.9,1.8-1.7,2.8-2.3.9-.6,2-.9,3.2-.9,1.8,0,3.1.5,4,1.6.9,1.1,1.3,2.8,1.3,5v11.2h-1.2v-11c0-1.9-.3-3.3-1-4.3-.6-.9-1.7-1.4-3.2-1.4s-2.1.3-3,.9-1.9,1.4-3,2.6v13.3h-1.2Z"/>
      <path class="st1" d="M1023.2-205.8c-1.5,0-2.7-.3-3.8-1-1.1-.7-1.9-1.7-2.5-3.1-.6-1.4-.9-3-.9-5s.4-3.5,1.1-4.9c.7-1.4,1.7-2.4,2.8-3.2,1.2-.7,2.5-1.1,3.9-1.1s2,.2,2.8.6c.8.4,1.7.9,2.5,1.6v-3.3c0,0,0-7.3,0-7.3h1.2v26.2h-1l-.2-2.3h0c-.7.7-1.6,1.4-2.5,1.9-1,.5-2.1.8-3.3.8ZM1023.3-206.9c1,0,2-.3,2.9-.8.9-.5,1.9-1.3,2.8-2.2v-10.7c-.9-.9-1.8-1.5-2.7-1.8s-1.7-.5-2.6-.5-2.3.4-3.3,1.1c-1,.7-1.8,1.7-2.3,2.9s-.9,2.6-.9,4.1.2,3,.7,4.2c.5,1.2,1.2,2.1,2.1,2.8s2,1,3.3,1Z"/>
      <path class="st1" d="M1048.2-205.8c-.9,0-1.7-.2-2.5-.5-.8-.3-1.4-.8-1.8-1.5s-.7-1.6-.7-2.7c0-1.9.9-3.4,2.7-4.4s4.7-1.7,8.6-2.2c0-.9,0-1.9-.2-2.8-.2-.9-.6-1.6-1.2-2.2s-1.5-.9-2.7-.9-2.3.2-3.3.7c-1,.5-1.8.9-2.3,1.4l-.6-1c.4-.3.9-.6,1.5-.9.6-.4,1.4-.7,2.2-.9.8-.3,1.7-.4,2.7-.4,1.4,0,2.4.3,3.2.9.8.6,1.3,1.4,1.6,2.4.3,1,.5,2.1.5,3.3v11.3h-1l-.2-2.3h0c-.9.7-1.9,1.4-2.9,1.9-1.1.5-2.2.8-3.3.8ZM1048.3-206.9c1,0,2-.2,3-.7s2.1-1.2,3.2-2.2v-6.2c-2.5.3-4.5.6-6,1.1-1.5.5-2.5,1.1-3.2,1.8-.6.7-1,1.6-1,2.6s.4,2.3,1.2,2.8c.8.6,1.7.8,2.7.8Z"/>
      <path class="st1" d="M1069.6-206.2v-24h6.3c1.6,0,3,.2,4.1.6,1.2.4,2.1,1.1,2.7,1.9s1,1.9,1,3.3-.1,1.6-.4,2.3c-.3.7-.7,1.3-1.3,1.8-.6.5-1.2.9-2.1,1.1v.2c1.6.2,2.9.9,3.8,1.8,1,1,1.5,2.3,1.5,4s-.4,2.8-1.1,3.8c-.7,1-1.7,1.8-3.1,2.3s-2.9.8-4.7.8h-6.7ZM1070.8-219.5h4.3c2.6,0,4.5-.4,5.6-1.3,1.1-.8,1.7-2,1.7-3.5s-.6-3-1.8-3.7c-1.2-.7-2.9-1.1-5.2-1.1h-4.6v9.6ZM1070.8-207.3h5c2.5,0,4.5-.5,5.9-1.4,1.5-.9,2.2-2.4,2.2-4.4s-.7-3.2-2.1-4-3.4-1.3-6-1.3h-5v11.2Z"/>
      <path class="st1" d="M1094-205.8c-.9,0-1.7-.2-2.5-.5s-1.4-.8-1.8-1.5-.7-1.6-.7-2.7c0-1.9.9-3.4,2.7-4.4,1.8-1,4.7-1.7,8.6-2.2,0-.9,0-1.9-.2-2.8-.2-.9-.6-1.6-1.2-2.2-.6-.6-1.5-.9-2.7-.9s-2.3.2-3.3.7c-1,.5-1.8.9-2.3,1.4l-.6-1c.4-.3.9-.6,1.5-.9.6-.4,1.4-.7,2.2-.9.8-.3,1.7-.4,2.7-.4,1.4,0,2.4.3,3.2.9.8.6,1.3,1.4,1.7,2.4.3,1,.5,2.1.5,3.3v11.3h-1l-.2-2.3h0c-.9.7-1.9,1.4-2.9,1.9-1.1.5-2.2.8-3.3.8ZM1094.1-206.9c1,0,2-.2,3-.7,1-.5,2.1-1.2,3.2-2.2v-6.2c-2.5.3-4.5.6-6,1.1-1.5.5-2.5,1.1-3.2,1.8-.6.7-1,1.6-1,2.6s.4,2.3,1.2,2.8c.8.6,1.7.8,2.7.8Z"/>
      <path class="st1" d="M1114.2-205.8c-1.5,0-2.8-.4-4-1.1s-2.1-1.7-2.8-3.1c-.7-1.4-1-3-1-4.9s.4-3.6,1.1-5c.7-1.4,1.7-2.4,2.9-3.1,1.2-.7,2.5-1.1,3.9-1.1s2.2.2,3,.7c.8.5,1.5,1,2.1,1.5l-.8.9c-.6-.5-1.2-1-1.9-1.4s-1.5-.6-2.4-.6-2.3.3-3.3,1c-1,.7-1.8,1.6-2.4,2.8-.6,1.2-.9,2.6-.9,4.2s.3,3,.8,4.2c.5,1.2,1.3,2.1,2.3,2.8,1,.7,2.1,1,3.4,1s1.9-.2,2.7-.6c.8-.4,1.5-.9,2.1-1.5l.7.9c-.7.6-1.6,1.2-2.5,1.6-.9.5-1.9.7-3.1.7Z"/>
      <path class="st1" d="M1124.2-206.2v-26.2h1.2v11.6c.9-.9,1.9-1.7,2.8-2.3,1-.6,2-.9,3.3-.9,1.8,0,3.1.5,4,1.6.9,1.1,1.3,2.8,1.3,5v11.2h-1.2v-11c0-1.9-.3-3.3-1-4.3-.6-.9-1.7-1.4-3.2-1.4s-2.1.3-3,.9-1.9,1.4-3,2.6v13.3h-1.2Z"/>
      <path class="st1" d="M1149.6-205.8c-1.5,0-2.8-.4-4-1.1-1.2-.7-2.2-1.8-2.9-3.1-.7-1.4-1.1-3-1.1-4.9s.2-2.7.6-3.8c.4-1.1,1-2.1,1.7-2.9s1.5-1.4,2.4-1.8c.9-.4,1.8-.6,2.8-.6s2.5.3,3.5.9c1,.6,1.7,1.5,2.3,2.7.5,1.2.8,2.7.8,4.4v.5c0,.2,0,.4,0,.6h-12.7c0,1.5.3,2.9.8,4.1.6,1.2,1.3,2.1,2.4,2.8,1,.7,2.2,1,3.6,1s1.9-.1,2.6-.4,1.5-.7,2.1-1.2l.5,1c-.7.4-1.4.8-2.2,1.1-.8.4-1.9.5-3.2.5ZM1142.9-215.9h11.6c0-2.4-.5-4.1-1.5-5.3-1-1.2-2.3-1.7-3.9-1.7s-2,.3-2.9.8c-.9.6-1.7,1.4-2.2,2.4-.6,1-1,2.3-1.1,3.8Z"/>
      <path class="st1" d="M1162.3-205.8c-.4,0-.7,0-1-.2-.3-.2-.5-.4-.6-.8-.1-.4-.2-.8-.2-1.4v-24.3h1.2v24.5c0,.4,0,.6.2.8.1.2.3.3.5.3s.1,0,.2,0c0,0,.2,0,.4,0l.2,1c-.2,0-.3,0-.4,0-.1,0-.3,0-.6,0Z"/>
      <path class="st1" d="M1175.1-205.8c-1.4,0-2.7-.4-3.8-1.1s-2.1-1.7-2.8-3.1c-.7-1.4-1.1-3-1.1-4.9s.4-3.6,1.1-5,1.6-2.4,2.8-3.1,2.5-1.1,3.8-1.1,2,.2,3,.6c.9.4,1.8,1,2.5,1.8.7.8,1.3,1.7,1.7,2.9.4,1.1.6,2.4.6,3.9s-.4,3.5-1.1,4.9c-.7,1.4-1.7,2.4-2.8,3.1-1.2.7-2.4,1.1-3.8,1.1ZM1175.1-206.9c1.2,0,2.3-.3,3.3-1,1-.7,1.8-1.6,2.3-2.8.6-1.2.9-2.6.9-4.2s-.3-3-.9-4.2-1.3-2.2-2.3-2.8c-1-.7-2.1-1-3.3-1s-2.3.3-3.3,1c-1,.7-1.7,1.6-2.3,2.8-.6,1.2-.8,2.6-.8,4.2s.3,3,.8,4.2c.6,1.2,1.3,2.1,2.3,2.8,1,.7,2.1,1,3.3,1Z"/>
    </g>
    <g class="st0">
      <path class="st1" d="M1209.8-206.2v-17.4h1l.2,3.3h0c.6-1.1,1.3-1.9,2.1-2.6s1.8-1.1,2.8-1.1.6,0,.9,0,.5.1.8.3l-.3,1.1c-.3-.1-.5-.2-.7-.2-.2,0-.5,0-.8,0-.8,0-1.6.3-2.5,1-.9.7-1.7,1.9-2.3,3.6v12h-1.2Z"/>
    </g>
    <g class="st0">
      <path class="st1" d="M1222.1-226.1c.5-.3,1-.6,1.4-1.1.4-.4.8-.9,1-1.5s.4-1.1.4-1.7c-.1.1-.3.2-.5.3-.2,0-.4.1-.6.1-.6,0-1-.2-1.3-.5-.3-.4-.5-.8-.5-1.3s.1-.8.4-1.2c.3-.4.8-.6,1.4-.6s1.2.2,1.6.7.7,1.1.7,2-.2,1.7-.5,2.5-.8,1.4-1.4,2c-.6.5-1.2,1-1.8,1.3l-.4-.8Z"/>
    </g>
    <g class="st0">
      <path class="st1" d="M1244.9-205.8c-1.3,0-2.5-.2-3.6-.7s-2-1-2.8-1.7l.8-1c.7.6,1.5,1.1,2.4,1.6.9.4,2,.7,3.2.7s2.5-.4,3.3-1.1c.7-.7,1.1-1.6,1.1-2.6s-.2-1.4-.7-1.9c-.4-.5-1-.9-1.7-1.3s-1.3-.6-2-.9c-.9-.3-1.7-.7-2.6-1.1-.8-.4-1.5-.9-2.1-1.5s-.8-1.4-.8-2.4.2-1.6.6-2.2c.4-.7,1-1.2,1.8-1.7.8-.4,1.8-.6,3-.6s1.7.2,2.6.5c.9.3,1.6.8,2.2,1.3l-.7.9c-.6-.4-1.2-.8-1.8-1.1-.7-.3-1.4-.5-2.3-.5-1.4,0-2.5.3-3.2,1s-1,1.5-1,2.3.2,1.2.6,1.7.9.8,1.5,1.1c.6.3,1.3.6,2,.8.7.3,1.4.5,2.1.8.7.3,1.3.6,1.8,1s1,.8,1.3,1.4c.3.6.5,1.3.5,2.1s-.2,1.7-.7,2.4c-.4.7-1.1,1.3-1.9,1.8-.8.4-1.9.7-3.1.7Z"/>
      <path class="st1" d="M1263.2-228c-.4,0-.6-.1-.9-.4-.2-.2-.3-.6-.3-1s.1-.7.3-.9c.2-.2.5-.3.9-.3s.6.1.8.3c.2.2.3.5.3.9s-.1.7-.3,1c-.2.2-.5.4-.8.4ZM1262.6-206.2v-17.4h1.2v17.4h-1.2Z"/>
      <path class="st1" d="M1270.7-206.2v-17.4h1l.2,2.8h0c.9-.9,1.8-1.7,2.8-2.3.9-.6,2-.9,3.2-.9,1.8,0,3.1.5,4,1.6.9,1.1,1.3,2.8,1.3,5v11.2h-1.2v-11c0-1.9-.3-3.3-1-4.3-.6-.9-1.7-1.4-3.2-1.4s-2.1.3-3,.9c-.9.6-1.9,1.4-3,2.6v13.3h-1.2Z"/>
      <path class="st1" d="M1297.2-206.2v-24h5.4c2.5,0,4.5.5,6.1,1.5,1.6,1,2.8,2.4,3.5,4.2.8,1.8,1.1,3.9,1.1,6.3s-.4,4.5-1.1,6.3c-.8,1.8-1.9,3.2-3.5,4.2-1.6,1-3.6,1.5-6.1,1.5h-5.4ZM1298.4-207.3h4c2.3,0,4.1-.5,5.5-1.4s2.5-2.2,3.1-3.9c.7-1.7,1-3.5,1-5.6s-.3-4-1-5.6c-.7-1.6-1.7-2.9-3.1-3.8-1.4-.9-3.3-1.4-5.5-1.4h-4v21.8Z"/>
      <path class="st1" d="M1325.3-205.8c-1.5,0-2.8-.4-4-1.1-1.2-.7-2.2-1.8-2.9-3.1-.7-1.4-1.1-3-1.1-4.9s.2-2.7.6-3.8,1-2.1,1.7-2.9c.7-.8,1.5-1.4,2.4-1.8.9-.4,1.8-.6,2.8-.6s2.5.3,3.5.9c1,.6,1.7,1.5,2.3,2.7.5,1.2.8,2.7.8,4.4v.5c0,.2,0,.4,0,.6h-12.7c0,1.5.3,2.9.8,4.1.6,1.2,1.3,2.1,2.4,2.8,1,.7,2.2,1,3.6,1s1.9-.1,2.6-.4c.8-.3,1.5-.7,2.1-1.2l.5,1c-.7.4-1.4.8-2.2,1.1-.8.4-1.9.5-3.2.5ZM1318.6-215.9h11.6c0-2.4-.5-4.1-1.5-5.3-1-1.2-2.3-1.7-3.9-1.7s-2,.3-2.9.8c-.9.6-1.7,1.4-2.2,2.4s-1,2.3-1.1,3.8Z"/>
      <path class="st1" d="M1340.4-205.8c-1.3,0-2.5-.2-3.6-.7s-2-1-2.8-1.7l.8-1c.7.6,1.5,1.1,2.4,1.6.9.4,2,.7,3.2.7s2.5-.4,3.3-1.1c.7-.7,1.1-1.6,1.1-2.6s-.2-1.4-.7-1.9c-.4-.5-1-.9-1.7-1.3s-1.3-.6-2-.9c-.9-.3-1.7-.7-2.6-1.1-.8-.4-1.5-.9-2.1-1.5s-.8-1.4-.8-2.4.2-1.6.6-2.2c.4-.7,1-1.2,1.8-1.7.8-.4,1.8-.6,3-.6s1.7.2,2.6.5c.9.3,1.6.8,2.2,1.3l-.7.9c-.6-.4-1.2-.8-1.8-1.1-.7-.3-1.4-.5-2.3-.5-1.4,0-2.5.3-3.2,1s-1,1.5-1,2.3.2,1.2.6,1.7.9.8,1.5,1.1c.6.3,1.3.6,2,.8.7.3,1.4.5,2.1.8.7.3,1.3.6,1.8,1s1,.8,1.3,1.4c.3.6.5,1.3.5,2.1s-.2,1.7-.7,2.4c-.4.7-1.1,1.3-1.9,1.8-.8.4-1.9.7-3.1.7Z"/>
      <path class="st1" d="M1351.4-228c-.4,0-.6-.1-.9-.4-.2-.2-.3-.6-.3-1s.1-.7.3-.9c.2-.2.5-.3.9-.3s.6.1.8.3c.2.2.3.5.3.9s-.1.7-.3,1c-.2.2-.5.4-.8.4ZM1350.8-206.2v-17.4h1.2v17.4h-1.2Z"/>
      <path class="st1" d="M1364.5-197.7c-1.5,0-2.7-.2-3.8-.6s-1.9-1-2.5-1.7c-.6-.7-.9-1.6-.9-2.5s.2-1.5.7-2.3c.5-.8,1.1-1.4,1.9-2h0c-.4-.4-.8-.8-1.1-1.2s-.4-1-.4-1.7.2-1.5.7-2c.5-.5.9-.9,1.2-1.2h0c-.5-.6-1.1-1.3-1.5-2.1s-.7-1.8-.7-2.8.3-2.2.8-3.2c.5-.9,1.2-1.7,2.2-2.2.9-.5,1.9-.8,3-.8s1,0,1.3.1c.4,0,.7.2.9.3h5.8v1.1h-4.2c.6.5,1.1,1.2,1.5,1.9s.6,1.7.6,2.7-.3,2.2-.8,3.1c-.5.9-1.2,1.7-2.1,2.2s-1.9.8-3,.8-1,0-1.5-.2c-.5-.1-1-.3-1.4-.6-.4.3-.7.7-1.1,1.1-.3.4-.5.9-.5,1.5s.2,1.2.7,1.7c.5.5,1.4.7,2.7.7h3.9c1.9,0,3.3.3,4.2.9s1.4,1.6,1.4,3-.3,1.9-1,2.8c-.7.9-1.6,1.6-2.8,2.2-1.2.6-2.6.8-4.2.8ZM1364.6-198.8c1.4,0,2.6-.2,3.6-.7,1-.5,1.8-1.1,2.3-1.8.5-.7.8-1.4.8-2.2s-.4-1.8-1.1-2.2c-.7-.4-1.8-.6-3.1-.6h-4c-.1,0-.4,0-.8,0s-.9-.1-1.3-.2c-.9.6-1.5,1.2-1.8,1.9-.4.7-.6,1.4-.6,2,0,1.1.5,2.1,1.6,2.8s2.5,1.1,4.4,1.1ZM1364.1-212.8c.9,0,1.6-.2,2.4-.6.7-.4,1.3-1,1.7-1.8.4-.8.7-1.7.7-2.6s-.2-1.9-.6-2.7c-.4-.8-1-1.3-1.7-1.7s-1.5-.6-2.4-.6-1.6.2-2.4.6-1.3,1-1.7,1.7-.6,1.6-.6,2.7.2,1.9.7,2.6c.4.8,1,1.4,1.7,1.8.7.4,1.5.6,2.3.6Z"/>
      <path class="st1" d="M1376.4-206.2v-17.4h1l.2,2.8h0c.9-.9,1.8-1.7,2.8-2.3.9-.6,2-.9,3.2-.9,1.8,0,3.1.5,4,1.6.9,1.1,1.3,2.8,1.3,5v11.2h-1.2v-11c0-1.9-.3-3.3-1-4.3-.6-.9-1.7-1.4-3.2-1.4s-2.1.3-3,.9c-.9.6-1.9,1.4-3,2.6v13.3h-1.2Z"/>
      <path class="st1" d="M1395.9-205.8c-.3,0-.6-.1-.9-.4-.3-.3-.4-.6-.4-1s.1-.9.4-1.1c.3-.3.6-.4.9-.4s.7.1.9.4c.3.3.4.6.4,1.1s-.1.8-.4,1c-.3.3-.6.4-.9.4Z"/>
    </g>
    <g class="st0">
      <path class="st1" d="M393.3-166.6v-24h1.9l5.1,14.5c.3.9.7,1.8,1,2.7s.7,1.8,1,2.7h.1c.3-.9.6-1.8,1-2.7.3-.9.6-1.8.9-2.7l5.1-14.5h1.9v24h-1.2v-16.6c0-.6,0-1.3,0-2,0-.7,0-1.4,0-2.2,0-.7,0-1.4,0-2.1h-.1l-1.8,5.3-5.4,14.9h-1.3l-5.4-14.9-1.9-5.3h-.1c0,.6,0,1.3,0,2.1,0,.7,0,1.5,0,2.2,0,.7,0,1.4,0,2v16.6h-1.2Z"/>
      <path class="st1" d="M417.6-158.5c-.3,0-.6,0-.9,0-.3,0-.6-.2-.8-.3l.3-1.1c.2,0,.4.2.7.2.3,0,.5,0,.8,0,1.1,0,2-.5,2.8-1.4.7-.9,1.4-2.1,1.8-3.5l.5-1.6-7.2-17.8h1.3l4.4,11.4c.3.7.6,1.6.9,2.4.3.9.7,1.7,1,2.5h.2c.3-.8.6-1.6.9-2.5.3-.9.5-1.7.8-2.4l3.9-11.4h1.2l-6.9,19.8c-.3.9-.7,1.8-1.2,2.6-.5.9-1.1,1.6-1.8,2.1-.7.6-1.6.8-2.6.8Z"/>
    </g>
    <g class="st0">
      <path class="st1" d="M450.6-166.6l-5.2-17.4h1.3l3.3,11.6c.2.8.4,1.6.6,2.3.2.7.4,1.5.6,2.3h.2c.2-.8.4-1.5.6-2.3s.4-1.5.6-2.3l3.3-11.6h1.6l3.3,11.6c.2.8.4,1.6.7,2.3.2.7.4,1.5.7,2.3h.1c.2-.8.4-1.5.6-2.3.2-.7.4-1.5.7-2.3l3.2-11.6h1.3l-5.1,17.4h-1.6l-3.2-11.3c-.3-.8-.5-1.7-.7-2.5-.2-.8-.4-1.6-.7-2.5h-.2c-.2.8-.4,1.7-.7,2.5-.2.8-.5,1.7-.8,2.5l-3.2,11.2h-1.5Z"/>
    </g>
    <g class="st0">
      <path class="st1" d="M482.2-166.2c-1.4,0-2.7-.4-3.8-1.1-1.2-.7-2.1-1.7-2.8-3.1-.7-1.4-1.1-3-1.1-4.9s.4-3.6,1.1-5,1.6-2.4,2.8-3.1c1.2-.7,2.5-1.1,3.8-1.1s2,.2,3,.6c.9.4,1.8,1,2.5,1.8.7.8,1.3,1.7,1.7,2.9.4,1.1.6,2.4.6,3.9s-.4,3.5-1.1,4.9c-.7,1.4-1.7,2.4-2.8,3.1-1.2.7-2.4,1.1-3.8,1.1ZM482.2-167.3c1.2,0,2.3-.3,3.3-1s1.8-1.6,2.3-2.8c.6-1.2.9-2.6.9-4.2s-.3-3-.9-4.2c-.6-1.2-1.3-2.2-2.3-2.8-1-.7-2.1-1-3.3-1s-2.3.3-3.3,1c-1,.7-1.7,1.6-2.3,2.8s-.8,2.6-.8,4.2.3,3,.8,4.2c.6,1.2,1.3,2.1,2.3,2.8,1,.7,2.1,1,3.3,1Z"/>
      <path class="st1" d="M495.3-166.6v-17.4h1l.2,3.3h0c.6-1.1,1.3-1.9,2.1-2.6.8-.7,1.8-1.1,2.8-1.1s.6,0,.9,0c.3,0,.5.1.8.3l-.3,1.1c-.3-.1-.5-.2-.7-.2-.2,0-.5,0-.8,0-.8,0-1.6.3-2.5,1-.9.7-1.7,1.9-2.3,3.6v12h-1.2Z"/>
      <path class="st1" d="M506.5-166.6v-26.2h1.2v19.8h0l8.9-11h1.4l-5.6,6.9,6.6,10.5h-1.3l-6-9.6-4.1,4.9v4.8h-1.2Z"/>
    </g>
    <g class="st0">
      <path class="st1" d="M536.3-182.9v-.9l2.4-.2h5.3v1.1h-7.7ZM538.7-166.6v-21.6c0-1.1.2-2.1.5-2.8.3-.7.8-1.3,1.4-1.7.6-.4,1.3-.5,2.2-.5s.8,0,1.2.1c.4,0,.8.2,1.3.4l-.4,1c-.7-.4-1.4-.5-2.1-.5s-1.7.4-2.2,1.1c-.5.7-.7,1.7-.7,3v21.5h-1.2Z"/>
    </g>
    <g class="st0">
      <path class="st1" d="M556.4-166.2c-1.4,0-2.7-.4-3.8-1.1-1.2-.7-2.1-1.7-2.8-3.1-.7-1.4-1.1-3-1.1-4.9s.4-3.6,1.1-5,1.6-2.4,2.8-3.1c1.2-.7,2.5-1.1,3.8-1.1s2,.2,3,.6c.9.4,1.8,1,2.5,1.8.7.8,1.3,1.7,1.7,2.9.4,1.1.6,2.4.6,3.9s-.4,3.5-1.1,4.9c-.7,1.4-1.7,2.4-2.8,3.1s-2.4,1.1-3.8,1.1ZM556.4-167.3c1.2,0,2.3-.3,3.3-1,1-.7,1.8-1.6,2.3-2.8.6-1.2.9-2.6.9-4.2s-.3-3-.9-4.2c-.6-1.2-1.3-2.2-2.3-2.8-1-.7-2.1-1-3.3-1s-2.3.3-3.3,1c-1,.7-1.7,1.6-2.3,2.8-.6,1.2-.8,2.6-.8,4.2s.3,3,.8,4.2c.6,1.2,1.3,2.1,2.3,2.8s2.1,1,3.3,1Z"/>
      <path class="st1" d="M575.8-166.2c-1.5,0-2.8-.4-4-1.1s-2.1-1.7-2.8-3.1c-.7-1.4-1-3-1-4.9s.4-3.6,1.1-5c.7-1.4,1.7-2.4,2.9-3.1,1.2-.7,2.5-1.1,3.9-1.1s2.2.2,3,.7c.8.5,1.5,1,2.1,1.5l-.8.9c-.6-.5-1.2-1-1.9-1.4s-1.5-.6-2.4-.6-2.3.3-3.3,1c-1,.7-1.8,1.6-2.4,2.8-.6,1.2-.9,2.6-.9,4.2s.3,3,.8,4.2c.5,1.2,1.3,2.1,2.3,2.8,1,.7,2.1,1,3.4,1s1.9-.2,2.7-.6c.8-.4,1.5-.9,2.1-1.5l.7.9c-.7.6-1.6,1.2-2.5,1.6-.9.5-1.9.7-3.1.7Z"/>
      <path class="st1" d="M590.7-166.2c-1.8,0-3.1-.5-4-1.6-.9-1.1-1.3-2.7-1.3-5v-11.2h1.2v11.1c0,1.9.3,3.3,1,4.3.6.9,1.7,1.4,3.2,1.4s2.1-.3,3-.9c.9-.6,1.9-1.5,3-2.8v-13h1.2v17.4h-1v-3h-.2c-.9,1-1.8,1.8-2.7,2.5s-2,.9-3.2.9Z"/>
      <path class="st1" d="M608.9-166.2c-1.3,0-2.5-.2-3.6-.7s-2-1-2.8-1.7l.8-1c.7.6,1.5,1.1,2.4,1.6.9.4,2,.7,3.2.7s2.5-.4,3.3-1.1c.7-.7,1.1-1.6,1.1-2.6s-.2-1.4-.7-1.9c-.4-.5-1-.9-1.7-1.3s-1.3-.6-2-.9c-.9-.3-1.7-.7-2.6-1.1-.8-.4-1.5-.9-2.1-1.5s-.8-1.4-.8-2.4.2-1.6.6-2.2c.4-.7,1-1.2,1.8-1.7.8-.4,1.8-.6,3-.6s1.7.2,2.6.5c.9.3,1.6.8,2.2,1.3l-.7.9c-.6-.4-1.2-.8-1.8-1.1-.7-.3-1.4-.5-2.3-.5-1.4,0-2.5.3-3.2,1s-1,1.5-1,2.3.2,1.2.6,1.7.9.8,1.5,1.1c.6.3,1.3.6,2,.8.7.3,1.4.5,2.1.8.7.3,1.3.6,1.8,1s1,.8,1.3,1.4c.3.6.5,1.3.5,2.1s-.2,1.7-.7,2.4c-.4.7-1.1,1.3-1.9,1.8-.8.4-1.9.7-3.1.7Z"/>
      <path class="st1" d="M625.8-166.2c-1.5,0-2.8-.4-4-1.1-1.2-.7-2.2-1.8-2.9-3.1-.7-1.4-1.1-3-1.1-4.9s.2-2.7.6-3.8c.4-1.1,1-2.1,1.7-2.9s1.5-1.4,2.4-1.8c.9-.4,1.8-.6,2.8-.6s2.5.3,3.5.9c1,.6,1.7,1.5,2.3,2.7.5,1.2.8,2.7.8,4.4v.5c0,.2,0,.4,0,.6h-12.7c0,1.5.3,2.9.8,4.1.6,1.2,1.3,2.1,2.4,2.8,1,.7,2.2,1,3.6,1s1.9-.1,2.6-.4,1.5-.7,2.1-1.2l.5,1c-.7.4-1.4.8-2.2,1.1-.8.4-1.9.5-3.2.5ZM619.1-176.3h11.6c0-2.4-.5-4.1-1.5-5.3-1-1.2-2.3-1.7-3.9-1.7s-2,.3-2.9.8c-.9.6-1.7,1.4-2.2,2.4-.6,1-1,2.3-1.1,3.8Z"/>
      <path class="st1" d="M640.9-166.2c-1.3,0-2.5-.2-3.6-.7-1.1-.5-2-1-2.8-1.7l.8-1c.7.6,1.5,1.1,2.4,1.6.9.4,2,.7,3.2.7s2.5-.4,3.3-1.1,1.1-1.6,1.1-2.6-.2-1.4-.7-1.9c-.4-.5-1-.9-1.7-1.3-.7-.3-1.3-.6-2-.9-.9-.3-1.7-.7-2.6-1.1-.8-.4-1.5-.9-2.1-1.5-.6-.6-.8-1.4-.8-2.4s.2-1.6.6-2.2c.4-.7,1-1.2,1.8-1.7.8-.4,1.8-.6,3-.6s1.7.2,2.6.5,1.6.8,2.2,1.3l-.7.9c-.6-.4-1.2-.8-1.8-1.1-.7-.3-1.4-.5-2.3-.5-1.4,0-2.5.3-3.2,1-.7.7-1,1.5-1,2.3s.2,1.2.6,1.7c.4.5.9.8,1.5,1.1.6.3,1.3.6,2,.8.7.3,1.4.5,2.1.8.7.3,1.3.6,1.8,1s1,.8,1.3,1.4c.3.6.5,1.3.5,2.1s-.2,1.7-.7,2.4c-.4.7-1.1,1.3-1.9,1.8-.8.4-1.9.7-3.1.7Z"/>
      <path class="st1" d="M664.8-166.2c-1.4,0-2.7-.4-3.8-1.1s-2.1-1.7-2.8-3.1c-.7-1.4-1.1-3-1.1-4.9s.4-3.6,1.1-5,1.6-2.4,2.8-3.1,2.5-1.1,3.8-1.1,2,.2,3,.6c.9.4,1.8,1,2.5,1.8.7.8,1.3,1.7,1.7,2.9.4,1.1.6,2.4.6,3.9s-.4,3.5-1.1,4.9c-.7,1.4-1.7,2.4-2.8,3.1-1.2.7-2.4,1.1-3.8,1.1ZM664.8-167.3c1.2,0,2.3-.3,3.3-1,1-.7,1.8-1.6,2.3-2.8.6-1.2.9-2.6.9-4.2s-.3-3-.9-4.2-1.3-2.2-2.3-2.8c-1-.7-2.1-1-3.3-1s-2.3.3-3.3,1c-1,.7-1.7,1.6-2.3,2.8-.6,1.2-.8,2.6-.8,4.2s.3,3,.8,4.2c.6,1.2,1.3,2.1,2.3,2.8,1,.7,2.1,1,3.3,1Z"/>
      <path class="st1" d="M677.9-166.6v-17.4h1l.2,2.8h0c.9-.9,1.8-1.7,2.8-2.3.9-.6,2-.9,3.2-.9,1.8,0,3.1.5,4,1.6.9,1.1,1.3,2.8,1.3,5v11.2h-1.2v-11c0-1.9-.3-3.3-1-4.3-.6-.9-1.7-1.4-3.2-1.4s-2.1.3-3,.9c-.9.6-1.9,1.4-3,2.6v13.3h-1.2Z"/>
      <path class="st1" d="M704.3-166.6v-26.2h1.2v11.6c.9-.9,1.9-1.7,2.8-2.3,1-.6,2-.9,3.3-.9,1.8,0,3.1.5,4,1.6.9,1.1,1.3,2.8,1.3,5v11.2h-1.2v-11c0-1.9-.3-3.3-1-4.3-.6-.9-1.7-1.4-3.2-1.4s-2.1.3-3,.9-1.9,1.4-3,2.6v13.3h-1.2Z"/>
      <path class="st1" d="M728.3-166.2c-1.8,0-3.1-.5-4-1.6-.9-1.1-1.3-2.7-1.3-5v-11.2h1.2v11.1c0,1.9.3,3.3,1,4.3.6.9,1.7,1.4,3.2,1.4s2.1-.3,3-.9c.9-.6,1.9-1.5,3-2.8v-13h1.2v17.4h-1v-3h-.2c-.9,1-1.8,1.8-2.7,2.5s-2,.9-3.2.9Z"/>
      <path class="st1" d="M742.3-166.6v-17.4h1l.2,2.8h0c.8-.9,1.7-1.7,2.6-2.3,1-.6,1.9-.9,2.9-.9,1.4,0,2.5.3,3.2,1s1.2,1.5,1.5,2.6c1-1.1,2-2,3-2.7,1-.6,2-1,3-1,1.7,0,3,.5,3.8,1.6.9,1.1,1.3,2.8,1.3,5v11.2h-1.2v-11c0-1.9-.3-3.3-1-4.3-.7-.9-1.7-1.4-3.1-1.4s-1.7.3-2.6.9-1.8,1.4-2.9,2.6v13.3h-1.2v-11c0-1.9-.3-3.3-1-4.3-.7-.9-1.7-1.4-3.1-1.4s-1.7.3-2.6.9c-.9.6-1.9,1.4-2.9,2.6v13.3h-1.2Z"/>
      <path class="st1" d="M775.4-166.2c-.9,0-1.7-.2-2.5-.5-.8-.3-1.4-.8-1.8-1.5s-.7-1.6-.7-2.7c0-1.9.9-3.4,2.7-4.4s4.7-1.7,8.6-2.2c0-.9,0-1.9-.2-2.8-.2-.9-.6-1.6-1.2-2.2s-1.5-.9-2.7-.9-2.3.2-3.3.7c-1,.5-1.8.9-2.3,1.4l-.6-1c.4-.3.9-.6,1.5-.9.6-.4,1.4-.7,2.2-.9.8-.3,1.7-.4,2.7-.4,1.4,0,2.4.3,3.2.9.8.6,1.3,1.4,1.6,2.4.3,1,.5,2.1.5,3.3v11.3h-1l-.2-2.3h0c-.9.7-1.9,1.4-2.9,1.9-1.1.5-2.2.8-3.3.8ZM775.5-167.3c1,0,2-.2,3-.7s2.1-1.2,3.2-2.2v-6.2c-2.5.3-4.5.6-6,1.1-1.5.5-2.5,1.1-3.2,1.8-.6.7-1,1.6-1,2.6s.4,2.3,1.2,2.8c.8.6,1.7.8,2.7.8Z"/>
      <path class="st1" d="M789.4-166.6v-17.4h1l.2,2.8h0c.9-.9,1.8-1.7,2.8-2.3.9-.6,2-.9,3.2-.9,1.8,0,3.1.5,4,1.6.9,1.1,1.3,2.8,1.3,5v11.2h-1.2v-11c0-1.9-.3-3.3-1-4.3-.6-.9-1.7-1.4-3.2-1.4s-2.1.3-3,.9c-.9.6-1.9,1.4-3,2.6v13.3h-1.2Z"/>
      <path class="st1" d="M806.5-175v-1.2h7.9v1.2h-7.9Z"/>
    </g>
    <g class="st0">
      <path class="st1" d="M851-166.2c-1.5,0-2.8-.4-4-1.1s-2.1-1.7-2.8-3.1c-.7-1.4-1-3-1-4.9s.4-3.6,1.1-5c.7-1.4,1.7-2.4,2.9-3.1,1.2-.7,2.5-1.1,3.9-1.1s2.2.2,3,.7c.8.5,1.5,1,2.1,1.5l-.8.9c-.6-.5-1.2-1-1.9-1.4s-1.5-.6-2.4-.6-2.3.3-3.3,1c-1,.7-1.8,1.6-2.4,2.8s-.9,2.6-.9,4.2.3,3,.8,4.2c.5,1.2,1.3,2.1,2.3,2.8,1,.7,2.1,1,3.4,1s1.9-.2,2.7-.6c.8-.4,1.5-.9,2.1-1.5l.7.9c-.7.6-1.6,1.2-2.5,1.6-.9.5-1.9.7-3.1.7Z"/>
    </g>
    <g class="st0">
      <path class="st1" d="M867.2-166.2c-1.4,0-2.7-.4-3.8-1.1-1.2-.7-2.1-1.7-2.8-3.1-.7-1.4-1.1-3-1.1-4.9s.4-3.6,1.1-5,1.6-2.4,2.8-3.1c1.2-.7,2.5-1.1,3.8-1.1s2,.2,3,.6c.9.4,1.8,1,2.5,1.8.7.8,1.3,1.7,1.7,2.9.4,1.1.6,2.4.6,3.9s-.4,3.5-1.1,4.9c-.7,1.4-1.7,2.4-2.8,3.1s-2.4,1.1-3.8,1.1ZM867.2-167.3c1.2,0,2.3-.3,3.3-1,1-.7,1.8-1.6,2.3-2.8.6-1.2.9-2.6.9-4.2s-.3-3-.9-4.2c-.6-1.2-1.3-2.2-2.3-2.8-1-.7-2.1-1-3.3-1s-2.3.3-3.3,1c-1,.7-1.7,1.6-2.3,2.8-.6,1.2-.8,2.6-.8,4.2s.3,3,.8,4.2c.6,1.2,1.3,2.1,2.3,2.8s2.1,1,3.3,1Z"/>
      <path class="st1" d="M880.3-166.6v-17.4h1l.2,2.8h0c.8-.9,1.7-1.7,2.6-2.3,1-.6,1.9-.9,2.9-.9,1.4,0,2.5.3,3.2,1s1.2,1.5,1.5,2.6c1-1.1,2-2,3-2.7,1-.6,2-1,3-1,1.7,0,3,.5,3.8,1.6.9,1.1,1.3,2.8,1.3,5v11.2h-1.2v-11c0-1.9-.3-3.3-1-4.3-.7-.9-1.7-1.4-3.1-1.4s-1.7.3-2.6.9-1.8,1.4-2.9,2.6v13.3h-1.2v-11c0-1.9-.3-3.3-1-4.3-.7-.9-1.7-1.4-3.1-1.4s-1.7.3-2.6.9c-.9.6-1.9,1.4-2.9,2.6v13.3h-1.2Z"/>
      <path class="st1" d="M909.6-158.6v-25.4h1l.2,2.2h0c.9-.7,1.8-1.3,2.8-1.8,1-.5,2.1-.8,3.2-.8,1.6,0,2.9.4,3.9,1.1,1,.7,1.8,1.8,2.3,3.1.5,1.3.8,2.9.8,4.7s-.4,3.6-1.1,5c-.7,1.4-1.7,2.5-2.8,3.2-1.2.7-2.4,1.1-3.8,1.1s-1.7-.2-2.6-.6c-.9-.4-1.8-.9-2.7-1.6v9.8h-1.2ZM916.2-167.3c1.2,0,2.3-.4,3.3-1.1s1.7-1.7,2.3-2.9c.5-1.3.8-2.7.8-4.3s-.2-2.8-.6-4c-.4-1.2-1-2.1-1.8-2.8-.8-.7-2-1-3.4-1s-1.8.3-2.8.8-2,1.3-3.1,2.2v10.7c1,.9,2,1.5,3,1.8.9.4,1.8.5,2.4.5Z"/>
      <path class="st1" d="M934.2-166.2c-1.8,0-3.1-.5-4-1.6-.9-1.1-1.3-2.7-1.3-5v-11.2h1.2v11.1c0,1.9.3,3.3,1,4.3.6.9,1.7,1.4,3.2,1.4s2.1-.3,3-.9c.9-.6,1.9-1.5,3-2.8v-13h1.2v17.4h-1v-3h-.2c-.9,1-1.8,1.8-2.7,2.5s-2,.9-3.2.9Z"/>
    </g>
    <g class="st0">
      <path class="st1" d="M960.2-166.2c-1.1,0-1.9-.2-2.5-.6-.6-.4-1-1-1.2-1.8-.2-.8-.3-1.6-.3-2.7v-11.7h-2.8v-.9l2.8-.2v-5.1h1.2v5.1h5.1v1.1h-5.1v11.8c0,1.1.2,2,.6,2.7.4.7,1.2,1.1,2.5,1.1s.7,0,1.1-.2c.4-.1.8-.2,1.1-.4l.4,1c-.5.2-1,.3-1.5.5-.5.1-.9.2-1.2.2Z"/>
    </g>
    <g class="st0">
      <path class="st1" d="M975.2-166.2c-1.5,0-2.8-.4-4-1.1-1.2-.7-2.2-1.8-2.9-3.1-.7-1.4-1.1-3-1.1-4.9s.2-2.7.6-3.8c.4-1.1,1-2.1,1.7-2.9s1.5-1.4,2.4-1.8c.9-.4,1.8-.6,2.8-.6s2.5.3,3.5.9c1,.6,1.7,1.5,2.3,2.7.5,1.2.8,2.7.8,4.4v.5c0,.2,0,.4,0,.6h-12.7c0,1.5.3,2.9.8,4.1.6,1.2,1.3,2.1,2.4,2.8,1,.7,2.2,1,3.6,1s1.9-.1,2.6-.4,1.5-.7,2.1-1.2l.5,1c-.7.4-1.4.8-2.2,1.1-.8.4-1.9.5-3.2.5ZM968.5-176.3h11.6c0-2.4-.5-4.1-1.5-5.3-1-1.2-2.3-1.7-3.9-1.7s-2,.3-2.9.8c-.9.6-1.7,1.4-2.2,2.4-.6,1-1,2.3-1.1,3.8Z"/>
      <path class="st1" d="M986.2-166.6v-17.4h1l.2,3.3h0c.6-1.1,1.3-1.9,2.1-2.6.8-.7,1.8-1.1,2.8-1.1s.6,0,.9,0c.3,0,.5.1.8.3l-.3,1.1c-.3-.1-.5-.2-.7-.2s-.5,0-.8,0c-.8,0-1.6.3-2.5,1-.9.7-1.7,1.9-2.3,3.6v12h-1.2Z"/>
      <path class="st1" d="M1005.2-188.4c-.4,0-.6-.1-.9-.4s-.3-.6-.3-1,.1-.7.3-.9c.2-.2.5-.3.9-.3s.6.1.8.3.3.5.3.9-.1.7-.3,1c-.2.2-.5.4-.8.4ZM1004.6-166.6v-17.4h1.2v17.4h-1.2Z"/>
      <path class="st1" d="M1012.7-166.6v-17.4h1l.2,2.8h0c.9-.9,1.8-1.7,2.8-2.3.9-.6,2-.9,3.2-.9,1.8,0,3.1.5,4,1.6.9,1.1,1.3,2.8,1.3,5v11.2h-1.2v-11c0-1.9-.3-3.3-1-4.3-.6-.9-1.7-1.4-3.2-1.4s-2.1.3-3,.9c-.9.6-1.9,1.4-3,2.6v13.3h-1.2Z"/>
    </g>
    <g class="st0">
      <path class="st1" d="M1045.5-166.2c-1.1,0-1.9-.2-2.5-.6-.6-.4-1-1-1.2-1.8-.2-.8-.3-1.6-.3-2.7v-11.7h-2.8v-.9l2.8-.2v-5.1h1.2v5.1h5.1v1.1h-5.1v11.8c0,1.1.2,2,.6,2.7s1.2,1.1,2.5,1.1.7,0,1.1-.2c.4-.1.8-.2,1.1-.4l.4,1c-.5.2-1,.3-1.5.5-.5.1-.9.2-1.2.2Z"/>
    </g>
    <g class="st0">
      <path class="st1" d="M1060.6-166.2c-1.5,0-2.8-.4-4-1.1-1.2-.7-2.2-1.8-2.9-3.1-.7-1.4-1.1-3-1.1-4.9s.2-2.7.6-3.8c.4-1.1,1-2.1,1.7-2.9s1.5-1.4,2.4-1.8c.9-.4,1.8-.6,2.8-.6s2.5.3,3.5.9c1,.6,1.7,1.5,2.3,2.7.5,1.2.8,2.7.8,4.4v.5c0,.2,0,.4,0,.6h-12.7c0,1.5.3,2.9.8,4.1.6,1.2,1.3,2.1,2.4,2.8,1,.7,2.2,1,3.6,1s1.9-.1,2.6-.4,1.5-.7,2.1-1.2l.5,1c-.7.4-1.4.8-2.2,1.1-.8.4-1.9.5-3.2.5ZM1053.9-176.3h11.6c0-2.4-.5-4.1-1.5-5.3-1-1.2-2.3-1.7-3.9-1.7s-2,.3-2.9.8c-.9.6-1.7,1.4-2.2,2.4-.6,1-1,2.3-1.1,3.8Z"/>
    </g>
    <g class="st0">
      <path class="st1" d="M1073.3-166.6v-17.4h1l.2,3.3h0c.6-1.1,1.3-1.9,2.1-2.6.8-.7,1.8-1.1,2.8-1.1s.6,0,.9,0c.3,0,.5.1.8.3l-.3,1.1c-.3-.1-.5-.2-.7-.2s-.5,0-.8,0c-.8,0-1.6.3-2.5,1-.9.7-1.7,1.9-2.3,3.6v12h-1.2Z"/>
    </g>
    <g class="st0">
      <path class="st1" d="M1090.3-166.2c-.9,0-1.7-.2-2.5-.5s-1.4-.8-1.8-1.5c-.5-.7-.7-1.6-.7-2.7,0-1.9.9-3.4,2.7-4.4s4.7-1.7,8.6-2.2c0-.9,0-1.9-.2-2.8-.2-.9-.6-1.6-1.2-2.2-.6-.6-1.5-.9-2.7-.9s-2.3.2-3.3.7c-1,.5-1.8.9-2.3,1.4l-.6-1c.4-.3.9-.6,1.5-.9.6-.4,1.4-.7,2.2-.9.8-.3,1.7-.4,2.7-.4,1.4,0,2.4.3,3.2.9.8.6,1.3,1.4,1.6,2.4.3,1,.5,2.1.5,3.3v11.3h-1l-.2-2.3h0c-.9.7-1.9,1.4-2.9,1.9-1.1.5-2.2.8-3.3.8ZM1090.4-167.3c1,0,2-.2,3-.7s2.1-1.2,3.2-2.2v-6.2c-2.5.3-4.5.6-6,1.1s-2.5,1.1-3.2,1.8c-.6.7-1,1.6-1,2.6s.4,2.3,1.2,2.8c.8.6,1.7.8,2.7.8Z"/>
    </g>
    <g class="st0">
      <path class="st1" d="M1112.3-166.2c-1.5,0-2.8-.4-4-1.1s-2.1-1.7-2.8-3.1c-.7-1.4-1-3-1-4.9s.4-3.6,1.1-5c.7-1.4,1.7-2.4,2.9-3.1,1.2-.7,2.5-1.1,3.9-1.1s2.2.2,3,.7c.8.5,1.5,1,2.1,1.5l-.8.9c-.6-.5-1.2-1-1.9-1.4s-1.5-.6-2.4-.6-2.3.3-3.3,1c-1,.7-1.8,1.6-2.4,2.8s-.9,2.6-.9,4.2.3,3,.8,4.2c.5,1.2,1.3,2.1,2.3,2.8,1,.7,2.1,1,3.4,1s1.9-.2,2.7-.6c.8-.4,1.5-.9,2.1-1.5l.7.9c-.7.6-1.6,1.2-2.5,1.6-.9.5-1.9.7-3.1.7Z"/>
    </g>
    <g class="st0">
      <path class="st1" d="M1127.4-166.2c-1.1,0-1.9-.2-2.5-.6-.6-.4-1-1-1.2-1.8-.2-.8-.3-1.6-.3-2.7v-11.7h-2.8v-.9l2.8-.2v-5.1h1.2v5.1h5.1v1.1h-5.1v11.8c0,1.1.2,2,.6,2.7.4.7,1.2,1.1,2.5,1.1s.7,0,1.1-.2c.4-.1.8-.2,1.1-.4l.4,1c-.5.2-1,.3-1.5.5-.5.1-.9.2-1.2.2Z"/>
      <path class="st1" d="M1134.5-188.4c-.4,0-.6-.1-.9-.4-.2-.2-.3-.6-.3-1s.1-.7.3-.9c.2-.2.5-.3.9-.3s.6.1.8.3c.2.2.3.5.3.9s-.1.7-.3,1c-.2.2-.5.4-.8.4ZM1133.9-166.6v-17.4h1.2v17.4h-1.2Z"/>
      <path class="st1" d="M1148.2-166.2c-1.4,0-2.7-.4-3.8-1.1-1.2-.7-2.1-1.7-2.8-3.1-.7-1.4-1.1-3-1.1-4.9s.4-3.6,1.1-5,1.6-2.4,2.8-3.1c1.2-.7,2.5-1.1,3.8-1.1s2,.2,3,.6c.9.4,1.8,1,2.5,1.8.7.8,1.3,1.7,1.7,2.9.4,1.1.6,2.4.6,3.9s-.4,3.5-1.1,4.9c-.7,1.4-1.7,2.4-2.8,3.1s-2.4,1.1-3.8,1.1ZM1148.2-167.3c1.2,0,2.3-.3,3.3-1,1-.7,1.8-1.6,2.3-2.8.6-1.2.9-2.6.9-4.2s-.3-3-.9-4.2c-.6-1.2-1.3-2.2-2.3-2.8-1-.7-2.1-1-3.3-1s-2.3.3-3.3,1c-1,.7-1.7,1.6-2.3,2.8-.6,1.2-.8,2.6-.8,4.2s.3,3,.8,4.2c.6,1.2,1.3,2.1,2.3,2.8s2.1,1,3.3,1Z"/>
      <path class="st1" d="M1161.3-166.6v-17.4h1l.2,2.8h0c.9-.9,1.8-1.7,2.8-2.3.9-.6,2-.9,3.2-.9,1.8,0,3.1.5,4,1.6.9,1.1,1.3,2.8,1.3,5v11.2h-1.2v-11c0-1.9-.3-3.3-1-4.3-.6-.9-1.7-1.4-3.2-1.4s-2.1.3-3,.9-1.9,1.4-3,2.6v13.3h-1.2Z"/>
      <path class="st1" d="M1179.2-161.1l-.4-.9c.8-.4,1.4-1,1.9-1.8.5-.8.7-1.7.7-2.7l-.5-2,1.2,1.6c-.2.2-.3.4-.5.5-.2,0-.4.1-.6.1-.4,0-.7-.1-1-.4-.3-.2-.4-.6-.4-1s.1-.8.4-1c.3-.2.6-.3.9-.3s.9.2,1.2.6.4,1,.4,1.7c0,1.2-.3,2.3-1,3.3-.6,1-1.5,1.8-2.4,2.3Z"/>
      <path class="st1" d="M1203.3-166.2c-1,0-1.9-.1-2.9-.4s-1.8-.8-2.5-1.5c-.7-.7-1.3-1.7-1.8-2.9-.5-1.2-.7-2.8-.7-4.6v-15h1.2v14.7c0,2.2.3,3.9.9,5.1s1.4,2.1,2.5,2.6c1,.5,2.1.8,3.2.8s2.3-.3,3.3-.8c1-.5,1.9-1.4,2.5-2.6.6-1.2,1-3,1-5.1v-14.7h1.2v15c0,1.8-.2,3.4-.7,4.6-.5,1.2-1.1,2.2-1.8,2.9-.8.7-1.6,1.2-2.6,1.5s-1.9.4-2.9.4Z"/>
      <path class="st1" d="M1218.4-166.6v-24h1.2v24h-1.2Z"/>
    </g>
    <g class="st0">
      <path class="st1" d="M1257.8-166.2c-1,0-1.9-.1-2.9-.4-.9-.3-1.8-.8-2.5-1.5-.7-.7-1.3-1.7-1.8-2.9-.5-1.2-.7-2.8-.7-4.6v-15h1.2v14.7c0,2.2.3,3.9.9,5.1s1.4,2.1,2.5,2.6c1,.5,2.1.8,3.2.8s2.3-.3,3.3-.8c1-.5,1.9-1.4,2.5-2.6s1-3,1-5.1v-14.7h1.2v15c0,1.8-.2,3.4-.7,4.6-.5,1.2-1.1,2.2-1.8,2.9-.8.7-1.6,1.2-2.6,1.5-.9.3-1.9.4-2.9.4Z"/>
    </g>
    <g class="st0">
      <path class="st1" d="M1271.2-166.6l7.3-12.4-6.8-11.5h1.4l4.1,7.3c.3.5.6,1.1.9,1.5.3.5.6,1,1.1,1.7h.1c.4-.7.7-1.2.9-1.7.3-.5.5-1,.9-1.5l4.2-7.3h1.3l-6.8,11.6,7.3,12.3h-1.3l-4.4-7.7c-.3-.6-.7-1.2-1.1-1.8-.4-.6-.8-1.3-1.2-2h-.1c-.4.7-.8,1.4-1.1,2-.3.6-.7,1.2-1,1.8l-4.4,7.7h-1.3Z"/>
      <path class="st1" d="M1304.1-166.2c-1.5,0-2.7-.3-3.8-1-1.1-.7-1.9-1.7-2.5-3.1-.6-1.4-.9-3-.9-5s.4-3.5,1.1-4.9c.7-1.4,1.7-2.4,2.8-3.2,1.2-.7,2.5-1.1,3.9-1.1s2,.2,2.8.6c.8.4,1.7.9,2.5,1.6v-3.3c0,0,0-7.3,0-7.3h1.2v26.2h-1l-.2-2.3h0c-.7.7-1.6,1.4-2.5,1.9-1,.5-2.1.8-3.3.8ZM1304.2-167.3c1,0,2-.3,2.9-.8.9-.5,1.9-1.3,2.8-2.2v-10.7c-.9-.9-1.8-1.5-2.7-1.8-.8-.4-1.7-.5-2.6-.5s-2.3.4-3.3,1.1c-1,.7-1.8,1.7-2.3,2.9-.6,1.2-.9,2.6-.9,4.1s.2,3,.7,4.2c.5,1.2,1.2,2.1,2.1,2.8.9.7,2,1,3.3,1Z"/>
      <path class="st1" d="M1324.5-166.2c-1.5,0-2.8-.4-4-1.1-1.2-.7-2.2-1.8-2.9-3.1-.7-1.4-1.1-3-1.1-4.9s.2-2.7.6-3.8,1-2.1,1.7-2.9c.7-.8,1.5-1.4,2.4-1.8.9-.4,1.8-.6,2.8-.6s2.5.3,3.5.9c1,.6,1.7,1.5,2.3,2.7.5,1.2.8,2.7.8,4.4v.5c0,.2,0,.4,0,.6h-12.7c0,1.5.3,2.9.8,4.1.6,1.2,1.3,2.1,2.4,2.8,1,.7,2.2,1,3.6,1s1.9-.1,2.6-.4c.8-.3,1.5-.7,2.1-1.2l.5,1c-.7.4-1.4.8-2.2,1.1-.8.4-1.9.5-3.2.5ZM1317.8-176.3h11.6c0-2.4-.5-4.1-1.5-5.3-1-1.2-2.3-1.7-3.9-1.7s-2,.3-2.9.8c-.9.6-1.7,1.4-2.2,2.4s-1,2.3-1.1,3.8Z"/>
      <path class="st1" d="M1339.5-166.2c-1.3,0-2.5-.2-3.6-.7s-2-1-2.8-1.7l.8-1c.7.6,1.5,1.1,2.4,1.6.9.4,2,.7,3.2.7s2.5-.4,3.3-1.1c.7-.7,1.1-1.6,1.1-2.6s-.2-1.4-.7-1.9c-.4-.5-1-.9-1.7-1.3s-1.3-.6-2-.9c-.9-.3-1.7-.7-2.6-1.1-.8-.4-1.5-.9-2.1-1.5s-.8-1.4-.8-2.4.2-1.6.6-2.2c.4-.7,1-1.2,1.8-1.7.8-.4,1.8-.6,3-.6s1.7.2,2.6.5c.9.3,1.6.8,2.2,1.3l-.7.9c-.6-.4-1.2-.8-1.8-1.1-.7-.3-1.4-.5-2.3-.5-1.4,0-2.5.3-3.2,1s-1,1.5-1,2.3.2,1.2.6,1.7.9.8,1.5,1.1c.6.3,1.3.6,2,.8.7.3,1.4.5,2.1.8.7.3,1.3.6,1.8,1s1,.8,1.3,1.4c.3.6.5,1.3.5,2.1s-.2,1.7-.7,2.4c-.4.7-1.1,1.3-1.9,1.8-.8.4-1.9.7-3.1.7Z"/>
      <path class="st1" d="M1350.6-188.4c-.4,0-.6-.1-.9-.4-.2-.2-.3-.6-.3-1s.1-.7.3-.9c.2-.2.5-.3.9-.3s.6.1.8.3c.2.2.3.5.3.9s-.1.7-.3,1c-.2.2-.5.4-.8.4ZM1350-166.6v-17.4h1.2v17.4h-1.2Z"/>
      <path class="st1" d="M1363.7-158.1c-1.5,0-2.7-.2-3.8-.6s-1.9-1-2.5-1.7c-.6-.7-.9-1.6-.9-2.5s.2-1.5.7-2.3c.5-.8,1.1-1.4,1.9-2h0c-.4-.4-.8-.8-1.1-1.2s-.4-1-.4-1.7.2-1.5.7-2c.5-.5.9-.9,1.2-1.2h0c-.5-.6-1.1-1.3-1.5-2.1s-.7-1.8-.7-2.8.3-2.2.8-3.2c.5-.9,1.2-1.7,2.2-2.2.9-.5,1.9-.8,3-.8s1,0,1.3.1c.4,0,.7.2.9.3h5.8v1.1h-4.2c.6.5,1.1,1.2,1.5,1.9s.6,1.7.6,2.7-.3,2.2-.8,3.1c-.5.9-1.2,1.7-2.1,2.2s-1.9.8-3,.8-1,0-1.5-.2c-.5-.1-1-.3-1.4-.6-.4.3-.7.7-1.1,1.1-.3.4-.5.9-.5,1.5s.2,1.2.7,1.7c.5.5,1.4.7,2.7.7h3.9c1.9,0,3.3.3,4.2.9s1.4,1.6,1.4,3-.3,1.9-1,2.8c-.7.9-1.6,1.6-2.8,2.2-1.2.6-2.6.8-4.2.8ZM1363.7-159.2c1.4,0,2.6-.2,3.6-.7,1-.5,1.8-1.1,2.3-1.8.5-.7.8-1.4.8-2.2s-.4-1.8-1.1-2.2c-.7-.4-1.8-.6-3.1-.6h-4c-.1,0-.4,0-.8,0s-.9-.1-1.3-.2c-.9.6-1.5,1.2-1.8,1.9-.4.7-.6,1.4-.6,2,0,1.1.5,2.1,1.6,2.8s2.5,1.1,4.4,1.1ZM1363.3-173.2c.9,0,1.6-.2,2.4-.6.7-.4,1.3-1,1.7-1.8.4-.8.7-1.7.7-2.6s-.2-1.9-.6-2.7c-.4-.8-1-1.3-1.7-1.7s-1.5-.6-2.4-.6-1.6.2-2.4.6-1.3,1-1.7,1.7-.6,1.6-.6,2.7.2,1.9.7,2.6c.4.8,1,1.4,1.7,1.8.7.4,1.5.6,2.3.6Z"/>
      <path class="st1" d="M1375.5-166.6v-17.4h1l.2,2.8h0c.9-.9,1.8-1.7,2.8-2.3.9-.6,2-.9,3.2-.9,1.8,0,3.1.5,4,1.6.9,1.1,1.3,2.8,1.3,5v11.2h-1.2v-11c0-1.9-.3-3.3-1-4.3-.6-.9-1.7-1.4-3.2-1.4s-2.1.3-3,.9-1.9,1.4-3,2.6v13.3h-1.2Z"/>
      <path class="st1" d="M1393.4-161.1l-.4-.9c.8-.4,1.4-1,1.9-1.8.5-.8.7-1.7.7-2.7l-.5-2,1.2,1.6c-.2.2-.3.4-.5.5s-.4.1-.6.1c-.4,0-.7-.1-1-.4-.3-.2-.4-.6-.4-1s.1-.8.4-1c.3-.2.6-.3.9-.3s.9.2,1.2.6c.3.4.4,1,.4,1.7,0,1.2-.3,2.3-1,3.3-.6,1-1.5,1.8-2.4,2.3Z"/>
    </g>
    <g class="st0">
      <path class="st1" d="M323.7-126.6c-.9,0-1.7-.2-2.5-.5-.8-.3-1.4-.8-1.8-1.5s-.7-1.6-.7-2.7c0-1.9.9-3.4,2.7-4.4,1.8-1,4.7-1.7,8.6-2.2,0-.9,0-1.9-.2-2.8-.2-.9-.6-1.6-1.2-2.2-.6-.6-1.5-.9-2.7-.9s-2.3.2-3.3.7c-1,.5-1.8.9-2.3,1.4l-.6-1c.4-.3.9-.6,1.5-.9.6-.4,1.4-.7,2.2-.9.8-.3,1.7-.4,2.7-.4,1.4,0,2.4.3,3.2.9.8.6,1.3,1.4,1.6,2.4.3,1,.5,2.1.5,3.3v11.3h-1l-.2-2.3h0c-.9.7-1.9,1.4-2.9,1.9-1.1.5-2.2.8-3.3.8ZM323.8-127.7c1,0,2-.2,3-.7,1-.5,2.1-1.2,3.2-2.2v-6.2c-2.5.3-4.5.6-6,1.1s-2.5,1.1-3.2,1.8c-.6.7-1,1.6-1,2.6s.4,2.3,1.2,2.8c.8.6,1.7.8,2.7.8Z"/>
      <path class="st1" d="M337.6-127v-17.4h1l.2,2.8h0c.9-.9,1.8-1.7,2.8-2.3.9-.6,2-.9,3.2-.9,1.8,0,3.1.5,4,1.6s1.3,2.8,1.3,5v11.2h-1.2v-11c0-1.9-.3-3.3-1-4.3-.6-.9-1.7-1.4-3.2-1.4s-2.1.3-3,.9c-.9.6-1.9,1.4-3,2.6v13.3h-1.2Z"/>
      <path class="st1" d="M362.4-126.6c-1.5,0-2.7-.3-3.8-1-1.1-.7-1.9-1.7-2.5-3.1-.6-1.4-.9-3-.9-5s.4-3.5,1.1-4.9c.7-1.4,1.7-2.4,2.8-3.2,1.2-.7,2.5-1.1,3.9-1.1s2,.2,2.8.6c.8.4,1.7.9,2.5,1.6v-3.3c0,0,0-7.3,0-7.3h1.2v26.2h-1l-.2-2.3h0c-.7.7-1.6,1.4-2.5,1.9-1,.5-2.1.8-3.3.8ZM362.5-127.7c1,0,2-.3,2.9-.8.9-.5,1.9-1.3,2.8-2.2v-10.7c-.9-.9-1.8-1.5-2.7-1.8-.8-.4-1.7-.5-2.6-.5s-2.3.4-3.3,1.1c-1,.7-1.8,1.7-2.3,2.9-.6,1.2-.9,2.6-.9,4.1s.2,3,.7,4.2c.5,1.2,1.2,2.1,2.1,2.8.9.7,2,1,3.3,1Z"/>
      <path class="st1" d="M389.3-126.6c-1.5,0-2.7-.3-3.8-1-1.1-.7-1.9-1.7-2.5-3.1-.6-1.4-.9-3-.9-5s.4-3.5,1.1-4.9c.7-1.4,1.7-2.4,2.8-3.2,1.2-.7,2.5-1.1,3.9-1.1s2,.2,2.8.6c.8.4,1.7.9,2.5,1.6v-3.3c0,0,0-7.3,0-7.3h1.2v26.2h-1l-.2-2.3h0c-.7.7-1.6,1.4-2.5,1.9-1,.5-2.1.8-3.3.8ZM389.4-127.7c1,0,2-.3,2.9-.8.9-.5,1.9-1.3,2.8-2.2v-10.7c-.9-.9-1.8-1.5-2.7-1.8-.8-.4-1.7-.5-2.6-.5s-2.3.4-3.3,1.1c-1,.7-1.8,1.7-2.3,2.9-.6,1.2-.9,2.6-.9,4.1s.2,3,.7,4.2c.5,1.2,1.2,2.1,2.1,2.8.9.7,2,1,3.3,1Z"/>
    </g>
    <g class="st0">
      <path class="st1" d="M417-126.6c-1.5,0-2.8-.4-4-1.1-1.2-.7-2.2-1.8-2.9-3.1-.7-1.4-1.1-3-1.1-4.9s.2-2.7.6-3.8c.4-1.1,1-2.1,1.7-2.9.7-.8,1.5-1.4,2.4-1.8.9-.4,1.8-.6,2.8-.6s2.5.3,3.5.9c1,.6,1.7,1.5,2.3,2.7.5,1.2.8,2.7.8,4.4v.5c0,.2,0,.4,0,.6h-12.7c0,1.5.3,2.9.8,4.1s1.3,2.1,2.4,2.8c1,.7,2.2,1,3.6,1s1.9-.1,2.6-.4c.8-.3,1.5-.7,2.1-1.2l.5,1c-.7.4-1.4.8-2.2,1.1s-1.9.5-3.2.5ZM410.3-136.7h11.6c0-2.4-.5-4.1-1.5-5.3-1-1.2-2.3-1.7-3.9-1.7s-2,.3-2.9.8c-.9.6-1.7,1.4-2.2,2.4-.6,1-1,2.3-1.1,3.8Z"/>
    </g>
    <g class="st0">
      <path class="st1" d="M433-127l-6.6-17.4h1.3l4.1,11.2c.3.8.6,1.7.9,2.5.3.8.6,1.7.9,2.4h.1c.3-.8.6-1.6.9-2.4.3-.8.6-1.7.9-2.5l4.1-11.2h1.2l-6.5,17.4h-1.4Z"/>
    </g>
    <g class="st0">
      <path class="st1" d="M454.4-126.6c-1.5,0-2.8-.4-4-1.1-1.2-.7-2.2-1.8-2.9-3.1-.7-1.4-1.1-3-1.1-4.9s.2-2.7.6-3.8c.4-1.1,1-2.1,1.7-2.9.7-.8,1.5-1.4,2.4-1.8.9-.4,1.8-.6,2.8-.6s2.5.3,3.5.9c1,.6,1.7,1.5,2.3,2.7.5,1.2.8,2.7.8,4.4v.5c0,.2,0,.4,0,.6h-12.7c0,1.5.3,2.9.8,4.1s1.3,2.1,2.4,2.8c1,.7,2.2,1,3.6,1s1.9-.1,2.6-.4c.8-.3,1.5-.7,2.1-1.2l.5,1c-.7.4-1.4.8-2.2,1.1s-1.9.5-3.2.5ZM447.7-136.7h11.6c0-2.4-.5-4.1-1.5-5.3-1-1.2-2.3-1.7-3.9-1.7s-2,.3-2.9.8c-.9.6-1.7,1.4-2.2,2.4-.6,1-1,2.3-1.1,3.8Z"/>
      <path class="st1" d="M467.2-126.6c-.4,0-.7,0-1-.2s-.5-.4-.6-.8c-.1-.4-.2-.8-.2-1.4v-24.3h1.2v24.5c0,.4,0,.6.2.8.1.2.3.3.5.3s.1,0,.2,0c0,0,.2,0,.4,0l.2,1c-.2,0-.3,0-.4,0-.1,0-.3,0-.6,0Z"/>
      <path class="st1" d="M480-126.6c-1.4,0-2.7-.4-3.8-1.1-1.2-.7-2.1-1.7-2.8-3.1-.7-1.4-1.1-3-1.1-4.9s.4-3.6,1.1-5,1.6-2.4,2.8-3.1c1.2-.7,2.5-1.1,3.8-1.1s2,.2,3,.6c.9.4,1.8,1,2.5,1.8.7.8,1.3,1.7,1.7,2.9.4,1.1.6,2.4.6,3.9s-.4,3.5-1.1,4.9c-.7,1.4-1.7,2.4-2.8,3.1-1.2.7-2.4,1.1-3.8,1.1ZM480-127.7c1.2,0,2.3-.3,3.3-1s1.8-1.6,2.3-2.8c.6-1.2.9-2.6.9-4.2s-.3-3-.9-4.2c-.6-1.2-1.3-2.2-2.3-2.8-1-.7-2.1-1-3.3-1s-2.3.3-3.3,1c-1,.7-1.7,1.6-2.3,2.8s-.8,2.6-.8,4.2.3,3,.8,4.2c.6,1.2,1.3,2.1,2.3,2.8,1,.7,2.1,1,3.3,1Z"/>
      <path class="st1" d="M493.1-119v-25.4h1l.2,2.2h0c.9-.7,1.8-1.3,2.8-1.8s2.1-.8,3.2-.8c1.6,0,2.9.4,3.9,1.1,1,.7,1.8,1.8,2.3,3.1.5,1.3.8,2.9.8,4.7s-.4,3.6-1.1,5c-.7,1.4-1.7,2.5-2.8,3.2-1.2.7-2.4,1.1-3.8,1.1s-1.7-.2-2.6-.6c-.9-.4-1.8-.9-2.7-1.6v9.8h-1.2ZM499.7-127.7c1.2,0,2.3-.4,3.3-1.1s1.7-1.7,2.3-2.9c.5-1.3.8-2.7.8-4.3s-.2-2.8-.6-4c-.4-1.2-1-2.1-1.8-2.8-.8-.7-2-1-3.4-1s-1.8.3-2.8.8c-1,.5-2,1.3-3.1,2.2v10.7c1,.9,2,1.5,3,1.8.9.4,1.8.5,2.4.5Z"/>
      <path class="st1" d="M513.4-148.8c-.4,0-.6-.1-.9-.4-.2-.2-.3-.6-.3-1s.1-.7.3-.9c.2-.2.5-.3.9-.3s.6.1.8.3c.2.2.3.5.3.9s-.1.7-.3,1-.5.4-.8.4ZM512.8-127v-17.4h1.2v17.4h-1.2Z"/>
      <path class="st1" d="M520.8-127v-17.4h1l.2,2.8h0c.9-.9,1.8-1.7,2.8-2.3.9-.6,2-.9,3.2-.9,1.8,0,3.1.5,4,1.6s1.3,2.8,1.3,5v11.2h-1.2v-11c0-1.9-.3-3.3-1-4.3-.6-.9-1.7-1.4-3.2-1.4s-2.1.3-3,.9c-.9.6-1.9,1.4-3,2.6v13.3h-1.2Z"/>
      <path class="st1" d="M545.6-118.5c-1.5,0-2.7-.2-3.8-.6-1.1-.4-1.9-1-2.5-1.7-.6-.7-.9-1.6-.9-2.5s.2-1.5.7-2.3c.5-.8,1.1-1.4,1.9-2h0c-.4-.4-.8-.8-1.1-1.2s-.4-1-.4-1.7.2-1.5.7-2c.5-.5.9-.9,1.2-1.2h0c-.6-.6-1.1-1.3-1.5-2.1s-.7-1.8-.7-2.8.3-2.2.8-3.2c.5-.9,1.2-1.7,2.2-2.2.9-.5,1.9-.8,3-.8s1,0,1.3.1c.4,0,.7.2.9.3h5.8v1.1h-4.2c.6.5,1.1,1.2,1.5,1.9.4.8.6,1.7.6,2.7s-.3,2.2-.8,3.1c-.5.9-1.2,1.7-2.1,2.2-.9.5-1.9.8-3,.8s-1,0-1.5-.2c-.5-.1-1-.3-1.4-.6-.4.3-.7.7-1.1,1.1-.3.4-.5.9-.5,1.5s.2,1.2.7,1.7c.5.5,1.4.7,2.7.7h3.9c1.9,0,3.3.3,4.2.9.9.6,1.4,1.6,1.4,3s-.3,1.9-1,2.8c-.7.9-1.6,1.6-2.8,2.2-1.2.6-2.6.8-4.2.8ZM545.7-119.6c1.4,0,2.6-.2,3.6-.7,1-.5,1.8-1.1,2.3-1.8.5-.7.8-1.4.8-2.2s-.4-1.8-1.1-2.2c-.7-.4-1.8-.6-3.1-.6h-4c-.1,0-.4,0-.8,0s-.9-.1-1.3-.2c-.9.6-1.5,1.2-1.8,1.9-.4.7-.6,1.4-.6,2,0,1.1.5,2.1,1.6,2.8,1,.7,2.5,1.1,4.4,1.1ZM545.2-133.6c.9,0,1.6-.2,2.4-.6.7-.4,1.3-1,1.7-1.8.4-.8.7-1.7.7-2.6s-.2-1.9-.6-2.7c-.4-.8-1-1.3-1.7-1.7-.7-.4-1.5-.6-2.4-.6s-1.6.2-2.4.6c-.7.4-1.3,1-1.7,1.7-.4.7-.6,1.6-.6,2.7s.2,1.9.7,2.6c.4.8,1,1.4,1.7,1.8.7.4,1.5.6,2.3.6Z"/>
      <path class="st1" d="M565.4-148.8c-.4,0-.6-.1-.9-.4-.2-.2-.3-.6-.3-1s.1-.7.3-.9c.2-.2.5-.3.9-.3s.6.1.8.3c.2.2.3.5.3.9s-.1.7-.3,1-.5.4-.8.4ZM564.7-127v-17.4h1.2v17.4h-1.2Z"/>
      <path class="st1" d="M572.8-127v-17.4h1l.2,2.8h0c.9-.9,1.8-1.7,2.8-2.3.9-.6,2-.9,3.2-.9,1.8,0,3.1.5,4,1.6s1.3,2.8,1.3,5v11.2h-1.2v-11c0-1.9-.3-3.3-1-4.3-.6-.9-1.7-1.4-3.2-1.4s-2.1.3-3,.9c-.9.6-1.9,1.4-3,2.6v13.3h-1.2Z"/>
    </g>
    <g class="st0">
      <path class="st1" d="M613.5-126.6c-1.1,0-1.9-.2-2.5-.6-.6-.4-1-1-1.2-1.8-.2-.8-.3-1.6-.3-2.7v-11.7h-2.8v-.9l2.8-.2v-5.1h1.2v5.1h5.1v1.1h-5.1v11.8c0,1.1.2,2,.6,2.7.4.7,1.2,1.1,2.5,1.1s.7,0,1.1-.2c.4-.1.8-.2,1.1-.4l.4,1c-.5.2-1,.3-1.5.5-.5.1-.9.2-1.2.2Z"/>
    </g>
    <g class="st0">
      <path class="st1" d="M628.5-126.6c-1.5,0-2.8-.4-4-1.1-1.2-.7-2.2-1.8-2.9-3.1-.7-1.4-1.1-3-1.1-4.9s.2-2.7.6-3.8c.4-1.1,1-2.1,1.7-2.9.7-.8,1.5-1.4,2.4-1.8.9-.4,1.8-.6,2.8-.6s2.5.3,3.5.9c1,.6,1.7,1.5,2.3,2.7.5,1.2.8,2.7.8,4.4v.5c0,.2,0,.4,0,.6h-12.7c0,1.5.3,2.9.8,4.1s1.3,2.1,2.4,2.8c1,.7,2.2,1,3.6,1s1.9-.1,2.6-.4c.8-.3,1.5-.7,2.1-1.2l.5,1c-.7.4-1.4.8-2.2,1.1s-1.9.5-3.2.5ZM621.9-136.7h11.6c0-2.4-.5-4.1-1.5-5.3-1-1.2-2.3-1.7-3.9-1.7s-2,.3-2.9.8c-.9.6-1.7,1.4-2.2,2.4-.6,1-1,2.3-1.1,3.8Z"/>
    </g>
    <g class="st0">
      <path class="st1" d="M641.3-127v-17.4h1l.2,3.3h0c.6-1.1,1.3-1.9,2.1-2.6.8-.7,1.8-1.1,2.8-1.1s.6,0,.9,0c.3,0,.5.1.8.3l-.3,1.1c-.3-.1-.5-.2-.7-.2-.2,0-.5,0-.8,0-.8,0-1.6.3-2.5,1-.9.7-1.7,1.9-2.3,3.6v12h-1.2Z"/>
    </g>
    <g class="st0">
      <path class="st1" d="M658.2-126.6c-.9,0-1.7-.2-2.5-.5-.8-.3-1.4-.8-1.8-1.5s-.7-1.6-.7-2.7c0-1.9.9-3.4,2.7-4.4,1.8-1,4.7-1.7,8.6-2.2,0-.9,0-1.9-.2-2.8-.2-.9-.6-1.6-1.2-2.2-.6-.6-1.5-.9-2.7-.9s-2.3.2-3.3.7c-1,.5-1.8.9-2.3,1.4l-.6-1c.4-.3.9-.6,1.5-.9.6-.4,1.4-.7,2.2-.9.8-.3,1.7-.4,2.7-.4,1.4,0,2.4.3,3.2.9.8.6,1.3,1.4,1.6,2.4.3,1,.5,2.1.5,3.3v11.3h-1l-.2-2.3h0c-.9.7-1.9,1.4-2.9,1.9-1.1.5-2.2.8-3.3.8ZM658.3-127.7c1,0,2-.2,3-.7,1-.5,2.1-1.2,3.2-2.2v-6.2c-2.5.3-4.5.6-6,1.1s-2.5,1.1-3.2,1.8c-.6.7-1,1.6-1,2.6s.4,2.3,1.2,2.8c.8.6,1.7.8,2.7.8Z"/>
    </g>
    <g class="st0">
      <path class="st1" d="M680.3-126.6c-1.5,0-2.8-.4-4-1.1s-2.1-1.7-2.8-3.1c-.7-1.4-1-3-1-4.9s.4-3.6,1.1-5,1.7-2.4,2.9-3.1,2.5-1.1,3.9-1.1,2.2.2,3,.7c.8.5,1.5,1,2.1,1.5l-.8.9c-.6-.5-1.2-1-1.9-1.4s-1.5-.6-2.4-.6-2.3.3-3.3,1c-1,.7-1.8,1.6-2.4,2.8-.6,1.2-.9,2.6-.9,4.2s.3,3,.8,4.2c.5,1.2,1.3,2.1,2.3,2.8s2.1,1,3.4,1,1.9-.2,2.7-.6,1.5-.9,2.1-1.5l.7.9c-.7.6-1.6,1.2-2.5,1.6-.9.5-1.9.7-3.1.7Z"/>
    </g>
    <g class="st0">
      <path class="st1" d="M695.3-126.6c-1.1,0-1.9-.2-2.5-.6-.6-.4-1-1-1.2-1.8-.2-.8-.3-1.6-.3-2.7v-11.7h-2.8v-.9l2.8-.2v-5.1h1.2v5.1h5.1v1.1h-5.1v11.8c0,1.1.2,2,.6,2.7.4.7,1.2,1.1,2.5,1.1s.7,0,1.1-.2c.4-.1.8-.2,1.1-.4l.4,1c-.5.2-1,.3-1.5.5-.5.1-.9.2-1.2.2Z"/>
      <path class="st1" d="M702.5-148.8c-.4,0-.6-.1-.9-.4-.2-.2-.3-.6-.3-1s.1-.7.3-.9c.2-.2.5-.3.9-.3s.6.1.8.3c.2.2.3.5.3.9s-.1.7-.3,1-.5.4-.8.4ZM701.9-127v-17.4h1.2v17.4h-1.2Z"/>
    </g>
    <g class="st0">
      <path class="st1" d="M718.3-127l-6.6-17.4h1.3l4.1,11.2c.3.8.6,1.7.9,2.5.3.8.6,1.7.9,2.4h.1c.3-.8.6-1.6.9-2.4s.6-1.7.9-2.5l4.1-11.2h1.2l-6.5,17.4h-1.4Z"/>
    </g>
    <g class="st0">
      <path class="st1" d="M739.8-126.6c-1.5,0-2.8-.4-4-1.1-1.2-.7-2.2-1.8-2.9-3.1-.7-1.4-1.1-3-1.1-4.9s.2-2.7.6-3.8c.4-1.1,1-2.1,1.7-2.9.7-.8,1.5-1.4,2.4-1.8.9-.4,1.8-.6,2.8-.6s2.5.3,3.5.9c1,.6,1.7,1.5,2.3,2.7.5,1.2.8,2.7.8,4.4v.5c0,.2,0,.4,0,.6h-12.7c0,1.5.3,2.9.8,4.1s1.3,2.1,2.4,2.8c1,.7,2.2,1,3.6,1s1.9-.1,2.6-.4c.8-.3,1.5-.7,2.1-1.2l.5,1c-.7.4-1.4.8-2.2,1.1s-1.9.5-3.2.5ZM733.1-136.7h11.6c0-2.4-.5-4.1-1.5-5.3-1-1.2-2.3-1.7-3.9-1.7s-2,.3-2.9.8c-.9.6-1.7,1.4-2.2,2.4-.6,1-1,2.3-1.1,3.8Z"/>
      <path class="st1" d="M758-119v-25.4h1l.2,2.2h0c.9-.7,1.8-1.3,2.8-1.8s2.1-.8,3.2-.8c1.6,0,2.9.4,3.9,1.1,1,.7,1.8,1.8,2.3,3.1.5,1.3.8,2.9.8,4.7s-.4,3.6-1.1,5c-.7,1.4-1.7,2.5-2.8,3.2-1.2.7-2.4,1.1-3.8,1.1s-1.7-.2-2.6-.6c-.9-.4-1.8-.9-2.7-1.6v9.8h-1.2ZM764.6-127.7c1.2,0,2.3-.4,3.3-1.1s1.7-1.7,2.3-2.9c.5-1.3.8-2.7.8-4.3s-.2-2.8-.6-4c-.4-1.2-1-2.1-1.8-2.8-.8-.7-2-1-3.4-1s-1.8.3-2.8.8c-1,.5-2,1.3-3.1,2.2v10.7c1,.9,2,1.5,3,1.8.9.4,1.8.5,2.4.5Z"/>
    </g>
    <g class="st0">
      <path class="st1" d="M781.2-127v-17.4h1l.2,3.3h0c.6-1.1,1.3-1.9,2.1-2.6.8-.7,1.8-1.1,2.8-1.1s.6,0,.9,0c.3,0,.5.1.8.3l-.3,1.1c-.3-.1-.5-.2-.7-.2-.2,0-.5,0-.8,0-.8,0-1.6.3-2.5,1-.9.7-1.7,1.9-2.3,3.6v12h-1.2Z"/>
    </g>
    <g class="st0">
      <path class="st1" d="M801.3-126.6c-1.4,0-2.7-.4-3.8-1.1-1.2-.7-2.1-1.7-2.8-3.1-.7-1.4-1.1-3-1.1-4.9s.4-3.6,1.1-5,1.6-2.4,2.8-3.1c1.2-.7,2.5-1.1,3.8-1.1s2,.2,3,.6c.9.4,1.8,1,2.5,1.8.7.8,1.3,1.7,1.7,2.9.4,1.1.6,2.4.6,3.9s-.4,3.5-1.1,4.9c-.7,1.4-1.7,2.4-2.8,3.1-1.2.7-2.4,1.1-3.8,1.1ZM801.3-127.7c1.2,0,2.3-.3,3.3-1s1.8-1.6,2.3-2.8c.6-1.2.9-2.6.9-4.2s-.3-3-.9-4.2c-.6-1.2-1.3-2.2-2.3-2.8-1-.7-2.1-1-3.3-1s-2.3.3-3.3,1c-1,.7-1.7,1.6-2.3,2.8s-.8,2.6-.8,4.2.3,3,.8,4.2c.6,1.2,1.3,2.1,2.3,2.8,1,.7,2.1,1,3.3,1Z"/>
      <path class="st1" d="M812-118.5c-.4,0-.7,0-1.1-.1-.4,0-.7-.2-1-.3l.3-1c.2,0,.5.1.8.2s.7.1,1,.1c1,0,1.7-.4,1.9-1.1.3-.7.4-1.7.4-2.8v-20.9h1.2v21c0,1.1-.1,2-.4,2.7-.3.7-.7,1.2-1.2,1.6-.5.3-1.2.5-2,.5ZM815-148.8c-.4,0-.6-.1-.9-.4-.2-.2-.3-.6-.3-1s.1-.7.3-.9c.2-.2.5-.3.9-.3s.6.1.8.3c.2.2.3.5.3.9s-.1.7-.3,1-.5.4-.8.4Z"/>
      <path class="st1" d="M829-126.6c-1.5,0-2.8-.4-4-1.1-1.2-.7-2.2-1.8-2.9-3.1-.7-1.4-1.1-3-1.1-4.9s.2-2.7.6-3.8c.4-1.1,1-2.1,1.7-2.9.7-.8,1.5-1.4,2.4-1.8.9-.4,1.8-.6,2.8-.6s2.5.3,3.5.9c1,.6,1.7,1.5,2.3,2.7.5,1.2.8,2.7.8,4.4v.5c0,.2,0,.4,0,.6h-12.7c0,1.5.3,2.9.8,4.1s1.3,2.1,2.4,2.8c1,.7,2.2,1,3.6,1s1.9-.1,2.6-.4c.8-.3,1.5-.7,2.1-1.2l.5,1c-.7.4-1.4.8-2.2,1.1s-1.9.5-3.2.5ZM822.3-136.7h11.6c0-2.4-.5-4.1-1.5-5.3-1-1.2-2.3-1.7-3.9-1.7s-2,.3-2.9.8c-.9.6-1.7,1.4-2.2,2.4-.6,1-1,2.3-1.1,3.8Z"/>
    </g>
    <g class="st0">
      <path class="st1" d="M851.3-126.6c-1.5,0-2.8-.4-4-1.1s-2.1-1.7-2.8-3.1c-.7-1.4-1-3-1-4.9s.4-3.6,1.1-5,1.7-2.4,2.9-3.1,2.5-1.1,3.9-1.1,2.2.2,3,.7c.8.5,1.5,1,2.1,1.5l-.8.9c-.6-.5-1.2-1-1.9-1.4s-1.5-.6-2.4-.6-2.3.3-3.3,1c-1,.7-1.8,1.6-2.4,2.8-.6,1.2-.9,2.6-.9,4.2s.3,3,.8,4.2c.5,1.2,1.3,2.1,2.3,2.8s2.1,1,3.4,1,1.9-.2,2.7-.6,1.5-.9,2.1-1.5l.7.9c-.7.6-1.6,1.2-2.5,1.6-.9.5-1.9.7-3.1.7Z"/>
      <path class="st1" d="M865.4-126.6c-1.1,0-1.9-.2-2.5-.6-.6-.4-1-1-1.2-1.8-.2-.8-.3-1.6-.3-2.7v-11.7h-2.8v-.9l2.8-.2v-5.1h1.2v5.1h5.1v1.1h-5.1v11.8c0,1.1.2,2,.6,2.7.4.7,1.2,1.1,2.5,1.1s.7,0,1.1-.2c.4-.1.8-.2,1.1-.4l.4,1c-.5.2-1,.3-1.5.5-.5.1-.9.2-1.2.2Z"/>
    </g>
    <g class="st0">
      <path class="st1" d="M879.3-126.6c-1.3,0-2.5-.2-3.6-.7s-2-1-2.8-1.7l.8-1c.7.6,1.5,1.1,2.4,1.6.9.4,2,.7,3.2.7s2.5-.4,3.3-1.1c.7-.7,1.1-1.6,1.1-2.6s-.2-1.4-.7-1.9c-.4-.5-1-.9-1.7-1.3s-1.3-.6-2-.9c-.9-.3-1.7-.7-2.6-1.1-.8-.4-1.5-.9-2.1-1.5s-.8-1.4-.8-2.4.2-1.6.6-2.2c.4-.7,1-1.2,1.8-1.7.8-.4,1.8-.6,3-.6s1.7.2,2.6.5c.9.3,1.6.8,2.2,1.3l-.7.9c-.6-.4-1.2-.8-1.8-1.1-.7-.3-1.4-.5-2.3-.5-1.4,0-2.5.3-3.2,1s-1,1.5-1,2.3.2,1.2.6,1.7.9.8,1.5,1.1c.6.3,1.3.6,2,.8.7.3,1.4.5,2.1.8.7.3,1.3.6,1.8,1s1,.8,1.3,1.4c.3.6.5,1.3.5,2.1s-.2,1.7-.7,2.4c-.4.7-1.1,1.3-1.9,1.8-.8.4-1.9.7-3.1.7Z"/>
      <path class="st1" d="M899.6-127l-5.2-17.4h1.3l3.3,11.6c.2.8.4,1.6.6,2.3.2.7.4,1.5.6,2.3h.2c.2-.8.4-1.5.6-2.3s.4-1.5.6-2.3l3.3-11.6h1.6l3.3,11.6c.2.8.4,1.6.7,2.3.2.7.4,1.5.7,2.3h.1c.2-.8.4-1.5.6-2.3.2-.7.4-1.5.7-2.3l3.2-11.6h1.3l-5.1,17.4h-1.6l-3.2-11.3c-.3-.8-.5-1.7-.7-2.5-.2-.8-.4-1.6-.7-2.5h-.2c-.2.8-.4,1.7-.7,2.5-.2.8-.5,1.7-.8,2.5l-3.2,11.2h-1.5Z"/>
      <path class="st1" d="M922.1-148.8c-.4,0-.6-.1-.9-.4-.2-.2-.3-.6-.3-1s.1-.7.3-.9c.2-.2.5-.3.9-.3s.6.1.8.3c.2.2.3.5.3.9s-.1.7-.3,1c-.2.2-.5.4-.8.4ZM921.5-127v-17.4h1.2v17.4h-1.2Z"/>
      <path class="st1" d="M934.1-126.6c-1.1,0-1.9-.2-2.5-.6-.6-.4-1-1-1.2-1.8-.2-.8-.3-1.6-.3-2.7v-11.7h-2.8v-.9l2.8-.2v-5.1h1.2v5.1h5.1v1.1h-5.1v11.8c0,1.1.2,2,.6,2.7s1.2,1.1,2.5,1.1.7,0,1.1-.2c.4-.1.8-.2,1.1-.4l.4,1c-.5.2-1,.3-1.5.5-.5.1-.9.2-1.2.2Z"/>
      <path class="st1" d="M940.6-127v-26.2h1.2v11.6c.9-.9,1.9-1.7,2.8-2.3,1-.6,2-.9,3.2-.9,1.8,0,3.1.5,4,1.6.9,1.1,1.3,2.8,1.3,5v11.2h-1.2v-11c0-1.9-.3-3.3-1-4.3-.6-.9-1.7-1.4-3.2-1.4s-2.1.3-3,.9c-.9.6-1.9,1.4-3,2.6v13.3h-1.2Z"/>
      <path class="st1" d="M966.8-127v-17.4h1l.2,2.8h0c.8-.9,1.7-1.7,2.6-2.3,1-.6,1.9-.9,2.9-.9,1.4,0,2.5.3,3.3,1,.7.7,1.2,1.5,1.5,2.6,1-1.1,2-2,3-2.7,1-.6,2-1,3-1,1.7,0,3,.5,3.8,1.6s1.3,2.8,1.3,5v11.2h-1.2v-11c0-1.9-.3-3.3-1-4.3-.7-.9-1.7-1.4-3.1-1.4s-1.7.3-2.6.9c-.9.6-1.8,1.4-2.9,2.6v13.3h-1.2v-11c0-1.9-.3-3.3-1-4.3-.7-.9-1.7-1.4-3.1-1.4s-1.7.3-2.6.9-1.9,1.4-2.9,2.6v13.3h-1.2Z"/>
      <path class="st1" d="M1002.4-126.6c-1.4,0-2.7-.4-3.8-1.1s-2.1-1.7-2.8-3.1c-.7-1.4-1.1-3-1.1-4.9s.4-3.6,1.1-5,1.6-2.4,2.8-3.1,2.5-1.1,3.8-1.1,2,.2,3,.6c.9.4,1.8,1,2.5,1.8.7.8,1.3,1.7,1.7,2.9.4,1.1.6,2.4.6,3.9s-.4,3.5-1.1,4.9c-.7,1.4-1.7,2.4-2.8,3.1-1.2.7-2.4,1.1-3.8,1.1ZM1002.4-127.7c1.2,0,2.3-.3,3.3-1,1-.7,1.8-1.6,2.3-2.8.6-1.2.9-2.6.9-4.2s-.3-3-.9-4.2-1.3-2.2-2.3-2.8c-1-.7-2.1-1-3.3-1s-2.3.3-3.3,1c-1,.7-1.7,1.6-2.3,2.8-.6,1.2-.8,2.6-.8,4.2s.3,3,.8,4.2c.6,1.2,1.3,2.1,2.3,2.8,1,.7,2.1,1,3.3,1Z"/>
      <path class="st1" d="M1021.2-126.6c-1.5,0-2.7-.3-3.8-1-1.1-.7-1.9-1.7-2.5-3.1-.6-1.4-.9-3-.9-5s.4-3.5,1.1-4.9c.7-1.4,1.7-2.4,2.8-3.2,1.2-.7,2.5-1.1,3.9-1.1s2,.2,2.8.6c.8.4,1.7.9,2.5,1.6v-3.3c0,0,0-7.3,0-7.3h1.2v26.2h-1l-.2-2.3h0c-.7.7-1.6,1.4-2.5,1.9-1,.5-2.1.8-3.3.8ZM1021.3-127.7c1,0,2-.3,2.9-.8.9-.5,1.9-1.3,2.8-2.2v-10.7c-.9-.9-1.8-1.5-2.7-1.8s-1.7-.5-2.6-.5-2.3.4-3.3,1.1c-1,.7-1.8,1.7-2.3,2.9s-.9,2.6-.9,4.1.2,3,.7,4.2c.5,1.2,1.2,2.1,2.1,2.8s2,1,3.3,1Z"/>
      <path class="st1" d="M1041.6-126.6c-1.5,0-2.8-.4-4-1.1-1.2-.7-2.2-1.8-2.9-3.1-.7-1.4-1.1-3-1.1-4.9s.2-2.7.6-3.8,1-2.1,1.7-2.9c.7-.8,1.5-1.4,2.4-1.8.9-.4,1.8-.6,2.8-.6s2.5.3,3.5.9c1,.6,1.7,1.5,2.3,2.7.5,1.2.8,2.7.8,4.4v.5c0,.2,0,.4,0,.6h-12.7c0,1.5.3,2.9.8,4.1.6,1.2,1.3,2.1,2.4,2.8,1,.7,2.2,1,3.6,1s1.9-.1,2.6-.4c.8-.3,1.5-.7,2.1-1.2l.5,1c-.7.4-1.4.8-2.2,1.1-.8.4-1.9.5-3.2.5ZM1034.9-136.7h11.6c0-2.4-.5-4.1-1.5-5.3-1-1.2-2.3-1.7-3.9-1.7s-2,.3-2.9.8c-.9.6-1.7,1.4-2.2,2.4s-1,2.3-1.1,3.8Z"/>
      <path class="st1" d="M1052.5-127v-17.4h1l.2,3.3h0c.6-1.1,1.3-1.9,2.1-2.6.8-.7,1.8-1.1,2.8-1.1s.6,0,.9,0c.3,0,.5.1.8.3l-.3,1.1c-.3-.1-.5-.2-.7-.2s-.5,0-.8,0c-.8,0-1.6.3-2.5,1-.9.7-1.7,1.9-2.3,3.6v12h-1.2Z"/>
      <path class="st1" d="M1063.7-127v-17.4h1l.2,2.8h0c.9-.9,1.8-1.7,2.8-2.3.9-.6,2-.9,3.2-.9,1.8,0,3.1.5,4,1.6.9,1.1,1.3,2.8,1.3,5v11.2h-1.2v-11c0-1.9-.3-3.3-1-4.3-.6-.9-1.7-1.4-3.2-1.4s-2.1.3-3,.9c-.9.6-1.9,1.4-3,2.6v13.3h-1.2Z"/>
      <path class="st1" d="M1087.9-143.3v-.9l2.4-.2h5.3v1.1h-7.7ZM1090.3-127v-21.6c0-1.1.2-2.1.5-2.8.3-.7.8-1.3,1.4-1.7.6-.4,1.3-.5,2.2-.5s.8,0,1.2.1c.4,0,.8.2,1.3.4l-.4,1c-.7-.4-1.4-.5-2.1-.5s-1.7.4-2.2,1.1c-.5.7-.7,1.7-.7,3v21.5h-1.2Z"/>
    </g>
    <g class="st0">
      <path class="st1" d="M1128.3-127v-17.4h1l.2,3.3h0c.6-1.1,1.3-1.9,2.1-2.6s1.8-1.1,2.8-1.1.6,0,.9,0c.3,0,.5.1.8.3l-.3,1.1c-.3-.1-.5-.2-.7-.2-.2,0-.5,0-.8,0-.8,0-1.6.3-2.5,1-.9.7-1.7,1.9-2.3,3.6v12h-1.2Z"/>
    </g>
    <g class="st0">
      <path class="st1" d="M1148.3-126.6c-1.4,0-2.7-.4-3.8-1.1s-2.1-1.7-2.8-3.1c-.7-1.4-1.1-3-1.1-4.9s.4-3.6,1.1-5,1.6-2.4,2.8-3.1,2.5-1.1,3.8-1.1,2,.2,3,.6c.9.4,1.8,1,2.5,1.8.7.8,1.3,1.7,1.7,2.9.4,1.1.6,2.4.6,3.9s-.4,3.5-1.1,4.9c-.7,1.4-1.7,2.4-2.8,3.1-1.2.7-2.4,1.1-3.8,1.1ZM1148.3-127.7c1.2,0,2.3-.3,3.3-1,1-.7,1.8-1.6,2.3-2.8.6-1.2.9-2.6.9-4.2s-.3-3-.9-4.2-1.3-2.2-2.3-2.8c-1-.7-2.1-1-3.3-1s-2.3.3-3.3,1c-1,.7-1.7,1.6-2.3,2.8-.6,1.2-.8,2.6-.8,4.2s.3,3,.8,4.2c.6,1.2,1.3,2.1,2.3,2.8,1,.7,2.1,1,3.3,1Z"/>
      <path class="st1" d="M1161.5-127v-17.4h1l.2,2.8h0c.9-.9,1.8-1.7,2.8-2.3.9-.6,2-.9,3.2-.9,1.8,0,3.1.5,4,1.6.9,1.1,1.3,2.8,1.3,5v11.2h-1.2v-11c0-1.9-.3-3.3-1-4.3-.6-.9-1.7-1.4-3.2-1.4s-2.1.3-3,.9c-.9.6-1.9,1.4-3,2.6v13.3h-1.2Z"/>
    </g>
    <g class="st0">
      <path class="st1" d="M1188.4-126.6c-1.1,0-1.9-.2-2.5-.6-.6-.4-1-1-1.2-1.8-.2-.8-.3-1.6-.3-2.7v-11.7h-2.8v-.9l2.8-.2v-5.1h1.2v5.1h5.1v1.1h-5.1v11.8c0,1.1.2,2,.6,2.7.4.7,1.2,1.1,2.5,1.1s.7,0,1.1-.2c.4-.1.8-.2,1.1-.4l.4,1c-.5.2-1,.3-1.5.5-.5.1-.9.2-1.2.2Z"/>
    </g>
    <g class="st0">
      <path class="st1" d="M1194.4-135.4v-1.2h7.9v1.2h-7.9Z"/>
      <path class="st1" d="M1213.5-126.6c-1.5,0-2.8-.4-4-1.1-1.2-.7-2.2-1.8-2.9-3.1-.7-1.4-1.1-3-1.1-4.9s.2-2.7.6-3.8c.4-1.1,1-2.1,1.7-2.9s1.5-1.4,2.4-1.8c.9-.4,1.8-.6,2.8-.6s2.5.3,3.5.9c1,.6,1.7,1.5,2.3,2.7.5,1.2.8,2.7.8,4.4v.5c0,.2,0,.4,0,.6h-12.7c0,1.5.3,2.9.8,4.1.6,1.2,1.3,2.1,2.4,2.8,1,.7,2.2,1,3.6,1s1.9-.1,2.6-.4,1.5-.7,2.1-1.2l.5,1c-.7.4-1.4.8-2.2,1.1-.8.4-1.9.5-3.2.5ZM1206.8-136.7h11.6c0-2.4-.5-4.1-1.5-5.3-1-1.2-2.3-1.7-3.9-1.7s-2,.3-2.9.8c-.9.6-1.7,1.4-2.2,2.4-.6,1-1,2.3-1.1,3.8Z"/>
      <path class="st1" d="M1224.5-127v-17.4h1l.2,2.8h0c.9-.9,1.8-1.7,2.8-2.3.9-.6,2-.9,3.2-.9,1.8,0,3.1.5,4,1.6.9,1.1,1.3,2.8,1.3,5v11.2h-1.2v-11c0-1.9-.3-3.3-1-4.3-.6-.9-1.7-1.4-3.2-1.4s-2.1.3-3,.9c-.9.6-1.9,1.4-3,2.6v13.3h-1.2Z"/>
      <path class="st1" d="M1249.3-126.6c-1.5,0-2.7-.3-3.8-1-1.1-.7-1.9-1.7-2.5-3.1-.6-1.4-.9-3-.9-5s.4-3.5,1.1-4.9c.7-1.4,1.7-2.4,2.8-3.2,1.2-.7,2.5-1.1,3.9-1.1s2,.2,2.8.6c.8.4,1.7.9,2.5,1.6v-3.3c0,0,0-7.3,0-7.3h1.2v26.2h-1l-.2-2.3h0c-.7.7-1.6,1.4-2.5,1.9-1,.5-2.1.8-3.3.8ZM1249.4-127.7c1,0,2-.3,2.9-.8.9-.5,1.9-1.3,2.8-2.2v-10.7c-.9-.9-1.8-1.5-2.7-1.8s-1.7-.5-2.6-.5-2.3.4-3.3,1.1c-1,.7-1.8,1.7-2.3,2.9s-.9,2.6-.9,4.1.2,3,.7,4.2c.5,1.2,1.2,2.1,2.1,2.8s2,1,3.3,1Z"/>
    </g>
    <g class="st0">
      <path class="st1" d="M1282.2-126.6c-1.1,0-1.9-.2-2.5-.6-.6-.4-1-1-1.2-1.8-.2-.8-.3-1.6-.3-2.7v-11.7h-2.8v-.9l2.8-.2v-5.1h1.2v5.1h5.1v1.1h-5.1v11.8c0,1.1.2,2,.6,2.7.4.7,1.2,1.1,2.5,1.1s.7,0,1.1-.2c.4-.1.8-.2,1.1-.4l.4,1c-.5.2-1,.3-1.5.5-.5.1-.9.2-1.2.2Z"/>
    </g>
    <g class="st0">
      <path class="st1" d="M1297.2-126.6c-1.5,0-2.8-.4-4-1.1-1.2-.7-2.2-1.8-2.9-3.1-.7-1.4-1.1-3-1.1-4.9s.2-2.7.6-3.8c.4-1.1,1-2.1,1.7-2.9s1.5-1.4,2.4-1.8c.9-.4,1.8-.6,2.8-.6s2.5.3,3.5.9c1,.6,1.7,1.5,2.3,2.7.5,1.2.8,2.7.8,4.4v.5c0,.2,0,.4,0,.6h-12.7c0,1.5.3,2.9.8,4.1.6,1.2,1.3,2.1,2.4,2.8,1,.7,2.2,1,3.6,1s1.9-.1,2.6-.4,1.5-.7,2.1-1.2l.5,1c-.7.4-1.4.8-2.2,1.1-.8.4-1.9.5-3.2.5ZM1290.5-136.7h11.6c0-2.4-.5-4.1-1.5-5.3-1-1.2-2.3-1.7-3.9-1.7s-2,.3-2.9.8c-.9.6-1.7,1.4-2.2,2.4-.6,1-1,2.3-1.1,3.8Z"/>
      <path class="st1" d="M1314.4-126.6c-1.5,0-2.8-.4-4-1.1s-2.1-1.7-2.8-3.1c-.7-1.4-1-3-1-4.9s.4-3.6,1.1-5c.7-1.4,1.7-2.4,2.9-3.1,1.2-.7,2.5-1.1,3.9-1.1s2.2.2,3,.7c.8.5,1.5,1,2.1,1.5l-.8.9c-.6-.5-1.2-1-1.9-1.4s-1.5-.6-2.4-.6-2.3.3-3.3,1c-1,.7-1.8,1.6-2.4,2.8s-.9,2.6-.9,4.2.3,3,.8,4.2c.5,1.2,1.3,2.1,2.3,2.8,1,.7,2.1,1,3.4,1s1.9-.2,2.7-.6c.8-.4,1.5-.9,2.1-1.5l.7.9c-.7.6-1.6,1.2-2.5,1.6-.9.5-1.9.7-3.1.7Z"/>
      <path class="st1" d="M1324.4-127v-26.2h1.2v11.6c.9-.9,1.9-1.7,2.8-2.3,1-.6,2-.9,3.3-.9,1.8,0,3.1.5,4,1.6.9,1.1,1.3,2.8,1.3,5v11.2h-1.2v-11c0-1.9-.3-3.3-1-4.3-.6-.9-1.7-1.4-3.2-1.4s-2.1.3-3,.9-1.9,1.4-3,2.6v13.3h-1.2Z"/>
      <path class="st1" d="M1343.3-127v-17.4h1l.2,2.8h0c.9-.9,1.8-1.7,2.8-2.3.9-.6,2-.9,3.2-.9,1.8,0,3.1.5,4,1.6.9,1.1,1.3,2.8,1.3,5v11.2h-1.2v-11c0-1.9-.3-3.3-1-4.3-.6-.9-1.7-1.4-3.2-1.4s-2.1.3-3,.9-1.9,1.4-3,2.6v13.3h-1.2Z"/>
      <path class="st1" d="M1368.7-126.6c-1.4,0-2.7-.4-3.8-1.1-1.2-.7-2.1-1.7-2.8-3.1-.7-1.4-1.1-3-1.1-4.9s.4-3.6,1.1-5,1.6-2.4,2.8-3.1c1.2-.7,2.5-1.1,3.8-1.1s2,.2,3,.6c.9.4,1.8,1,2.5,1.8.7.8,1.3,1.7,1.7,2.9.4,1.1.6,2.4.6,3.9s-.4,3.5-1.1,4.9c-.7,1.4-1.7,2.4-2.8,3.1s-2.4,1.1-3.8,1.1ZM1368.7-127.7c1.2,0,2.3-.3,3.3-1,1-.7,1.8-1.6,2.3-2.8.6-1.2.9-2.6.9-4.2s-.3-3-.9-4.2c-.6-1.2-1.3-2.2-2.3-2.8-1-.7-2.1-1-3.3-1s-2.3.3-3.3,1c-1,.7-1.7,1.6-2.3,2.8-.6,1.2-.8,2.6-.8,4.2s.3,3,.8,4.2c.6,1.2,1.3,2.1,2.3,2.8s2.1,1,3.3,1Z"/>
      <path class="st1" d="M1383.6-126.6c-.4,0-.7,0-1-.2-.3-.2-.5-.4-.6-.8-.1-.4-.2-.8-.2-1.4v-24.3h1.2v24.5c0,.4,0,.6.2.8.1.2.3.3.5.3s.1,0,.2,0c0,0,.2,0,.4,0l.2,1c-.2,0-.3,0-.4,0-.1,0-.3,0-.6,0Z"/>
      <path class="st1" d="M1396.4-126.6c-1.4,0-2.7-.4-3.8-1.1s-2.1-1.7-2.8-3.1c-.7-1.4-1.1-3-1.1-4.9s.4-3.6,1.1-5,1.6-2.4,2.8-3.1,2.5-1.1,3.8-1.1,2,.2,3,.6c.9.4,1.8,1,2.5,1.8.7.8,1.3,1.7,1.7,2.9.4,1.1.6,2.4.6,3.9s-.4,3.5-1.1,4.9c-.7,1.4-1.7,2.4-2.8,3.1-1.2.7-2.4,1.1-3.8,1.1ZM1396.4-127.7c1.2,0,2.3-.3,3.3-1,1-.7,1.8-1.6,2.3-2.8.6-1.2.9-2.6.9-4.2s-.3-3-.9-4.2-1.3-2.2-2.3-2.8c-1-.7-2.1-1-3.3-1s-2.3.3-3.3,1c-1,.7-1.7,1.6-2.3,2.8-.6,1.2-.8,2.6-.8,4.2s.3,3,.8,4.2c.6,1.2,1.3,2.1,2.3,2.8,1,.7,2.1,1,3.3,1Z"/>
      <path class="st1" d="M1415.2-118.5c-1.5,0-2.7-.2-3.8-.6-1.1-.4-1.9-1-2.5-1.7-.6-.7-.9-1.6-.9-2.5s.2-1.5.7-2.3c.5-.8,1.1-1.4,1.9-2h0c-.4-.4-.8-.8-1.1-1.2s-.4-1-.4-1.7.2-1.5.7-2,.9-.9,1.2-1.2h0c-.6-.6-1.1-1.3-1.5-2.1s-.7-1.8-.7-2.8.3-2.2.8-3.2c.5-.9,1.2-1.7,2.2-2.2.9-.5,1.9-.8,3-.8s1,0,1.3.1c.4,0,.7.2.9.3h5.8v1.1h-4.2c.6.5,1.1,1.2,1.5,1.9.4.8.6,1.7.6,2.7s-.3,2.2-.8,3.1c-.5.9-1.2,1.7-2.1,2.2-.9.5-1.9.8-3,.8s-1,0-1.5-.2c-.5-.1-1-.3-1.4-.6-.4.3-.7.7-1.1,1.1-.3.4-.5.9-.5,1.5s.2,1.2.7,1.7c.5.5,1.4.7,2.7.7h3.9c1.9,0,3.3.3,4.2.9.9.6,1.4,1.6,1.4,3s-.3,1.9-1,2.8c-.7.9-1.6,1.6-2.8,2.2-1.2.6-2.6.8-4.2.8ZM1415.2-119.6c1.4,0,2.6-.2,3.6-.7,1-.5,1.8-1.1,2.3-1.8.5-.7.8-1.4.8-2.2s-.4-1.8-1.1-2.2c-.7-.4-1.8-.6-3.1-.6h-4c-.1,0-.4,0-.8,0s-.9-.1-1.3-.2c-.9.6-1.5,1.2-1.8,1.9-.4.7-.6,1.4-.6,2,0,1.1.5,2.1,1.6,2.8,1,.7,2.5,1.1,4.4,1.1ZM1414.8-133.6c.9,0,1.6-.2,2.4-.6.7-.4,1.3-1,1.7-1.8.4-.8.7-1.7.7-2.6s-.2-1.9-.6-2.7c-.4-.8-1-1.3-1.7-1.7-.7-.4-1.5-.6-2.4-.6s-1.6.2-2.4.6c-.7.4-1.3,1-1.7,1.7-.4.7-.6,1.6-.6,2.7s.2,1.9.7,2.6c.4.8,1,1.4,1.7,1.8.7.4,1.5.6,2.3.6Z"/>
      <path class="st1" d="M1427.7-148.8c-.4,0-.6-.1-.9-.4-.2-.2-.3-.6-.3-1s.1-.7.3-.9c.2-.2.5-.3.9-.3s.6.1.8.3c.2.2.3.5.3.9s-.1.7-.3,1c-.2.2-.5.4-.8.4ZM1427-127v-17.4h1.2v17.4h-1.2Z"/>
      <path class="st1" d="M1441.6-126.6c-1.5,0-2.8-.4-4-1.1-1.2-.7-2.2-1.8-2.9-3.1-.7-1.4-1.1-3-1.1-4.9s.2-2.7.6-3.8,1-2.1,1.7-2.9c.7-.8,1.5-1.4,2.4-1.8.9-.4,1.8-.6,2.8-.6s2.5.3,3.5.9c1,.6,1.7,1.5,2.3,2.7.5,1.2.8,2.7.8,4.4v.5c0,.2,0,.4,0,.6h-12.7c0,1.5.3,2.9.8,4.1.6,1.2,1.3,2.1,2.4,2.8,1,.7,2.2,1,3.6,1s1.9-.1,2.6-.4c.8-.3,1.5-.7,2.1-1.2l.5,1c-.7.4-1.4.8-2.2,1.1-.8.4-1.9.5-3.2.5ZM1434.9-136.7h11.6c0-2.4-.5-4.1-1.5-5.3-1-1.2-2.3-1.7-3.9-1.7s-2,.3-2.9.8c-.9.6-1.7,1.4-2.2,2.4s-1,2.3-1.1,3.8Z"/>
      <path class="st1" d="M1456.6-126.6c-1.3,0-2.5-.2-3.6-.7s-2-1-2.8-1.7l.8-1c.7.6,1.5,1.1,2.4,1.6.9.4,2,.7,3.2.7s2.5-.4,3.3-1.1c.7-.7,1.1-1.6,1.1-2.6s-.2-1.4-.7-1.9c-.4-.5-1-.9-1.7-1.3s-1.3-.6-2-.9c-.9-.3-1.7-.7-2.6-1.1-.8-.4-1.5-.9-2.1-1.5s-.8-1.4-.8-2.4.2-1.6.6-2.2c.4-.7,1-1.2,1.8-1.7.8-.4,1.8-.6,3-.6s1.7.2,2.6.5c.9.3,1.6.8,2.2,1.3l-.7.9c-.6-.4-1.2-.8-1.8-1.1-.7-.3-1.4-.5-2.3-.5-1.4,0-2.5.3-3.2,1s-1,1.5-1,2.3.2,1.2.6,1.7.9.8,1.5,1.1c.6.3,1.3.6,2,.8.7.3,1.4.5,2.1.8.7.3,1.3.6,1.8,1s1,.8,1.3,1.4c.3.6.5,1.3.5,2.1s-.2,1.7-.7,2.4c-.4.7-1.1,1.3-1.9,1.8-.8.4-1.9.7-3.1.7Z"/>
    </g>
  </g>
</svg>