<?xml version="1.0" encoding="UTF-8"?>
<svg id="OBJECTS" xmlns="http://www.w3.org/2000/svg" viewBox="0 0 669.94 106.47">
  <defs>
    <style>
      .cls-1 {
        fill: #ce9c89;
      }

      .cls-2 {
        fill: #ee9959;
      }

      .cls-3 {
        fill: #d89875;
      }

      .cls-4 {
        font-family: GenJyuuGothic-P-Heavy, 'Gen Jyuu Gothic P';
        font-size: 13.39px;
        font-weight: 800;
      }

      .cls-5 {
        fill: #b76d3b;
      }

      .cls-6 {
        letter-spacing: 0em;
      }

      .cls-7 {
        letter-spacing: -.02em;
      }

      .cls-8 {
        letter-spacing: -.03em;
      }

      .cls-9 {
        fill: #eda65a;
      }

      .cls-10 {
        letter-spacing: 0em;
      }

      .cls-11 {
        letter-spacing: 0em;
      }

      .cls-12 {
        letter-spacing: 0em;
      }

      .cls-13 {
        fill: #9e735e;
      }

      .cls-14 {
        fill: #ad713e;
      }
    </style>
  </defs>
  <rect class="cls-9" x="11.08" y="25.13" width="150.01" height="56.22" rx="12" ry="12"/>
  <text class="cls-4" transform="translate(60.29 48.94)"><tspan class="cls-7" x="0" y="0">P</tspan><tspan class="cls-6" x="8.93" y="0">e</tspan><tspan class="cls-11" x="16.91" y="0">r</tspan><tspan x="22.99" y="0">sona </tspan><tspan x="-16.57" y="16.07">D</tspan><tspan class="cls-11" x="-6.81" y="16.07">ev</tspan><tspan x="9.02" y="16.07">elopment</tspan></text>
  <rect class="cls-2" x="177.08" y="25.13" width="150.01" height="56.22" rx="12" ry="12"/>
  <text class="cls-4" transform="translate(210.48 48.65)"><tspan class="cls-11" x="0" y="0">U</tspan><tspan class="cls-6" x="10.08" y="0">ser Journ</tspan><tspan class="cls-12" x="74.3" y="0">e</tspan><tspan x="82.14" y="0">y </tspan><tspan x="17.25" y="16.07">Mapping</tspan></text>
  <rect class="cls-3" x="339.67" y="25.13" width="150.01" height="56.22" rx="12" ry="12"/>
  <text class="cls-4" transform="translate(388.55 49.65)"><tspan class="cls-7" x="0" y="0">F</tspan><tspan class="cls-10" x="7.82" y="0">e</tspan><tspan x="15.67" y="0">atu</tspan><tspan class="cls-11" x="38.48" y="0">r</tspan><tspan x="44.56" y="0">e </tspan><tspan x="-18.01" y="16.07">Prioriti</tspan><tspan class="cls-10" x="30.95" y="16.07">z</tspan><tspan x="37.93" y="16.07">ation</tspan></text>
  <path class="cls-14" d="M151.2,51.7c.05-.16.32-.51.48-.51h30.86v-4.61s.15-.31.19-.33c.38-.22.81.23,1.09.43l9.98,9.73c.58.67.02,1.16-.43,1.66-1.66,1.83-3.54,3.6-5.27,5.37-1.33,1.37-2.75,3.05-4.15,4.31-.2.18-.78.68-1.02.35-.03-.04-.13-.34-.13-.38v-4.66h-31.21c-.19,0-.32-.42-.38-.56v-10.8Z"/>
  <path class="cls-5" d="M312.97,51.7c.05-.16.32-.51.48-.51h30.86v-4.61s.15-.31.19-.33c.38-.22.81.23,1.09.43l9.98,9.73c.58.67.02,1.16-.43,1.66-1.66,1.83-3.54,3.6-5.27,5.37-1.33,1.37-2.75,3.05-4.15,4.31-.2.18-.78.68-1.02.35-.03-.04-.13-.34-.13-.38v-4.66h-31.21c-.19,0-.32-.42-.38-.56v-10.8Z"/>
  <rect class="cls-1" x="511.11" y="24.41" width="150.01" height="56.22" rx="12" ry="12"/>
  <path class="cls-13" d="M474.75,50.99c.05-.16.32-.51.48-.51h30.86v-4.61s.15-.31.19-.33c.38-.22.81.23,1.09.43l9.98,9.73c.58.67.02,1.16-.43,1.66-1.66,1.83-3.54,3.6-5.27,5.37-1.33,1.37-2.75,3.05-4.15,4.31-.2.18-.78.68-1.02.35-.03-.04-.13-.34-.13-.38v-4.66h-31.21c-.19,0-.32-.42-.38-.56v-10.8Z"/>
  <text class="cls-4" transform="translate(544.07 49.15)"><tspan class="cls-8" x="0" y="0">P</tspan><tspan x="8.79" y="0">ain </tspan><tspan class="cls-7" x="33.05" y="0">P</tspan><tspan x="41.98" y="0">oints </tspan><tspan x="12.12" y="16.07">&amp; Needs</tspan></text>
</svg>