<?xml version="1.0" encoding="UTF-8"?>
<svg id="OBJECTS" xmlns="http://www.w3.org/2000/svg" viewBox="0 0 502.27 106.47">
  <defs>
    <style>
      .cls-1 {
        fill: #967649;
      }

      .cls-2 {
        font-size: 15px;
      }

      .cls-2, .cls-3 {
        font-family: GenJyuuGothic-P-Heavy, 'Gen Jyuu Gothic P';
        font-weight: 800;
      }

      .cls-4 {
        fill: #e8d36b;
      }

      .cls-5 {
        fill: #d8ba6c;
      }

      .cls-3 {
        font-size: 13.39px;
      }

      .cls-6 {
        letter-spacing: 0em;
      }

      .cls-7 {
        fill: #f4be60;
      }

      .cls-8 {
        fill: #b18046;
      }

      .cls-9 {
        letter-spacing: -.01em;
      }

      .cls-10 {
        letter-spacing: -.03em;
      }

      .cls-11 {
        letter-spacing: 0em;
      }

      .cls-12 {
        letter-spacing: 0em;
      }

      .cls-13 {
        letter-spacing: 0em;
      }

      .cls-14 {
        letter-spacing: 0em;
      }

      .cls-15 {
        letter-spacing: 0em;
      }
    </style>
  </defs>
  <rect class="cls-7" x="11.08" y="29.11" width="150.01" height="56.22" rx="12" ry="12"/>
  <text class="cls-2" transform="translate(42.72 63.8)"><tspan x="0" y="0">Wi</tspan><tspan class="cls-13" x="18.82" y="0">r</tspan><tspan class="cls-11" x="25.63" y="0">e</tspan><tspan x="34.48" y="0">f</tspan><tspan class="cls-10" x="40.44" y="0">r</tspan><tspan x="46.95" y="0">ame</tspan></text>
  <rect class="cls-5" x="177.08" y="29.11" width="150.01" height="56.22" rx="12" ry="12"/>
  <text class="cls-3" transform="translate(234.44 52.63)"><tspan class="cls-9" x="0" y="0">L</tspan><tspan class="cls-14" x="7.79" y="0">o</tspan><tspan x="16.19" y="0">w-fi </tspan><tspan x="-11.35" y="16.07">P</tspan><tspan class="cls-15" x="-2.15" y="16.07">r</tspan><tspan x="3.93" y="16.07">o</tspan><tspan class="cls-14" x="12.46" y="16.07">t</tspan><tspan x="18.28" y="16.07">otype</tspan></text>
  <rect class="cls-4" x="339.67" y="29.11" width="150.01" height="56.22" rx="12" ry="12"/>
  <text class="cls-3" transform="translate(378.59 52.63)"><tspan x="0" y="0">Medium-Fi </tspan><tspan x="3.28" y="16.07">P</tspan><tspan class="cls-14" x="12.47" y="16.07">r</tspan><tspan class="cls-6" x="18.55" y="16.07">o</tspan><tspan class="cls-12" x="27.08" y="16.07">t</tspan><tspan class="cls-6" x="32.9" y="16.07">otype</tspan></text>
  <path class="cls-8" d="M151.2,55.68c.05-.16.32-.51.48-.51h30.86v-4.61s.15-.31.19-.33c.38-.22.81.23,1.09.43l9.98,9.73c.58.67.02,1.16-.43,1.66-1.66,1.83-3.54,3.6-5.27,5.37-1.33,1.37-2.75,3.05-4.15,4.31-.2.18-.78.68-1.02.35-.03-.04-.13-.34-.13-.38v-4.66h-31.21c-.19,0-.32-.42-.38-.56v-10.8Z"/>
  <path class="cls-1" d="M312.97,55.68c.05-.16.32-.51.48-.51h30.86v-4.61s.15-.31.19-.33c.38-.22.81.23,1.09.43l9.98,9.73c.58.67.02,1.16-.43,1.66-1.66,1.83-3.54,3.6-5.27,5.37-1.33,1.37-2.75,3.05-4.15,4.31-.2.18-.78.68-1.02.35-.03-.04-.13-.34-.13-.38v-4.66h-31.21c-.19,0-.32-.42-.38-.56v-10.8Z"/>
</svg>